<svg xmlns="http://www.w3.org/2000/svg" viewBox="0 0 75.79 72.91"><g id="Layer_2" data-name="Layer 2"><g id="Layer_1-2" data-name="Layer 1"><path d="M75.13,24.4a1,1,0,0,1,.58.45.85.85,0,0,1-.13.88l0,0-.42.19H75a6.15,6.15,0,0,0-1,0,7.22,7.22,0,0,0-1,0,6.15,6.15,0,0,0-1,0,9,9,0,0,0-1,0,6.15,6.15,0,0,0-1,0,7.22,7.22,0,0,0-1,0l-.74,0a.74.74,0,0,1-.8-.74.76.76,0,0,1,.8-.78H69a9,9,0,0,0,1,0,5.52,5.52,0,0,0,.91,0,8,8,0,0,0,1.09,0,5.52,5.52,0,0,0,.91,0,8,8,0,0,0,1.09,0,7.69,7.69,0,0,0,1,0Z" fill="#020202"/><path d="M54.14,24.72a5.07,5.07,0,0,0,.48.56l.2.28v0A.72.72,0,0,0,54.14,24.72Zm9.2-2.45a.75.75,0,0,0-.75-.58h-11c-.19,0-.25,0-.22-.14a.47.47,0,0,1,0-.16.31.31,0,0,1,0-.1.58.58,0,0,1,0-.32.49.49,0,0,1,0-.11.17.17,0,0,1,0-.14c.06-.36.1-.72.18-1.07A13.52,13.52,0,0,1,52,18.24s0-.06,0-.09a.79.79,0,0,1,.08-.43s0-.07,0-.1a11.92,11.92,0,0,1,.28-1.47.31.31,0,0,1,0-.1A9.55,9.55,0,0,1,52.54,15a12.16,12.16,0,0,1,.29-1.46.38.38,0,0,1,0-.1.77.77,0,0,1,.08-.42s0-.06,0-.1a14.61,14.61,0,0,1,.27-1.47.36.36,0,0,0,0-.1.74.74,0,0,1,.08-.42.38.38,0,0,0,0-.1,9.53,9.53,0,0,1,.19-1.09,9.23,9.23,0,0,1,.27-1.39.77.77,0,0,0,0-.15V8c.22-1.21.45-2.43.66-3.65.11-.59-.09-.89-.69-1h-.09A1.18,1.18,0,0,0,53,4q-2.53,4.6-5.11,9.2l-2.37,4.26c-.33.61-.68,1.22-1,1.83l-1.7,3c-.5.9-1,1.8-1.49,2.7A.76.76,0,0,0,42,26.22h8.5c.72,0,1.43,0,2.14,0h.25a.34.34,0,0,1,.15,0c.07,0,.1.05.1.14a.57.57,0,0,1,0,.12,2.74,2.74,0,0,0-.05.28c-.23,1.22-.44,2.45-.66,3.67s-.5,2.62-.73,3.92c-.27,1.49-.53,3-.8,4.45-.2,1.09-.4,2.18-.61,3.27a1,1,0,0,1-.05.16s0,.06,0,.09L50,43.65a.57.57,0,0,0,0,.26.83.83,0,0,0,.71.64h.1a1.1,1.1,0,0,0,.69-.59q2-3.68,4.07-7.34c.42-.76.85-1.51,1.26-2.27.07-.11.13-.22.19-.33.41-.74.82-1.46,1.22-2.2l.11-.19,2.32-4.15c.81-1.46,1.62-2.93,2.43-4.38,0-.07.08-.12.12-.18h0A1.17,1.17,0,0,0,63.34,22.27Zm-2.2,1.26-2.66,4.8L57.57,30l0,.05-1.23,2.2-.1.17-1.16,2.08c-.88,1.59-1.76,3.18-2.67,4.77a21.74,21.74,0,0,1,.45-2.56.38.38,0,0,1,0-.1c0-.35.11-.7.17-1,.13-.66.22-1.33.39-2,0,0,0-.06,0-.09a9.55,9.55,0,0,1,.18-1.07c.11-.62.23-1.23.35-1.85a.41.41,0,0,1,0-.08s0-.07,0-.1a9.52,9.52,0,0,1,.22-1.28,5.58,5.58,0,0,1,.08-.57,1,1,0,0,1,.07-.15.28.28,0,0,0,0-.09.77.77,0,0,1,.08-.43.34.34,0,0,0,0-.1c.08-.45.16-.9.23-1.35a7.62,7.62,0,0,0,.14-.81v0a.72.72,0,0,0-.68-.81h-.52a3.66,3.66,0,0,1-.81,0h-.09a5.48,5.48,0,0,1-.81,0,1.21,1.21,0,0,1-.19,0h-.1l-.27,0a4.87,4.87,0,0,1-.54,0h-.09a6.68,6.68,0,0,1-1,0h-.1a3.66,3.66,0,0,1-.81,0h-.09a6.69,6.69,0,0,1-1,0h-.1a2.89,2.89,0,0,1-.72,0,.23.23,0,0,1-.18,0l-1.76,0H43.41c-.21,0-.23-.06-.13-.23s.31-.59.51-.86l0-.05a10.74,10.74,0,0,1,.64-1.21c.17-.33.37-.65.56-1v0A14.52,14.52,0,0,1,45.77,20l.28-.51.73-1.31,1.36-2.45c0-.08.06-.16.14-.21.3-.64.67-1.23,1-1.85Q50.63,11.29,52,8.88a.59.59,0,0,1,.15-.17,16.58,16.58,0,0,1-.36,2,.38.38,0,0,0,0,.1c0,.43-.15.84-.21,1.27-.14.84-.3,1.68-.46,2.52s-.27,1.47-.4,2.2-.29,1.59-.45,2.38c0,.18-.06.37-.1.55s-.09.56-.14.84-.12.66-.19,1c0,.18-.06.36-.1.55-.1.52,0,.9.46,1.06a1.26,1.26,0,0,0,.43,0H61c.11,0,.25-.06.31,0S61.2,23.44,61.14,23.53Zm-7,1.19a5.07,5.07,0,0,0,.48.56l.2.28v0A.72.72,0,0,0,54.14,24.72Z" fill="#020202"/><path d="M66.63,37.6c0-.1-.08-.15-.14-.21l-3-3a.74.74,0,0,1-.19-.92.75.75,0,0,1,.79-.41.79.79,0,0,1,.47.26l4.75,4.82a.73.73,0,0,1,0,1l-.1.12h0v0A.93.93,0,0,1,68.08,39c-.34-.38-.72-.73-1.08-1.1-.06-.06-.11-.14-.21-.14Z" fill="#020202"/><path d="M69.36,13.44A8.1,8.1,0,0,0,68.2,14c-.44.2-.87.42-1.31.63a.75.75,0,1,1-.66-1.35L72.3,10.3a.74.74,0,0,1,.83.06.7.7,0,0,1,.29.7.72.72,0,0,1-.43.58l-2,1s-.11,0-.13.09a.38.38,0,0,0-.18.09,3.86,3.86,0,0,0-.91.45s0,0,0,0a.47.47,0,0,0-.35.17Z" fill="#020202"/><path d="M60,6.72a.75.75,0,0,1-.76-.37.7.7,0,0,1,.08-.86l1.9-2.25c.83-1,1.65-1.95,2.47-2.93A.75.75,0,0,1,64.84.25a.73.73,0,0,1,0,1L61.69,5,60.52,6.38A.73.73,0,0,1,60,6.72Z" fill="#020202"/><path d="M59.36,49.47c0,.06,0,.13,0,.2a10.7,10.7,0,0,0-.41,1.5s0,.09,0,.13a.44.44,0,0,0-.12.36l0,.13c0,.09-.09.17-.12.25-.24.79-.53,1.55-.84,2.31-.35.92-.83,1.78-1.22,2.68l-.06.1-.15.19a28.64,28.64,0,0,1-3,4.48c-.49.6-1,1.18-1.51,1.77h0a.19.19,0,0,0-.13.14h0a.18.18,0,0,0-.13.12v0a.17.17,0,0,0-.13.13h0a.17.17,0,0,0-.14.14h0a.87.87,0,0,0-.35.36,1.18,1.18,0,0,0-.32.31,3.06,3.06,0,0,0-.78.7,1,1,0,0,0-.43.36,2.56,2.56,0,0,0-.65.54l0,0,0,0a7.77,7.77,0,0,0-1.13.85h0l-1.86,1.24-.09.07a1.57,1.57,0,0,0-.23.09,31,31,0,0,1-4,2c-.53.23-1.09.36-1.6.64l-.13,0L38,71.9l-.13,0a.47.47,0,0,0-.36.12l-.14,0a.6.6,0,0,0-.43.12l-.14,0a.71.71,0,0,0-.49.12l-.14,0a.87.87,0,0,0-.57.12l-.21,0a1.38,1.38,0,0,0-.64.12l-.2,0a2.08,2.08,0,0,0-.79.12l-.28,0a4,4,0,0,0-1.14.12l-.56,0H27.87a7.19,7.19,0,0,0-1.31-.14h-.2a2.28,2.28,0,0,0-.86-.13h-.21a1.27,1.27,0,0,0-.64-.13l-.21,0a4.88,4.88,0,0,0-1.13-.26l-.14,0a14.89,14.89,0,0,0-1.49-.41l-.13,0a1.42,1.42,0,0,0-.6-.2c-1.17-.38-2.31-.85-3.45-1.33l-.3-.14c-1-.5-2-1-2.92-1.6-.58-.35-1.12-.79-1.73-1.11,0,0,0,0,0,0a14.92,14.92,0,0,0-1.25-1L9.19,64.58h0a.2.2,0,0,0-.14-.13H9c0-.08-.07-.16-.17-.17l-.36-.36a.3.3,0,0,0-.2-.21h0a3.8,3.8,0,0,0-.74-.81h0c0-.12-.11-.19-.17-.26a31.46,31.46,0,0,1-2.82-3.78c-.64-1-1.18-2.07-1.74-3.13l-.06-.09a1,1,0,0,0-.12-.36c-.28-.64-.54-1.27-.79-1.92-.32-.84-.55-1.7-.84-2.54l0-.13a.44.44,0,0,0-.12-.36s0-.09,0-.13a.93.93,0,0,0-.13-.51s0-.09,0-.13A1.08,1.08,0,0,0,.59,49l0-.14a1.1,1.1,0,0,0-.11-.57s0-.09,0-.14a2.14,2.14,0,0,0-.14-.71c0-.07,0-.14,0-.21a2.31,2.31,0,0,0-.12-.78c0-.1,0-.18,0-.28A12.47,12.47,0,0,0,0,44.71l0-.2c0-1,0-1.93,0-2.89,0-.72.14-1.42.14-2.15a1.41,1.41,0,0,1,0-.2,3.26,3.26,0,0,0,.13-.93.71.71,0,0,1,0-.14,1.87,1.87,0,0,0,.13-.71s0-.09,0-.13a6.23,6.23,0,0,0,.27-1.21s0-.09,0-.14a3.47,3.47,0,0,0,.27-.9,29.93,29.93,0,0,1,2.22-5.8c.47-.95,1-1.84,1.56-2.75h0C5.17,26,5.54,25.5,5.92,25l1.63-2.06a0,0,0,0,0,0,0,.36.36,0,0,0,.22-.25h0A.14.14,0,0,0,8,22.49H8a.58.58,0,0,0,.31-.34L8.39,22a.32.32,0,0,0,.22-.22L9,21.45A1.64,1.64,0,0,0,9.42,21s0,0,0,0a2.14,2.14,0,0,0,.59-.53l.38-.35a2,2,0,0,0,.61-.5s0,0,0-.05a.43.43,0,0,0,.29-.22l.06-.06a.43.43,0,0,0,.3-.22l.06-.06a.23.23,0,0,0,.21-.15c.12,0,.18-.09.25-.18l.16-.13c.09,0,.13-.05.16-.12a.05.05,0,0,0,0,0,.39.39,0,0,0,.28-.2h0a1.28,1.28,0,0,0,.55-.37l.09-.06c.11,0,.21,0,.25-.17a.27.27,0,0,0,.17-.12.17.17,0,0,0,.18-.1s0,0,0,0A1,1,0,0,0,14.7,17c.13,0,.22-.11.33-.17s.19-.08.26-.16l.09-.06a14,14,0,0,0,1.54-.79l.3-.14c.09,0,.13,0,.17-.1l.11,0a3.4,3.4,0,0,0,.82-.38l.17-.06c.09,0,.14,0,.17-.09l.18,0a.15.15,0,0,0,.18-.09l.18,0h.1a29.29,29.29,0,0,1,3.55-1.13,9.71,9.71,0,0,0,1.59-.39h.14a1.57,1.57,0,0,0,.71-.13h.14a3,3,0,0,0,.93-.13l.27,0a4.39,4.39,0,0,0,1.14-.13h4l.56,0a4.92,4.92,0,0,0,1.21.12l.21,0a2.74,2.74,0,0,0,.85.13h.14a1.72,1.72,0,0,0,.71.13h.14a1,1,0,0,0,.57.13h.14a13,13,0,0,0,1.63.42h.13l2.06.68.14,0a1.37,1.37,0,0,0,.2.13,25.75,25.75,0,0,1,4.23,1.95l.75.44.54.35-.72,1.3c-.09.17-.19.34-.29.51a13.06,13.06,0,0,0-1.3-.77l-.36-.18s0,0,0,0a1,1,0,0,0-.16-.13,30.09,30.09,0,0,0-3.59-1.58,13.21,13.21,0,0,0-2.32-.7l-.13,0a7,7,0,0,0-1.7-.41h-.14a1.24,1.24,0,0,0-.57-.12l-.21,0a1.9,1.9,0,0,0-.85-.13h-.21A3.36,3.36,0,0,0,32.29,15h-.42a.69.69,0,0,0-.49,0h-.31c-.05,0-.09-.06-.13-.06a20.25,20.25,0,0,0-2.81.09h-.28a3.4,3.4,0,0,0-1.14.14h-.2a1.93,1.93,0,0,0-.79.13h-.2a4.94,4.94,0,0,0-1.28.27H24.1a.79.79,0,0,0-.5.13l-.14,0a.67.67,0,0,0-.43.12l-.13,0a8.5,8.5,0,0,0-1.71.54l-.13,0H21a28,28,0,0,0-5.08,2.39,16.57,16.57,0,0,0-2.38,1.61.5.5,0,0,0-.08.07,1,1,0,0,0-.48.36l-.09.07a.15.15,0,0,0-.15.13l-.2.15c-.09,0-.13.05-.15.14a.06.06,0,0,0-.06,0,.25.25,0,0,0-.2.18,2.79,2.79,0,0,0-.58.5.35.35,0,0,0-.25.22,11,11,0,0,0-1.09,1.07.26.26,0,0,0-.2.2l-.37.37a.33.33,0,0,0-.21.26h0a.15.15,0,0,0-.13.14,1.05,1.05,0,0,0-.29.34c-.08,0-.14.06-.14.16l-.21.23a.39.39,0,0,0-.21.27l-.09.11a.17.17,0,0,0-.13.17,1.79,1.79,0,0,0-.49.63l-.07.09c-.1,0-.14.13-.19.2A28,28,0,0,0,4,32.75a15.33,15.33,0,0,0-.85,2.64s0,.08,0,.13a2.86,2.86,0,0,0-.27,1s0,.09,0,.13a.75.75,0,0,0-.12.44,1.5,1.5,0,0,1,0,.2,1.17,1.17,0,0,0-.13.64s0,.09,0,.13a1.64,1.64,0,0,0-.13.72c0,.07,0,.14,0,.21a2.08,2.08,0,0,0-.13.93,2.65,2.65,0,0,1,0,.27,8.84,8.84,0,0,0-.12,2,7.87,7.87,0,0,0,0,1.19A9.53,9.53,0,0,0,2.3,45.5c0,.09,0,.18,0,.27a2,2,0,0,0,.13.93c0,.07,0,.13,0,.21a1.45,1.45,0,0,0,.13.71s0,.09,0,.13a1.23,1.23,0,0,0,.13.65s0,.09,0,.13a.65.65,0,0,0,0,.14c.21.9.43,1.8.72,2.68A5.63,5.63,0,0,0,4,52.68a1,1,0,0,1,0,.17A.17.17,0,0,0,4,53a28.54,28.54,0,0,0,1.32,2.87,9.35,9.35,0,0,0,.9,1.52l.07.13a12.62,12.62,0,0,0,1.56,2.26.71.71,0,0,0,.31.39,1.35,1.35,0,0,0,.31.4.49.49,0,0,0,.25.31,0,0,0,0,0,0,0,.16.16,0,0,0,.13.17,0,0,0,0,0,0,0c0,.09.06.13.14.16s.19.22.3.33,0,.13.13.15a3.35,3.35,0,0,0,.75.8h0a.2.2,0,0,0,.14.14.53.53,0,0,0,.29.28h0a1.53,1.53,0,0,0,.51.47.14.14,0,0,0,.15.13l.08.08a.83.83,0,0,0,.41.35l.08.07a1.28,1.28,0,0,0,.53.45h0l0,0a.32.32,0,0,0,.24.18l.08.07a.38.38,0,0,0,.28.21l.11.09a.19.19,0,0,0,.17.13,7.24,7.24,0,0,0,1.23.91,27.55,27.55,0,0,0,6.1,3.09A20,20,0,0,0,23.6,70l.21,0a2.58,2.58,0,0,0,.91.22,12.52,12.52,0,0,0,2.28.32l.2,0a3.84,3.84,0,0,0,1.22.12l1.55,0a1.06,1.06,0,0,0,.56,0h.91a14.48,14.48,0,0,0,2.63-.27l.2,0a1.32,1.32,0,0,0,.65-.12h.14a1.89,1.89,0,0,0,.78-.14,6.83,6.83,0,0,0,1.55-.42l.14,0a.66.66,0,0,0,.14,0,26,26,0,0,0,3.21-1.14,19.14,19.14,0,0,0,2.79-1.4s0,0,0,0a1,1,0,0,0,.45-.27l.09-.06A5.43,5.43,0,0,0,45.63,66s0,0,0,0,.25-.13.36-.2a28.42,28.42,0,0,0,3.79-3.22A27.4,27.4,0,0,0,57.1,49.37c.14-.6.31-1.16,1-1.4l.13,0c.73.08,1.08.36,1.21.93C59.44,49.08,59.32,49.27,59.36,49.47Z" fill="#0e0f0f"/><path d="M59.77,42.53a.27.27,0,0,1-.08.07.38.38,0,0,0-.1,0A1.07,1.07,0,0,1,58,41.71a1.55,1.55,0,0,0,0-.31v-.35a5.08,5.08,0,0,0-.14-1.35c0-.07,0-.14,0-.21a1.9,1.9,0,0,0-.13-.85s0-.09,0-.14a1.35,1.35,0,0,0-.13-.71s0-.09,0-.14a1.14,1.14,0,0,0-.13-.57s0-.09,0-.14a.82.82,0,0,0-.13-.5s0-.09,0-.13a.87.87,0,0,0-.13-.5.68.68,0,0,1,0-.14,3.74,3.74,0,0,0-.12-.45,20.28,20.28,0,0,0-.63-2l.1-.17,1.23-2.2c.26.59.5,1.19.71,1.8.12.29.22.6.32.9.24.76.46,1.53.7,2.29,0,0,0,.09,0,.13a16,16,0,0,0,.41,1.92,1.65,1.65,0,0,0,0,.21,2.09,2.09,0,0,0,.12.78c0,.09,0,.18,0,.27a4.91,4.91,0,0,0,.13,1.08,1.41,1.41,0,0,0,0,.2,2.75,2.75,0,0,0,0,.86A1.51,1.51,0,0,1,59.77,42.53Z" fill="#0e0f0f"/><path d="M42.5,48.62a1.1,1.1,0,0,0-1.22-1.22h-22c-.9,0-1.13.16-1.43,1v.28c.1.75.12,1.5.27,2.24A12.8,12.8,0,0,0,21.08,57l.29.36h0a.2.2,0,0,1,.14.13v0a.19.19,0,0,1,.14.13h0a.19.19,0,0,1,.14.13h0a.18.18,0,0,1,.13.12v0a16.8,16.8,0,0,0,2.62,1.82,12.61,12.61,0,0,0,3.09,1.14L28,61h.18a22.17,22.17,0,0,0,3.05.14h.21a2.55,2.55,0,0,1,.78-.13l.2,0a.88.88,0,0,1,.5-.12l.14,0a18.67,18.67,0,0,0,2.53-.93,16.58,16.58,0,0,0,2.48-1.59l.14-.11a.33.33,0,0,1,.23-.2l.51-.49a.74.74,0,0,1,.31-.32h0a1.83,1.83,0,0,1,.43-.49l.1-.11c0-.12.09-.18.18-.25l.1-.1c.36-.63.8-1.21,1.11-1.86A11,11,0,0,0,42,52.51a1,1,0,0,1,.11-.21l0-.14a4.92,4.92,0,0,1,.26-1.07c0-.09,0-.18,0-.28A2.31,2.31,0,0,1,42.5,50a1.48,1.48,0,0,1,0-.21C42.5,49.43,42.5,49,42.5,48.62ZM40.22,50v.14a1,1,0,0,1-.13.64s0,.09,0,.13a.51.51,0,0,1-.13.43.68.68,0,0,1,0,.14,7.18,7.18,0,0,1-1.11,2.55.13.13,0,0,1-.08.14.75.75,0,0,1-.28.42h0a.16.16,0,0,1-.1.16h0a.09.09,0,0,1-.09.12c0,.1-.1.15-.15.21a.49.49,0,0,1-.27.31l-.15.19a.37.37,0,0,1-.22.25,3.65,3.65,0,0,1-.52.52.91.91,0,0,1-.45.37.44.44,0,0,1-.27.23A7.89,7.89,0,0,1,34,58.3a4.54,4.54,0,0,1-1.26.41l-.13,0a.76.76,0,0,1-.51.12l-.13,0a1.5,1.5,0,0,1-.78.13h-.28a7.29,7.29,0,0,1-2.55-.14l-.13,0a.78.78,0,0,1-.5-.12l-.14,0A8,8,0,0,1,24.22,57L24.1,57a.16.16,0,0,1-.16-.13l-.12-.1a1.35,1.35,0,0,1-.55-.48l-.37-.37a.29.29,0,0,1-.2-.2l-.25-.32a.28.28,0,0,1-.19-.24L22.19,55a2.83,2.83,0,0,1-.62-.91.07.07,0,0,1,0-.06.13.13,0,0,1-.11-.16s0-.07,0-.11a.14.14,0,0,1-.11-.17l0-.11A4.61,4.61,0,0,1,20.58,52a.59.59,0,0,0,0-.13.48.48,0,0,1-.12-.36s0-.09,0-.14A5.43,5.43,0,0,1,20.14,50c0-.14,0-.22.2-.22.73,0,1.47,0,2.21,0h.26l2.19,0h9.23l.35,0h.12a7.59,7.59,0,0,1,1.43,0h.13c1.09-.07,2.18,0,3.27,0h.53C40.2,49.82,40.29,49.86,40.22,50Z" fill="#0e0f0f"/><path d="M59.26,46.56H58.7l-.25-.14a1.08,1.08,0,0,1-.55-1.38,1.17,1.17,0,0,1,1.3-.78l.13,0,.56.38s0,0,0,0a.16.16,0,0,0,.11.18l0,.17a1.48,1.48,0,0,1-.17,1.07l-.14.15Z" fill="#0e0f0f"/><path d="M14.52,36.64a1.37,1.37,0,0,1-1-.6,1.3,1.3,0,0,1-.17-.72,6,6,0,0,1,4.07-5.59,7.54,7.54,0,0,1,1.69-.33h.46a8.09,8.09,0,0,1,1.75.34,11.59,11.59,0,0,1,1.33.64h0a1.87,1.87,0,0,0,.47.37l.08.07.1.12a5.72,5.72,0,0,1,2,4.32,1.39,1.39,0,0,1-.19.81,1.42,1.42,0,0,1-1,.57H24.1c-.16-.09-.36-.08-.52-.18a1.4,1.4,0,0,1-.62-1v-.17a2.86,2.86,0,0,0-.19-1,3.47,3.47,0,0,0-2.66-2.38.25.25,0,0,0-.17,0,3.22,3.22,0,0,0-2.42.45,3.49,3.49,0,0,0-1.72,3v.17a4.09,4.09,0,0,1-.18.49,1.3,1.3,0,0,1-1,.64Z" fill="#0b0c0c"/><path d="M47,35.67a1.33,1.33,0,0,1-1.14,1h-.12a4.2,4.2,0,0,1-.5-.17,1.33,1.33,0,0,1-.64-1v-.17A3.08,3.08,0,0,0,44.3,34a3.49,3.49,0,0,0-2.94-2.16,3.41,3.41,0,0,0-2.65.81,3.6,3.6,0,0,0-1.3,2.61,1.84,1.84,0,0,1-.19.73,1.35,1.35,0,0,1-.95.62h-.12a1.35,1.35,0,0,1-1.14-1v-.12a5.94,5.94,0,0,1,2.93-5.29,6,6,0,0,1,2.84-.86h.46a6.08,6.08,0,0,1,5.54,4.35,6.44,6.44,0,0,1,.23,1.8Z" fill="#0b0c0c"/></g></g></svg>