<svg xmlns="http://www.w3.org/2000/svg" viewBox="0 0 60.86 60.86"><g id="Layer_2" data-name="Layer 2"><g id="Layer_1-2" data-name="Layer 1"><path d="M43.6,15.55l1,.12,1.76.42c.1.13.26.12.4.14L49,17.33l1.25,1a2,2,0,0,1,.76,1,1.54,1.54,0,0,1-.88,1.46l-.63,0h-.12L49,20.67a7.61,7.61,0,0,0-1.9-1.32l-.15-.07a6,6,0,0,0-2.55-.91,1.39,1.39,0,0,0-.9-.11,5.88,5.88,0,0,0-2.81.4,7.93,7.93,0,0,0-2.74,1.48c-.73.6-1.47,1-2.35.28L35.3,20a1.65,1.65,0,0,1,.63-1.74l.27-.21,1.9-1.22.44-.22.86-.37a.89.89,0,0,0,.49-.18l.78-.22a.84.84,0,0,0,.51-.12Z" fill="#09090a"/><path d="M30.56,27.34l.38,0h.89l.38,0,2.18.25h0l.26.08.65.15,2.42.81h0l2,1.15a18.73,18.73,0,0,1,4,4l1.13,1.91.13.25,1,2.29a1.12,1.12,0,0,0,.2.56l.11.36.09.37.08.14h0a8.28,8.28,0,0,0,.39,1.54.07.07,0,0,0,0,.11A19.71,19.71,0,0,1,47,43.44h0a1.39,1.39,0,0,1-1.54.93l-.87-.11-.52,0-.12,0a.68.68,0,0,0-.52-.09l-2.56-.34a1.78,1.78,0,0,0-.76,0,14.72,14.72,0,0,0-2.81-.29,3.29,3.29,0,0,0-1.29-.1,7.73,7.73,0,0,0-2-.12,9.37,9.37,0,0,0-2-.1H30.68a7.74,7.74,0,0,0-1.92.09,7.35,7.35,0,0,0-2,.12,4,4,0,0,0-1.42.1,19.46,19.46,0,0,0-2.29.19.32.32,0,0,0-.31.07l0,0,0,0-.89.07a22,22,0,0,0-2.44.33,6.89,6.89,0,0,0-1.28.16c-.84.13-1.71.36-2.3-.55a.27.27,0,0,0-.11-.26,17.62,17.62,0,0,1,.25-2.29.25.25,0,0,0,.09-.27l.27-1.14a.74.74,0,0,0,.13-.52,2.72,2.72,0,0,0,.31-.88c.1-.06.09-.17.08-.27l.92-2.13a.72.72,0,0,0,.22-.43l1.05-1.75a18.77,18.77,0,0,1,4-4L25,28.62c.11,0,.22,0,.28-.11l2.13-.69,1-.24ZM19,39.73l-.07.12a8.13,8.13,0,0,0-.42,1.7l1.27-.25,1.66-.19A8.67,8.67,0,0,0,23,40.9l2.3-.19a.3.3,0,0,0,.31-.06l0,0,0,0,.51,0,3.06-.13,3.33,0h.9l3.06.14a.89.89,0,0,0,.51,0l0,0,0,0,.2.05,2.42.21a7.57,7.57,0,0,0,1.42.19l1.41.16,1.57.28a8.57,8.57,0,0,0-.43-1.42h0a1.44,1.44,0,0,0-.16-.64A6.46,6.46,0,0,0,43,38.06l-.09-.24a9.86,9.86,0,0,0-1.1-2,.66.66,0,0,0-.25-.4,6.55,6.55,0,0,0-1.27-1.65,1,1,0,0,0-.39-.41A5.72,5.72,0,0,0,38.4,32a1.23,1.23,0,0,0-.56-.36,6,6,0,0,0-1.91-.9,1.24,1.24,0,0,0-.64-.23,1.7,1.7,0,0,0-.73-.17,1,1,0,0,0-.66-.13h0c-.07-.1-.17-.09-.27-.07l-.6-.06a1.25,1.25,0,0,0-.69-.08H30.43a1.63,1.63,0,0,0-.82.08l-.59.06a1,1,0,0,0-.51.1,3.72,3.72,0,0,0-1.15.27.24.24,0,0,0-.26.11l-.26.05-.13.07a6,6,0,0,0-1.91.9.68.68,0,0,0-.39.25,6,6,0,0,0-1.67,1.39.45.45,0,0,0-.27.27,7.12,7.12,0,0,0-1.39,1.79c-.11,0-.13.15-.16.24a8.41,8.41,0,0,0-1.1,2.07.53.53,0,0,0-.18.37,5.86,5.86,0,0,0-.6,1.67Z" fill="#09090a"/><path d="M15.35,36.15l-.42.89-.1.15-.1.12-.93.94-.11.09h0l-1.17.6a6.76,6.76,0,0,1-1.9.21l-.39,0L9.59,39a.55.55,0,0,0-.38-.16,6.45,6.45,0,0,1-1.68-1.25.45.45,0,0,0-.23-.26,7.35,7.35,0,0,1-.82-1.91,1.17,1.17,0,0,0-.09-.64,20,20,0,0,1,.33-2.68l0-.26.29-.88h0c.1-.06.1-.17.1-.28A1.46,1.46,0,0,0,7.44,30l.28-.51.22-.39,1.25-1.67.13-.15L11,25.8l.27-.22,1.52-1,.12-.09.16-.07.78-.4s.06,0,.07-.05h0a4.89,4.89,0,0,1,1.91-.55c.85.32,1,.6,1.06,1.58l-.47,2-.29,1.53A5.87,5.87,0,0,0,16,30a1.19,1.19,0,0,0-.1.67,6.55,6.55,0,0,0-.13,1.53v.39l0,.33A2.81,2.81,0,0,0,15.63,34,7.49,7.49,0,0,1,15.35,36.15Zm-1.84-7.92,0-.26a1,1,0,0,0,.09-.62l-.7.37A6.5,6.5,0,0,0,11.37,29a7,7,0,0,0-1.75,2.65,4.71,4.71,0,0,0-.44,1.76.49.49,0,0,0-.07.41l0,.39a1.65,1.65,0,0,0,.35,1.43,1.38,1.38,0,0,0,1,.74,1.1,1.1,0,0,0,1,0,1.68,1.68,0,0,0,1.39-1.54A4.75,4.75,0,0,0,13,33.34l0-1.28a4.56,4.56,0,0,0,.12-1.28l.28-2.26A.31.31,0,0,0,13.51,28.23Z" fill="#09090a"/><path d="M19.3,18.26a1.66,1.66,0,0,0-.91.08,6.21,6.21,0,0,0-2.66.94l-.19.09a6.51,6.51,0,0,0-1.74,1.2l-.39.23-.12,0h-.64a1.5,1.5,0,0,1-1-1.5c.25-.8.95-1.18,1.55-1.64.2-.16.4-.3.6-.44l2.06-1c.13,0,.28,0,.38-.15l1.91-.43,1-.11,2.25.18c.17.13.37.09.56.11l.88.27h0a.27.27,0,0,0,.29.1.43.43,0,0,0,.37.14h0c0,.08.06.1.14.08l.77.36h0l2,1.25.3.24A1.63,1.63,0,0,1,27.33,20l-.14.25a1.35,1.35,0,0,1-2.14.08c-.11-.09-.24-.16-.36-.24a7.18,7.18,0,0,0-2.56-1.39A5.5,5.5,0,0,0,19.3,18.26Z" fill="#09090a"/><circle cx="30.43" cy="30.43" r="29.43" fill="none" stroke="#0b0c0c" stroke-miterlimit="10" stroke-width="2"/></g></g></svg>