<svg xmlns="http://www.w3.org/2000/svg" viewBox="0 0 107.53 104.31">
    <defs>

    </defs>
    <g id="Layer_2" data-name="Layer 2">
        <g id="Layer_1-2" data-name="Layer 1">
            <path class="cls-1"
                  d="M23.05,73.41c-3.1-.2-6.3-.3-9.4-.2-2,.1-3.9.3-5.9.5-.7.1-1.4.1-2.1.2h-.8c-.5,0-.7-.2-.2,0-.8-.3.6.4.7.5a5.59,5.59,0,0,1,.5,2.5c-.1.4,0,.2,0,0-.1.4-.1.1.2-.2l.9-.9c1.2-1.1,2.5-2.2,3.7-3.4,1.8-1.7,4.4-3.2,4.2-6.1a7.4,7.4,0,0,0-2.2-4.6c-.4-.5-.9-1-1.3-1.5-.1-.1-.5-.6-.2-.3-.2-.3-.4-.5-.6-.8a25.76,25.76,0,0,1-3.4-8,38.12,38.12,0,0,1-1.4-10.6,31,31,0,0,1,.2-4.3,7.72,7.72,0,0,1,.2-1.5c0-.1.1-.8,0-.4s0-.2.1-.3A33.32,33.32,0,0,1,23,10.11a30.16,30.16,0,0,1,7.2-2.9c1.1-.3,2.2-.6,3.3-.8a5.85,5.85,0,0,1,1.3-.2c.1,0,.8-.1.3,0s.2,0,.3,0a36.54,36.54,0,0,1,14.7,1.4,11.76,11.76,0,0,1,2,.7l.9.3c.1.1.3.1.4.2-.3-.1,0,0,.1,0a21,21,0,0,1,3,1.5c.8.4,1.5.9,2.3,1.4.3.2.5.3.8.5s.9.7.4.3c4.1,3.2,7.6,6.8,9.6,11.4a22.57,22.57,0,0,1,1.4,4.9,3,3,0,0,0,3.7,2.1,3.07,3.07,0,0,0,2.1-3.7c-1.7-10.6-10.7-19.4-20.3-23.6a41.28,41.28,0,0,0-31.8-.8A39.12,39.12,0,0,0,.85,31.31a44.41,44.41,0,0,0-.4,15,42.68,42.68,0,0,0,3.2,12,28.54,28.54,0,0,0,4.9,7.5c.1.1.6.7.4.5.1.1.1.2.2.3.3.4-.2-.4,0,0a.6.6,0,0,0,.1.4v-.3c0,.3.1-.5.1-.4-.1.3.3-.5.3-.5.1-.4.1-.1-.2.1a2.65,2.65,0,0,1-.6.5c-.7.6-1.3,1.2-1.9,1.8-1.3,1.3-2.7,2.4-4,3.6a7.14,7.14,0,0,0-2.4,3.5,3.57,3.57,0,0,0,2.7,4.3,11.31,11.31,0,0,0,4.1.1,90.16,90.16,0,0,1,11.6-.6c1.5,0,2.9.1,4.4.2a3.08,3.08,0,0,0,3-3,3.42,3.42,0,0,0-3.3-2.9Z"/>
            <path class="cls-1"
                  d="M14,40.91a23.81,23.81,0,0,1,7.1-17.8,32.18,32.18,0,0,1,2.8-2.4c.1-.1.9-.7.2-.2a2.09,2.09,0,0,1,.6-.4,9.91,9.91,0,0,1,1.7-1.1,21.32,21.32,0,0,1,9.2-3.3,3.15,3.15,0,0,0,3-3c0-1.5-1.4-3.2-3-3-7.2.7-13.5,4.2-18.7,9.2a29.63,29.63,0,0,0-8.8,22c0,3.8,6,3.8,5.9,0Z"/>
            <path class="cls-2"
                  d="M44.05,13.61h-1.6a.79.79,0,0,1-.8-.8v-1.6a.79.79,0,0,1,.8-.8h1.6a.79.79,0,0,1,.8.8v1.6A.79.79,0,0,1,44.05,13.61Z"/>
            <path class="cls-1"
                  d="M44.05,11.61h-1.6a.75.75,0,0,1,.5.1h-.2c.2.1.3.1.5.2-.1,0-.1-.1-.2-.1.1.1.3.2.4.3-.1,0-.1-.1-.2-.2.1.1.2.3.3.4,0-.1-.1-.1-.1-.2.1.2.1.3.2.5v-.2a.75.75,0,0,0,.1.5v-1.8a.75.75,0,0,1-.1.5v-.2c-.1.2-.1.3-.2.5,0-.1.1-.1.1-.2-.1.1-.2.3-.3.4,0-.1.1-.1.2-.2-.1.1-.3.2-.4.3.1,0,.1-.1.2-.1-.2.1-.3.1-.5.2H43a.75.75,0,0,0-.5.1h1.8a.75.75,0,0,1-.5-.1H44c-.2-.1-.3-.1-.5-.2.1,0,.1.1.2.1-.1-.1-.3-.2-.4-.3.1,0,.1.1.2.2-.1-.1-.2-.3-.3-.4,0,.1.1.1.1.2-.1-.2-.1-.3-.2-.5v.2a.75.75,0,0,0-.1-.5v1.8a.75.75,0,0,1,.1-.5v.2c.1-.2.1-.3.2-.5,0,.1-.1.1-.1.2.1-.1.2-.3.3-.4,0,.1-.1.1-.2.2.1-.1.3-.2.4-.3-.1,0-.1.1-.2.1.2-.1.3-.1.5-.2h-.2a1,1,0,0,1,.3-.1h0a2,2,0,0,0-1.4.6,2.25,2.25,0,0,0-.6,1.4,1.82,1.82,0,0,0,.6,1.4,2,2,0,0,0,1.4.6,3,3,0,0,0,2.4-1.3c.1-.1.1-.3.2-.4a.76.76,0,0,0,.1-.4c0-.2.1-.4.1-.7v-1.6a3,3,0,0,0-.8-2,3,3,0,0,0-2-.8h-1.5a2.73,2.73,0,0,0-1.9.8,3.08,3.08,0,0,0-.9,2v1.6a1.7,1.7,0,0,0,.1.7c.1.2.2.5.3.7a2.81,2.81,0,0,0,2.4,1.3h1.6a1.82,1.82,0,0,0,1.4-.6,2.25,2.25,0,0,0,.6-1.4,1.82,1.82,0,0,0-.6-1.4A4.42,4.42,0,0,0,44.05,11.61Z"/>
            <path class="cls-2"
                  d="M82.85,76.31h-1.6a.79.79,0,0,1-.8-.8v-1.6a.79.79,0,0,1,.8-.8h1.6a.79.79,0,0,1,.8.8v1.6C83.55,75.91,83.25,76.31,82.85,76.31Z"/>
            <path class="cls-2"
                  d="M82.85,74.31h-1.6a.75.75,0,0,1,.5.1h-.2c.2.1.3.1.5.2-.1,0-.1-.1-.2-.1.1.1.3.2.4.3-.1,0-.1-.1-.2-.2.1.1.2.3.3.4,0-.1-.1-.1-.1-.2.1.2.1.3.2.5v-.2a.75.75,0,0,0,.1.5v-1.8a.75.75,0,0,1-.1.5v-.2c-.1.2-.1.3-.2.5,0-.1.1-.1.1-.2-.1.1-.2.3-.3.4,0-.1.1-.1.2-.2-.1.1-.3.2-.4.3.1,0,.1-.1.2-.1-.2.1-.3.1-.5.2h.2a.75.75,0,0,0-.5.1h1.8a.75.75,0,0,1-.5-.1h.2c-.2-.1-.3-.1-.5-.2.1,0,.1.1.2.1-.1-.1-.3-.2-.4-.3.1,0,.1.1.2.2-.1-.1-.2-.3-.3-.4,0,.1.1.1.1.2-.1-.2-.1-.3-.2-.5v.2a.75.75,0,0,0-.1-.5v1.8a.75.75,0,0,1,.1-.5v.2c.1-.2.1-.3.2-.5,0,.1-.1.1-.1.2.1-.1.2-.3.3-.4,0,.1-.1.1-.2.2.1-.1.3-.2.4-.3-.1,0-.1.1-.2.1.2-.1.3-.1.5-.2h-.2c0-.1.2-.1.3-.1h0a2,2,0,0,0-1.4.6,2.25,2.25,0,0,0-.6,1.4,1.82,1.82,0,0,0,.6,1.4,2,2,0,0,0,1.4.6,3,3,0,0,0,2.4-1.3c.1-.1.1-.3.2-.4a.76.76,0,0,0,.1-.4c0-.2.1-.4.1-.7v-1.6a2.73,2.73,0,0,0-2.8-2.8h-1.5a2.73,2.73,0,0,0-1.9.8,3.08,3.08,0,0,0-.9,2v1.6a1.7,1.7,0,0,0,.1.7c.1.2.2.5.3.7a2.81,2.81,0,0,0,2.4,1.3H83a1.82,1.82,0,0,0,1.4-.6,2.25,2.25,0,0,0,.6-1.4,1.82,1.82,0,0,0-.6-1.4A3,3,0,0,0,82.85,74.31Z"/>
            <path class="cls-1" d="M52,77.71h21.9c3.9,0,3.9-6,0-6H52c-3.8,0-3.8,6,0,6Z"/>
            <path class="cls-1" d="M52.55,67.51h30c3.9,0,3.9-6,0-6h-30c-3.9,0-3.9,6,0,6Z"/>
            <path class="cls-1" d="M52.55,56.71h28.9c3.9,0,3.9-6,0-6H52.55c-3.9,0-3.9,6,0,6Z"/>
            <path class="cls-1"
                  d="M71.25,97.81a53,53,0,0,1-6.9,0l-3.6-.3a.75.75,0,0,1-.5-.1h0l-2.1-.3a29.54,29.54,0,0,1-6.8-1.8,11.57,11.57,0,0,1-2.4-1.4c-.7-.5.3.2-.2-.1a2.18,2.18,0,0,1-.5-.4c-.4-.3-.7-.7-1.1-1-3-2.9-5.1-6.3-7.3-9.8-.6-1-1.2-1.9-1.7-2.9a27.46,27.46,0,0,1-2-5,35.19,35.19,0,0,1-1.6-14.4c0-.1.1-.7,0-.4s.1-.5.1-.4c.1-.3.1-.7.2-1,.1-.6.3-1.3.4-1.9a36.76,36.76,0,0,1,1.5-4.7,33.58,33.58,0,0,1,5.9-9.3,35.8,35.8,0,0,1,8.2-6.8,26.94,26.94,0,0,1,2.9-1.6,9.74,9.74,0,0,1,1.1-.5,4.88,4.88,0,0,1,.7-.3c.3-.1-.4.1.2-.1a40.09,40.09,0,0,1,4.9-1.6,31.91,31.91,0,0,1,11.1-.8.9.9,0,0,1,.5.1c.6.1-.2,0-.1,0l1.9.3a38.59,38.59,0,0,1,5.8,1.7,34,34,0,0,1,11.9,7.9,34.25,34.25,0,0,1,5.9,7.7,21.16,21.16,0,0,1,1.1,2.1c.3.6.5,1.2.8,1.8.3.8-.1-.3.1.1.1.2.1.4.2.5.2.5.4,1.1.6,1.6a26.92,26.92,0,0,1,1.2,13.2,39.53,39.53,0,0,1-4.2,13.4,23.27,23.27,0,0,1-3.9,5c-1,1.1-2.4,2.4-2.4,4,0,1.8,1.2,2.7,2.5,3.7,2.7,2.3,5.2,5,7.7,7.5a1.38,1.38,0,0,1,.3.4l-.2-.3c.2.4-.2-.5-.2-.4.1.4-.1-.6-.1-.6.1-.4.2-.9.3-1.3a2.13,2.13,0,0,1,1.1-1c.1-.2.3-.2-.1,0H102c-2.4,0-4.9-.2-7.3-.3-5-.1-10-.3-15-.3-3,0-5.7,0-8.4.1-3.9.1-3.9,6.1,0,6,8.4-.2,16.8,0,25.1.3,1.8.1,3.6.2,5.5.2a5.26,5.26,0,0,0,4-1.3c2.6-2.7-.3-5.4-2.2-7.3-1.3-1.3-2.5-2.6-3.8-3.8a8.64,8.64,0,0,0-1.4-1.3,10.63,10.63,0,0,0-1.1-.9c-.3-.2-.5-.4-.8-.6-.8-.5,0-.3.1.5-.1.8-.2,1.5-.3,2.3a13,13,0,0,1,1.7-2c.7-.7,1.3-1.5,2-2.2a24.65,24.65,0,0,0,3.4-5.6,45.86,45.86,0,0,0,3.6-12.5,34.58,34.58,0,0,0-.4-13.6,43.63,43.63,0,0,0-3.2-8.5A41,41,0,0,0,72.15,25c-13.1-1.6-26.4,4.4-34.9,14.4a39.6,39.6,0,0,0-8.6,17.4,40.89,40.89,0,0,0,3.1,24.4,42.45,42.45,0,0,0,3.3,5.9,47.23,47.23,0,0,0,7.5,9.8,22.21,22.21,0,0,0,10,5.4,53.84,53.84,0,0,0,12.6,1.7,56.13,56.13,0,0,0,5.8-.1,3.08,3.08,0,0,0,3-3,2.69,2.69,0,0,0-2.7-3.1Z"/>
            <path class="cls-2"
                  d="M77.35,41.61a26.16,26.16,0,0,1,3.3,1.7,18.82,18.82,0,0,1,3.6,2.7,23.67,23.67,0,0,1,2.7,2.8c.2.2.4.5.6.7-.3-.4.2.3.2.3.3.4.5.7.8,1.1a22.24,22.24,0,0,1,3.6,6.8,20.38,20.38,0,0,1,.8,8.1,3,3,0,0,0,6,0c.6-6.7-1.6-12.8-5.4-18.1a32.17,32.17,0,0,0-14.7-11.8,3,3,0,0,0-3.7,2.1,3.17,3.17,0,0,0,2.2,3.6Z"/>
        </g>
    </g>
</svg>
