<svg xmlns="http://www.w3.org/2000/svg" viewBox="0 0 114.3 96.53">
    <defs>

    </defs>
    <g id="Layer_2" data-name="Layer 2">
        <g id="Layer_1-2" data-name="Layer 1">
            <g id="Layer_5" data-name="Layer 5">
                <path class="cls-1"
                      d="M40,56.25a18.76,18.76,0,0,0,15.1,11.3,17.11,17.11,0,0,0,15-6.4,16.58,16.58,0,0,0,2.6-3.9,3.06,3.06,0,0,0-1.1-4.1,3,3,0,0,0-4.1,1.1l-.6,1.2c-.2.4-.5.7-.7,1.1-.1.1-.5.7,0,.1-.2.2-.4.5-.6.7a15.38,15.38,0,0,1-1.2,1.3,2.65,2.65,0,0,1-.6.5c-.1.1-.3.2-.4.4l-.1.1a9.43,9.43,0,0,1-3.5,1.7,10.89,10.89,0,0,1-8.1-.9,13.67,13.67,0,0,1-6.3-7.1c-.6-1.5-2.8-1.8-4.1-1.1-1.7.8-1.9,2.5-1.3,4Z"/>
                <path class="cls-1"
                      d="M22.7,59.25c-.1-7.8,0-15.7.2-23.5,0-1.2.1-2.5.1-3.7,0-.5.1-1,.1-1.5a1.27,1.27,0,0,1,.1-.6v-.2c.1-.6-.1.2,0,.3-.1-.1.1-.7.2-.9a15.46,15.46,0,0,1,.7-2.3,28.64,28.64,0,0,1,2.2-4.7,33.87,33.87,0,0,1,16-13.9c5.5-2.3,11.6-2.7,17.6-2.1a1.27,1.27,0,0,1,.6.1c.5.1-.7-.1,0,0,.5.1,1,.2,1.6.3a24.91,24.91,0,0,1,3.7.9,35.36,35.36,0,0,1,8.3,3.4A32.64,32.64,0,0,1,88.9,28a48.1,48.1,0,0,1,2.5,10.6A82.31,82.31,0,0,1,92.3,50c0,1.9-.1,3.7-.2,5.6-.1.7-.1,1.5-.2,2.2s0,.2,0,.1a.75.75,0,0,1-.1.5,3.55,3.55,0,0,1-.2,1A74.13,74.13,0,0,1,89.2,70a29.64,29.64,0,0,1-14.4,16.7l-1.8.9c-.3.1-.6.3-.9.4-.1,0-.6.3-.2.1s-.3.1-.3.1c-.9.4-1.8.7-2.7,1a32.46,32.46,0,0,1-10.3,1.4c-.8,0-1.7-.1-2.5-.1-.3,0-.7-.1-1-.1-.1,0-.6-.1,0,0a.9.9,0,0,1-.5-.1,3.16,3.16,0,0,0-3.7,2.1,3.07,3.07,0,0,0,2.1,3.7c14.7,2.3,30-3.8,38.2-16.5,4.3-6.7,6-15.1,6.8-23a63.79,63.79,0,0,0-.1-13.1,106,106,0,0,0-1.6-11.3A39.63,39.63,0,0,0,83.2,10a42.35,42.35,0,0,0-19-9A44.15,44.15,0,0,0,47.6.65a38.61,38.61,0,0,0-22,12.7c-4.4,5-7.7,11.2-8.2,18-.6,7.5-.4,15.2-.4,22.8v5.4c-.3,3.5,5.7,3.5,5.7-.3Z"/>
                <path class="cls-1"
                      d="M0,32.05c.1,9.5.3,19,.4,28.6,0,1.3,0,2.7.1,4,.1,3.9,6.1,3.9,6,0-.1-9.5-.3-19-.4-28.6,0-1.3,0-2.7-.1-4,0-3.9-6-3.9-6,0Z"/>
                <path class="cls-1"
                      d="M107.8,30.45c.1,9.5.3,19,.4,28.6,0,1.3,0,2.7.1,4,.1,3.9,6.1,3.9,6,0-.1-9.5-.3-19-.4-28.6,0-1.3,0-2.7-.1-4-.1-3.9-6.1-3.9-6,0Z"/>
            </g>
        </g>
    </g>
</svg>
