<svg xmlns="http://www.w3.org/2000/svg" viewBox="0 0 58.37 58.49"><g id="Layer_2" data-name="Layer 2"><g id="Layer_1-2" data-name="Layer 1"><path d="M0,29.11C.38,17.44,5.61,8.57,15.91,3.2c7.86-4.11,16.23-4.1,24.5-.9,1.5.57,2.44.54,3.13-1,.24-.51.55-1,1.23-.73s.36,1,.19,1.42c-.64,1.72.11,2.71,1.45,3.77C55.3,12.83,59.74,22,58,33.34c-1.84,12-9,20.43-20.52,23.85A28.55,28.55,0,0,1,2.35,40.64,29.11,29.11,0,0,1,0,29.11Zm2.08.5a23.68,23.68,0,0,0,.64,5.18,26.81,26.81,0,0,0,20.4,21,27.1,27.1,0,0,0,33-24.4c.8-9.32-2.73-17-9.77-23.12-2-1.76-2.55-1.54-3.12,1-.33,1.46-.66,2.92-1.06,4.36-.55,2-1,2.12-2.53.7-1.11-1.06-1.8-.85-2.55.36-1,1.56-2,3.07-3,4.61-.27.42-.57.82-1.14.62s-.49-.6-.36-1c1-3.52,2-7.05,3.15-10.55C36.1,7.16,37,6.7,38,7.7c1.23,1.14,1.75.53,2.39-.67,1-1.79.26-2.56-1.41-3.16C20.62-2.73,2.19,10,2.08,29.61Z" fill="#020202"/><path d="M16.69,31.7a12.09,12.09,0,0,1-5.12-.84A5.06,5.06,0,0,1,9,28.93c-.37-.61-.6-1.33.07-1.83s1,.15,1.45.6c2.67,2.81,9.86,2.85,12.48.06.48-.51.89-1.22,1.63-.62s.43,1.41-.1,2C22.5,31.38,19.78,31.75,16.69,31.7Z" fill="#020202"/><path d="M41,31.71a11.79,11.79,0,0,1-5-.88,4.42,4.42,0,0,1-2.69-2.34,1.07,1.07,0,0,1,.4-1.43c.53-.31.83.06,1.19.41,3.32,3.21,9.43,3.14,13-.12.33-.3.63-.53,1.06-.33a1,1,0,0,1,.48,1.23,3.22,3.22,0,0,1-1.78,2.1C46.11,31.27,44.09,31.71,41,31.71Z" fill="#020202"/><path d="M28.88,44.2c-2.51,0-5,0-7.53,0-.6,0-1.35,0-1.4-.83s.7-1,1.4-1q7.63,0,15.26,0c.64,0,1.31.15,1.32.94s-.71.92-1.33.92c-2.57,0-5.15,0-7.72,0Z" fill="#020202"/></g></g></svg>