<svg xmlns="http://www.w3.org/2000/svg" viewBox="0 0 60.86 60.86"><g id="Layer_2" data-name="Layer 2"><g id="Layer_1-2" data-name="Layer 1"><path d="M33.36,49.62h-.17a1.91,1.91,0,0,0-.58.1h-.17c-.59,0-1.18.07-1.78.11H30.2c-.61,0-1.22-.12-1.84-.11h-.11a5.94,5.94,0,0,0-1.18-.2,17.84,17.84,0,0,1-4.19-1.22,18.93,18.93,0,0,1-3.94-2.23,19.45,19.45,0,0,1-4.73-4.89A18.12,18.12,0,0,1,12,36.68l-.36-1,0-.12c-.22-.87-.41-1.75-.56-2.63v-.18c-.12-.75-.09-1.5-.15-2.25a1.41,1.41,0,0,1,.16-.83A1.24,1.24,0,0,1,12.19,29l.12,0a1.51,1.51,0,0,1,.92.76l0,.11.1.86v.12a5.28,5.28,0,0,0,.11,1.43l0,.18a1.59,1.59,0,0,0,.1.57v.17A10.49,10.49,0,0,0,14,35.08l0,.12a16.31,16.31,0,0,0,.89,2.32,16.48,16.48,0,0,0,1.33,2.31,5.53,5.53,0,0,0,.68.91v0h0a1.32,1.32,0,0,0,.44.55l.07.08a3.1,3.1,0,0,0,.57.63,1.73,1.73,0,0,0,.57.57,3,3,0,0,0,.62.57l.08.07a.19.19,0,0,0,.14.13h0a.48.48,0,0,0,.09.11,18.54,18.54,0,0,0,2.83,1.88,16.23,16.23,0,0,0,3.74,1.46,9.94,9.94,0,0,0,1.79.35l.17,0a7.65,7.65,0,0,0,2,.17,10.88,10.88,0,0,0,2.73-.17h.29a17.69,17.69,0,0,0,3.84-1.08,16.73,16.73,0,0,0,2.87-1.51,12.42,12.42,0,0,0,1.75-1.33,15.92,15.92,0,0,0,3.24-3.66,16.31,16.31,0,0,0,2.12-4.65,10.53,10.53,0,0,0,.39-1.75v-.12a1.71,1.71,0,0,0,.11-.63v-.12a5.28,5.28,0,0,0,.11-1.43v-.12l0-.31a2.27,2.27,0,0,1,.17-.77,1.26,1.26,0,0,1,1.2-.67L49,29a1.92,1.92,0,0,1,.39.17A1.22,1.22,0,0,1,50,30.45c0,.76,0,1.53-.15,2.28v.18c-.15.72-.23,1.46-.44,2.17l0,.12c0,.11-.12.21-.1.34l0,.12c0,.1-.07.19-.11.29a20.46,20.46,0,0,1-.86,2.3c-.32.67-.66,1.34-1,2a.07.07,0,0,0-.05.07c-.39.61-.79,1.21-1.23,1.78a19.47,19.47,0,0,1-4.33,4.17,20.23,20.23,0,0,1-3.23,1.84,18.2,18.2,0,0,1-2.59.94l-.3.11-.12,0C34.74,49.35,34.05,49.5,33.36,49.62Z" fill="#0b0c0c"/><path d="M14.48,24.13a1.39,1.39,0,0,1-1-.6,1.38,1.38,0,0,1-.18-.74,6.15,6.15,0,0,1,4.14-5.69,8.54,8.54,0,0,1,1.73-.34h.47a7.79,7.79,0,0,1,1.78.35,11.17,11.17,0,0,1,1.35.65h0a1.91,1.91,0,0,0,.47.38l.08.07.11.12a5.9,5.9,0,0,1,2.07,4.41,1.45,1.45,0,0,1-.19.81,1.48,1.48,0,0,1-1,.58h-.12c-.17-.09-.36-.09-.53-.18a1.52,1.52,0,0,1-.63-1V22.8a3,3,0,0,0-.19-1.06,3.57,3.57,0,0,0-2.71-2.42.28.28,0,0,0-.18,0,3.27,3.27,0,0,0-2.46.46,3.54,3.54,0,0,0-1.75,3V23a5.1,5.1,0,0,1-.19.5,1.34,1.34,0,0,1-1,.65Z" fill="#0b0c0c"/><path d="M47.54,23.15a1.34,1.34,0,0,1-1.16,1h-.12a4.24,4.24,0,0,1-.5-.18,1.33,1.33,0,0,1-.65-1l0-.18a3.06,3.06,0,0,0-.28-1.33,3.55,3.55,0,0,0-3-2.2,3.5,3.5,0,0,0-2.7.83,3.62,3.62,0,0,0-1.32,2.65,2.18,2.18,0,0,1-.19.75,1.35,1.35,0,0,1-1,.63h-.12a1.34,1.34,0,0,1-1.16-1V23a6.17,6.17,0,0,1,5.87-6.27h.47a6.2,6.2,0,0,1,5.64,4.44A6.67,6.67,0,0,1,47.56,23Z" fill="#0b0c0c"/><circle cx="30.43" cy="30.43" r="29.43" fill="none" stroke="#0b0c0c" stroke-miterlimit="10" stroke-width="2"/></g></g></svg>