<svg xmlns="http://www.w3.org/2000/svg" viewBox="0 0 115.77 106.85">
    <defs>

    </defs>
    <g id="Layer_2" data-name="Layer 2">
        <g id="Layer_1-2" data-name="Layer 1">
            <g id="Layer_4" data-name="Layer 4">
                <path class="cls-1"
                      d="M24.37,10.52c1,1.5,2,3,2.9,4.5.1.2.3.4.4.6a2.7,2.7,0,0,0,1.5,1.1,2.14,2.14,0,0,0,1.9-.3,2.4,2.4,0,0,0,1.1-1.5,2.52,2.52,0,0,0-.3-1.9c-1-1.5-2-3-2.9-4.5-.1-.2-.3-.4-.4-.6a2.7,2.7,0,0,0-1.5-1.1,2.14,2.14,0,0,0-1.9.3,2.4,2.4,0,0,0-1.1,1.5,3,3,0,0,0,.3,1.9Z"/>
                <path class="cls-2"
                      d="M72.17,38.52a18.65,18.65,0,0,0,3.4-1.3c3.3-2,5.4-.4,6,2.6,1,5.5,4.1,5.8,9,5.5,12.5-.8,13.8,1.3,9.1,13.2-.8,2-1.8,4-2.8,6.4,4.8,3.4,10.5,5.8,14.9,10,4.7,4.5,4.7,5.6-.5,9.5-11.9,9-24.8,11.2-38.6,4.8-3.7-1.7-6.7-2.5-10,.4-3.1,2.6-6.5,2.1-9.4-.3-3.4-2.7-6.4-2.3-10-.3-10.7,5.9-21.8,4.3-32.6.8-3.5-1.2-6.4-4.6-9.3-7.2-2-1.8-1.7-3.8.2-5.7a45.74,45.74,0,0,1,11.1-8.4c3.3-1.8,5.5-3.4,2.7-7.6-2-3-1.7-7.1-3.3-10.6-1.3-2.8,1.9-4.1,4.3-4.5a27.16,27.16,0,0,1,11.7,0c4,1,5.4-.4,6-4a7,7,0,0,1,.8-2c1-2.7,2.6-4.3,5.6-2.5,2.8,1.7,4.3.9,5.6-2a32.85,32.85,0,0,1,7.5-9.9c4-3.8,4.9-3.7,9.1.1C66.57,29,69.47,33.52,72.17,38.52Zm4.3,5.9c-12.8,3.8-24.5,23.4-15.9,38.7C75,77.42,83.77,57.52,76.47,44.42Zm-36.3-.7c-6.4,11.3-1,31,12.5,36.9-.9-7.4-1.2-14.7,1.5-21.7.6-1.5,0-2.8-.9-4.1A39,39,0,0,0,40.17,43.72Zm67.2,35.5c-2.9-3.4-6.7-5.4-10.5-7.4-2.7-1.4-4.9-1.1-7.2,1.1a32,32,0,0,1-12.6,7c-1.5.5-3.1.8-3.8,2.6C85.27,89.22,96.87,88.12,107.37,79.22Zm-99.3.2c10.5,9,23.2,10,34.6,2.6-5.3-2.4-10.7-3.9-15.3-7.3-6.2-4.7-6.2-4.6-12.7-.7C12.27,75.42,9.57,76.72,8.07,79.42Zm50.4-28.7,4.4-4.4c4.6-4.6,4.6-4.9,1.1-10.2a50.81,50.81,0,0,0-4.1-5.1c-.8-1-2-1.6-3.1-.6-3.2,3-6.1,6.6-7,10.9-.6,2.9,3.1,3.9,4.7,6C55.47,48.52,56.37,50.12,58.47,50.72Zm-38.8,1.2c1.7,8.7,6.4,15.3,14.7,19.4-.9-4.6-2.5-8.8-2.7-13.4-.3-6.2-.5-6.3-6.4-6.9C23.57,50.82,21.87,50.52,19.67,51.92Zm75.2-.3c-2.3-1.3-4.7-.6-7-.3-1.8.3-3.3.9-3.1,3.2.6,5.6-1.7,10.7-2.8,16.5C90.37,65.52,94,59.92,94.87,51.62Z"/>
                <path class="cls-1"
                      d="M72.17,38.62c1-.4,2.1-.6,3.1-1.1,1.2-.6,2.5-1.4,3.9-.9,2.3.8,2.1,3.7,2.9,5.5,1.3,2.9,4.1,3.5,7,3.4,3.3-.1,7-.8,10.2.3,2.5.8,2.9,2.9,2.5,5.3-.8,4.8-3.2,9.3-5.1,13.7V65c3.9,2.7,8.2,4.8,12,7.6a27.31,27.31,0,0,1,5.3,4.9c1.2,1.6,1.3,3,0,4.4a31.63,31.63,0,0,1-5.8,4.4,38.3,38.3,0,0,1-6.3,3.4,35.56,35.56,0,0,1-14,3,37.13,37.13,0,0,1-14.6-3.4,16,16,0,0,0-5.6-1.8,7.18,7.18,0,0,0-5,1.8c-2.4,1.9-5.1,2.4-7.8.9-1.9-1-3.2-2.6-5.4-2.9a8.64,8.64,0,0,0-5.2,1.1,49.73,49.73,0,0,1-7.5,3.2,36.38,36.38,0,0,1-15.4.7c-2.5-.4-4.9-1-7.3-1.6A18.31,18.31,0,0,1,7,87.52c-1.8-1.4-3.4-3.1-5.1-4.7-1-1-1.9-2.1-1.5-3.6s1.7-2.5,2.7-3.4a48.46,48.46,0,0,1,6.1-4.9c1.8-1.2,3.8-2.1,5.6-3.4a4.46,4.46,0,0,0,2.1-2.9c.2-1.7-.9-3.1-1.7-4.5-1.1-2.1-1.4-4.5-1.9-6.8-.5-2.1-2.3-4.7,0-6.3,1.8-1.2,4.3-1.4,6.4-1.6a24.52,24.52,0,0,1,8.1.3c2.8.6,5.3.7,6.3-2.4.6-2,1-4.4,2.6-5.9,1.9-1.9,3.9.3,5.9.8a2.76,2.76,0,0,0,3-1.3c1.3-1.7,2-3.7,3.2-5.5a37.11,37.11,0,0,1,4.9-5.6c1.3-1.2,3.2-3.4,5.2-3s3.8,2.6,5.2,4a36.64,36.64,0,0,1,4.6,5.8c1.3,2,2.5,4.1,3.7,6.2.1.1.3,0,.2-.1-3-5.6-6.6-11.2-11.7-15.1-1.4-1.1-2.8-1.5-4.4-.5-2.5,1.5-4.6,4-6.4,6.2a26.16,26.16,0,0,0-2.4,3.4,36.23,36.23,0,0,1-2.4,4.3c-2.3,2.7-4.5-.8-7-.5-2.1.2-3,2.8-3.7,4.5a23.55,23.55,0,0,1-1.1,3.5,3.2,3.2,0,0,1-3.1,1.5,34,34,0,0,1-4.6-.8,24.38,24.38,0,0,0-5.4,0c-2.3.2-5.3.4-7.2,1.9s-.7,3.3-.2,5.2c.8,3,1,6,2.6,8.7.7,1.2,1.6,2.6,1.2,4.1a5.09,5.09,0,0,1-2.7,2.7,61.59,61.59,0,0,0-8,5.3c-1.2,1-2.4,2.1-3.6,3.2-.9.9-2,1.9-2.2,3.3-.4,2.5,2.4,4.3,4,5.8,2.1,2,4.3,4,7.2,4.9a65.21,65.21,0,0,0,9.9,2.5,34.73,34.73,0,0,0,19.4-1.9c3-1.3,5.9-3.6,9.3-2.9,3,.6,4.8,3.5,8,3.8a6.48,6.48,0,0,0,3.6-.7c1.6-.9,2.7-2.3,4.6-2.7,3.3-.8,6.4,1.3,9.3,2.4A34.08,34.08,0,0,0,93.67,93a39.64,39.64,0,0,0,17.3-7.6c1.6-1.2,4.1-2.6,4.7-4.6.5-1.6-.9-3.1-1.9-4.2a34.1,34.1,0,0,0-7.6-6l-3.9-2.4c-.7-.4-1.4-.9-2.1-1.3a14.79,14.79,0,0,1-2.1-1.3c-.5-.5-.4-.5-.3-1.2a6.72,6.72,0,0,1,.6-1.2c.3-.7.6-1.3.9-2,.6-1.4,1.2-2.7,1.7-4.1a31.53,31.53,0,0,0,1.7-6c.3-2.4-.3-4.4-2.8-5.1-3.9-1.3-8.2,0-12.2-.3a5.46,5.46,0,0,1-5.2-4c-.6-1.8-.7-4.1-2.8-4.8a4.19,4.19,0,0,0-2.7.2c-.7.3-1.4.7-2.1,1s-1.6.5-2.4.8C72,38.42,72.07,38.72,72.17,38.62Z"/>
                <path class="cls-1"
                      d="M76.47,44.32C65,47.82,57.17,61,57.57,72.62a23.39,23.39,0,0,0,2.9,10.6l.1.1c11.4-4.6,19.2-17.4,18.6-29.6a21.62,21.62,0,0,0-2.6-9.3c-.1-.1-.3,0-.2.1,5.7,10.5,1.4,24.1-6.5,32.2a25.07,25.07,0,0,1-6.9,5.2c-.5.2-1.6,1.1-2.1,1-.7-.1-1.2-1.9-1.4-2.4a24.17,24.17,0,0,1-1.3-4.6c-1.1-6.3.5-12.9,3.6-18.5s8.4-10.9,14.8-12.8C76.67,44.52,76.67,44.22,76.47,44.32Z"/>
                <path class="cls-1"
                      d="M40.07,43.72c-5.4,9.7-2.4,23.3,4.8,31.3a23.41,23.41,0,0,0,7.8,5.8c.1,0,.2,0,.2-.1a64.05,64.05,0,0,1-.5-12.4,42.18,42.18,0,0,1,1-6.2c.4-1.5,1.4-3.1,1.2-4.7s-1.3-2.7-2.2-3.8a44,44,0,0,0-3.5-3.9,32.75,32.75,0,0,0-8.6-6.1.11.11,0,1,0-.1.2,31.09,31.09,0,0,1,7.9,5.5c1.1,1,2.1,2.1,3.1,3.2,1.1,1.3,2.7,2.8,3.1,4.6s-.9,3.8-1.3,5.4a42.09,42.09,0,0,0-.9,4.9,61.37,61.37,0,0,0,.1,10.5c0,.4.5,1.9.3,2.3s-.2.2-.6,0-.5-.3-.8-.4a22.74,22.74,0,0,1-3.2-2.2,25.23,25.23,0,0,1-4.9-5.4,30,30,0,0,1-5-13.1c-.7-5.2-.2-10.7,2.4-15.3C40.27,43.62,40.07,43.52,40.07,43.72Z"/>
                <path class="cls-1"
                      d="M107.47,79.12a28.84,28.84,0,0,0-8.7-6.4c-2.8-1.5-5.4-2.7-8.2-.7-1.6,1.2-2.9,2.6-4.5,3.7a24.91,24.91,0,0,1-5.1,2.7c-1.7.7-3.4,1.2-5.1,1.8a4.23,4.23,0,0,0-2.7,2.2v.2c5.5,3,11.6,4.8,17.9,4.2s11.7-3.6,16.4-7.5c.1-.1-.1-.3-.2-.2a31.44,31.44,0,0,1-13.4,7,27.38,27.38,0,0,1-14.2-.9,36.46,36.46,0,0,1-3.5-1.4l-1.8-.9c-.8-.4-1-.8-.3-1.5a6.36,6.36,0,0,1,2.9-1.3c1.3-.4,2.5-.8,3.7-1.3a33.2,33.2,0,0,0,5.9-3.1,23.48,23.48,0,0,0,2.5-1.9,9.16,9.16,0,0,1,3.5-2.4c2.8-.9,5.7,1.3,8,2.6a27.45,27.45,0,0,1,6.8,5.4A.22.22,0,0,0,107.47,79.12Z"/>
                <path class="cls-1"
                      d="M8,79.52a30.51,30.51,0,0,0,16.9,7.4A28.45,28.45,0,0,0,42.77,82c.1,0,.1-.2,0-.2-3.8-1.7-7.9-3-11.6-5a46.07,46.07,0,0,1-5.4-3.6,11.22,11.22,0,0,0-3.3-2c-2.3-.8-4.4.6-6.3,1.7-3,1.8-6.4,3.4-8.2,6.4a.11.11,0,1,0,.2.1c1.4-2.3,3.7-3.7,6-5.1,1.8-1.1,3.7-2.5,5.7-3,1.7-.5,3.2.3,4.6,1.3a58.24,58.24,0,0,0,6.6,4.4,57.82,57.82,0,0,0,7.2,3.1,11.11,11.11,0,0,1,1.6.7c.6.3,1.8.5,2.2.9s.3.1-.1.5a2.51,2.51,0,0,1-.7.4,16.18,16.18,0,0,1-1.8,1,27.89,27.89,0,0,1-15,2.9,29.74,29.74,0,0,1-16.1-7.3C8.07,79.22,7.87,79.32,8,79.52Z"/>
                <path class="cls-1"
                      d="M58.57,50.82c1.9-1.9,3.8-3.7,5.6-5.6.9-.9,2.1-2,2.4-3.4a3.88,3.88,0,0,0-.8-3.1,28,28,0,0,0-3.7-5.3c-.8-.9-1.5-1.9-2.3-2.7a2.46,2.46,0,0,0-1.9-.9c-.9.1-1.5.9-2.1,1.5a29.11,29.11,0,0,0-2.4,2.7,22,22,0,0,0-3,5.1c-.6,1.5-1.2,3.1-.2,4.6s2.8,2.1,4,3.4c.7.7,1.2,1.6,1.9,2.3a7.16,7.16,0,0,0,2.5,1.6c.2.1.2-.2.1-.2-1.8-.6-2.7-1.9-3.8-3.3A17.38,17.38,0,0,0,52,45c-1.4-1.1-2.3-2.2-1.8-4a21.07,21.07,0,0,1,2.4-5.3,39.15,39.15,0,0,1,3.7-4.4,2.87,2.87,0,0,1,1.9-1.1,2.4,2.4,0,0,1,1.7.9c.7.7,1.3,1.6,2,2.3a41,41,0,0,1,3.5,5,4.84,4.84,0,0,1,1,3.5c-.3,1.4-1.7,2.6-2.6,3.6-1.7,1.8-3.5,3.5-5.3,5.3C58.27,50.72,58.47,50.92,58.57,50.82Z"/>
                <path class="cls-1"
                      d="M19.57,51.92a27.37,27.37,0,0,0,5,11.6,27.86,27.86,0,0,0,9.8,7.9c.1.1.2,0,.2-.1-.8-4-2.2-7.9-2.6-11.9-.2-2,.1-4.6-.8-6.5-.6-1.3-2.1-1.6-3.5-1.8-2.7-.4-5.5-.8-8,.6-.1.1,0,.3.1.2,2.5-1.4,5.5-1,8.2-.6,1.5.2,2.8.7,3.2,2.3.6,2.4.3,4.9.7,7.3.6,3.5,1.7,6.8,2.4,10.3.1,0,.1-.1.2-.1a26.52,26.52,0,0,1-9.8-8.1,27.68,27.68,0,0,1-4.8-11.3C19.77,51.72,19.57,51.72,19.57,51.92Z"/>
                <path class="cls-1"
                      d="M95,51.52c-2.3-1.2-4.7-.7-7.1-.3-1.5.2-3.1.8-3.2,2.6-.1,1.3.1,2.7,0,4a35,35,0,0,1-.7,4.5c-.7,2.9-1.5,5.7-2.1,8.6,0,.1.1.2.2.1a30.56,30.56,0,0,0,9.3-8.6,23.25,23.25,0,0,0,3.7-10.8c0-.2-.2-.2-.2,0a22.88,22.88,0,0,1-3.7,10.7,32.43,32.43,0,0,1-9.2,8.5c.1,0,.1.1.2.1,1-4.7,2.8-9.3,2.9-14.2a12.89,12.89,0,0,1,0-3.4c.3-1.1,1.2-1.5,2.2-1.8,2.4-.6,5.3-1.1,7.6.1C95,51.82,95.07,51.62,95,51.52Z"/>
                <path class="cls-2"
                      d="M56.37,106.72a18.87,18.87,0,0,1-13.8-5.1c-1.6-1.4-2.6-3.2-1.1-5.1,1.6-2.1,3.3-1.1,5.1.2,7.2,5.4,14.4,5.2,21.5,0,1.7-1.2,3.6-1.9,5.1.2s-.2,3.6-1.6,4.9C67.27,105.62,62.17,106.92,56.37,106.72Z"/>
                <path class="cls-1"
                      d="M56.37,106.52a18.81,18.81,0,0,1-13.7-5,4.28,4.28,0,0,1-1.8-3.6,2.82,2.82,0,0,1,4.2-2.1c1,.5,1.9,1.4,2.9,2a32.39,32.39,0,0,0,3.2,1.7,15.78,15.78,0,0,0,12.6-.3,30.71,30.71,0,0,0,3.1-1.7,10.43,10.43,0,0,1,3.2-1.9,3,3,0,0,1,3.5,2.6c.1,1.4-1.1,2.4-2,3.3-4.3,3.9-9.6,5.2-15.2,5-.2,0-.2.2,0,.2,5.5.1,10.8-1.1,15-4.8,1.6-1.4,3.3-3.1,1.8-5.2-1.2-1.7-3-1.7-4.7-.6-2.8,1.8-5.4,3.5-8.8,4.1a15.54,15.54,0,0,1-9.7-1.5,33.36,33.36,0,0,1-4-2.5,4,4,0,0,0-2.9-1,3.34,3.34,0,0,0-2.3,4.4,8,8,0,0,0,2.6,2.9,21.86,21.86,0,0,0,4.1,2.6,18.18,18.18,0,0,0,8.9,1.7A.15.15,0,1,0,56.37,106.52Z"/>
                <path class="cls-1"
                      d="M1.57,31.32c1.4,1.1,2.8,2.3,4.2,3.4.2.2.4.3.6.5a2.18,2.18,0,0,0,.8.5,1.64,1.64,0,0,0,1,.2,3.12,3.12,0,0,0,1.8-.7,2.66,2.66,0,0,0,0-3.6c-1.4-1.1-2.8-2.3-4.2-3.4-.2-.2-.4-.3-.6-.5a2.18,2.18,0,0,0-.8-.5,1.64,1.64,0,0,0-1-.2,3.12,3.12,0,0,0-1.8.7,2.66,2.66,0,0,0,0,3.6Z"/>
                <path class="cls-1"
                      d="M55.07,2.52v6.2a3.12,3.12,0,0,0,.7,1.8,2.27,2.27,0,0,0,1.8.7,2.54,2.54,0,0,0,2.5-2.5V2.52a3.12,3.12,0,0,0-.7-1.8,2.27,2.27,0,0,0-1.8-.7,2.61,2.61,0,0,0-2.5,2.5Z"/>
                <path class="cls-1"
                      d="M106,35.92c1.4-1.1,2.9-2.2,4.3-3.3.2-.2.4-.3.6-.5a4.35,4.35,0,0,0,.7-.6,1.27,1.27,0,0,0,.4-.9,2.14,2.14,0,0,0-.3-1.9,2.4,2.4,0,0,0-1.5-1.1,2.52,2.52,0,0,0-1.9.3c-1.4,1.1-2.9,2.2-4.3,3.3-.2.2-.4.3-.6.5a4.35,4.35,0,0,0-.7.6,1.27,1.27,0,0,0-.4.9,2.14,2.14,0,0,0,.3,1.9,2.4,2.4,0,0,0,1.5,1.1,2.66,2.66,0,0,0,1.9-.3Z"/>
                <path class="cls-1"
                      d="M86.87,15.32c.8-1.6,1.6-3.2,2.4-4.9.1-.2.2-.5.3-.7a3.19,3.19,0,0,0,.3-1.9,2.83,2.83,0,0,0-1.1-1.5,2.59,2.59,0,0,0-1.9-.3,2.83,2.83,0,0,0-1.5,1.1c-.8,1.6-1.6,3.2-2.4,4.9-.1.2-.2.5-.3.7a3.19,3.19,0,0,0-.3,1.9,2.83,2.83,0,0,0,1.1,1.5,2.59,2.59,0,0,0,1.9.3,2.4,2.4,0,0,0,1.5-1.1Z"/>
            </g>
        </g>
    </g>
</svg>
