<svg xmlns="http://www.w3.org/2000/svg" viewBox="0 0 101.64 106.17"><defs><style>.cls-1{fill:#344697;}</style></defs><g id="Layer_2" data-name="Layer 2"><g id="Layer_3" data-name="Layer 3"><path class="cls-1" d="M100.34,65.84l-9.12-5.26a41.27,41.27,0,0,0,0-15l9.12-5.26a2.6,2.6,0,0,0,1.18-3A53.49,53.49,0,0,0,89.81,17a2.57,2.57,0,0,0-3.17-.49l-9.12,5.26a40.51,40.51,0,0,0-13-7.51V3.79a2.58,2.58,0,0,0-2-2.51,53.87,53.87,0,0,0-23.37,0,2.57,2.57,0,0,0-2,2.51V14.32a41.87,41.87,0,0,0-13,7.51L15,16.57a2.54,2.54,0,0,0-3.17.49A53.06,53.06,0,0,0,.12,37.31a2.57,2.57,0,0,0,1.18,3l9.12,5.26a40.83,40.83,0,0,0,0,15L1.3,65.86a2.6,2.6,0,0,0-1.18,3A53.36,53.36,0,0,0,11.83,89.11,2.57,2.57,0,0,0,15,89.6l9.11-5.26a40.67,40.67,0,0,0,13,7.51v10.53a2.57,2.57,0,0,0,2,2.51,53.91,53.91,0,0,0,23.38,0,2.58,2.58,0,0,0,2-2.51V91.85a41.71,41.71,0,0,0,13-7.51l9.12,5.26a2.54,2.54,0,0,0,3.17-.49,53,53,0,0,0,11.71-20.25A2.65,2.65,0,0,0,100.34,65.84ZM50.81,70.19A17.13,17.13,0,1,1,67.93,53.06,17.16,17.16,0,0,1,50.81,70.19Z"/></g></g></svg>