<svg xmlns="http://www.w3.org/2000/svg" viewBox="0 0 97.12 94.47">
    <defs>

    </defs>
    <g id="Layer_2" data-name="Layer 2">
        <g id="Layer_1-2" data-name="Layer 1">
            <path class="cls-1"
                  d="M55.36,46.75v.8h0A5,5,0,0,1,55,48.82c-.12.23-.12.46-.23.69,0-.11.23-.46,0,0A4.59,4.59,0,0,1,54,50.78c-.46.69.23-.23-.11.12-.12.11-.24.34-.47.46s-1,.92-.57.58l-1,.69c-.12.11-.35.11-.46.23h0c-.12,0-.23.11-.35.11l-1.27.35c-.11,0-.69.11-.11,0H47.52c-.46,0,.69.11-.11,0a5.92,5.92,0,0,0-.81-.23c-.23-.12-.46-.12-.69-.23s-.46-.23,0,0a11.37,11.37,0,0,0-1.16-.58,1.66,1.66,0,0,1-.46-.34c-.34-.24.46.46-.11-.12-.35-.35-.7-.69-1-1,.34.35.11.12,0,0a1.14,1.14,0,0,0-.46-.57c-.12-.12-.58-1.27-.35-.7A4.44,4.44,0,0,1,42,48.36c0-.12-.12-.35-.12-.46,0-.35-.12-.35,0,0V46.4c0-.12.12-.92,0-.23,0-.12.12-.35.12-.46.11-.46.23-.81.34-1.27.23-.69-.23.46.12-.23l.34-.69c.12-.24.23-.35.35-.58s.46-.58.11-.12c.23-.34.58-.57.81-.92l.23-.23.35-.23c.46-.23.81-.46,1.27-.69-.12,0-.46.11,0,0,.23-.12.46-.12.69-.23s.34-.12.46-.12.81-.11.35-.11.46,0,.34,0h1.39c.69,0-.35-.12.23,0a7.17,7.17,0,0,1,1.5.46c.8.23-.35-.12.11,0a2.79,2.79,0,0,1,.81.46.6.6,0,0,0,.46.23,1.88,1.88,0,0,0,.46.35h0l.92.92c.58.57-.23-.46.12.23a1.21,1.21,0,0,0,.46.58l.35.69c.34.57-.12-.35.11.23a11.68,11.68,0,0,0,.46,1.5c0,.11.12.57,0,0a1.3,1.3,0,0,1,.23.81,2.86,2.86,0,0,0,2.89,2.88,3,3,0,0,0,2.88-2.88A12.61,12.61,0,0,0,52.94,35.1a12.38,12.38,0,0,0-13.61,3.69A12.72,12.72,0,0,0,38.06,53.2a12.38,12.38,0,0,0,23.07-6.34A2.92,2.92,0,0,0,58.25,44,2.69,2.69,0,0,0,55.36,46.75Z"/>
            <path class="cls-1"
                  d="M41,62.66a17.33,17.33,0,0,1-4-3c-.46-.46-.81-.92-1.15-1.27-.46-.57.23.24-.12-.11a6.11,6.11,0,0,0-.69-.92,30.79,30.79,0,0,1-1.85-3.23c0-.12-.34-.7-.11-.35s-.12-.23-.12-.23a4.46,4.46,0,0,0-.46-1.15,12.91,12.91,0,0,1-.69-2.77,15.47,15.47,0,0,1,.69-7.84c.12-.35.58-1.27.12-.35l.69-1.38a29.49,29.49,0,0,1,2-3.23c.23-.35,0,0-.12.11.12-.11.24-.34.35-.46a4.84,4.84,0,0,1,.69-.81c.58-.57,1.16-1.15,1.73-1.61s.12-.12.58-.46l1-.7c.69-.34,1.73-.92,2.19-1.15a16.29,16.29,0,0,1,11.88-.23,17.07,17.07,0,0,1,8.76,7,13.91,13.91,0,0,1,2.08,4.84,12.7,12.7,0,0,1,.46,2.08c.12.92,0-.23,0,.34,0,.35.12.69.12,1v2.65c0,.35-.12.58-.12.93.12-.81,0,.34-.11.57L64,53.78a17.64,17.64,0,0,1-8.08,9.46c-3.92,2.19-.46,8.19,3.46,6A24.43,24.43,0,0,0,71.86,48.36,24.77,24.77,0,0,0,59.75,26.79c-9-5.19-20.65-4.15-28,3.23a24,24,0,0,0-7.27,16.73,25.49,25.49,0,0,0,12.81,22c4,2.08,7.49-3.8,3.69-6.11Z"/>
            <path class="cls-1"
                  d="M35.53,74.08a29.68,29.68,0,0,1-6.81-5.19c-.69-.69-1.38-1.5-2.07-2.19a1.49,1.49,0,0,1-.35-.46c-.46-.58-.46-.58.11.11l-.11-.11c-.35-.46-.69-1-1-1.5a33.09,33.09,0,0,1-5.3-13,28.41,28.41,0,0,1,1.15-13.49c.11-.23.23-.58.34-.81s.58-1.15,0-.11c.35-.81.7-1.5,1-2.31a37.43,37.43,0,0,1,3.35-5.31c.57-.8-.46.47.23-.23.23-.23.34-.46.58-.69a9.92,9.92,0,0,1,1-1.15,22.86,22.86,0,0,1,3-2.77,23.34,23.34,0,0,1,2.89-2,29.84,29.84,0,0,1,3.8-2,28.33,28.33,0,0,1,20.19-.12,29.31,29.31,0,0,1,18.34,20c.34,1.15.57,2.42.8,3.57,0,0,.12,1,.12.46s0,.35,0,.47a10.28,10.28,0,0,1,.11,1.84,24,24,0,0,1,0,4.15c0,.58-.11,1.16-.11,1.73.11-.92,0,.12,0,.23,0,.35-.12.58-.12.93-.34,1.61-.69,3.11-1.15,4.61A29.16,29.16,0,0,1,61.82,74.89c-3.92,2.19-.46,8.07,3.46,6A36.25,36.25,0,0,0,84,49.4a37.13,37.13,0,0,0-18.8-32.64C51.67,9.26,34.6,11,23.53,22.06a36.32,36.32,0,0,0-11,25.38A38.69,38.69,0,0,0,32,80.42c3.92,1.85,7.38-4.15,3.58-6.34Z"/>
            <path class="cls-1"
                  d="M29.64,86.77a45,45,0,0,1-9.92-7.5c-.92-.92-1.73-1.84-2.53-2.77-.23-.23-.46-.57-.69-.8s-.81-1-.24-.35.12.11,0,0c-.46-.69-1-1.38-1.49-2.08a49.74,49.74,0,0,1-4.27-7.72c-.12-.24-.46-1.16-.35-.7a5.71,5.71,0,0,1-.46-1.27,24.8,24.8,0,0,1-.92-2.76,40.56,40.56,0,0,1-1.5-6.23A38.47,38.47,0,0,1,8.88,34.87a4.14,4.14,0,0,1,.46-1c.12-.23.12-.46.23-.58.35-.92-.11.35,0-.12.47-1,.93-2.07,1.5-3.11a65.32,65.32,0,0,1,4.73-7.61c.12-.12.35-.46,0,0,.12-.12.23-.35.35-.46s.46-.58.69-.81c.58-.69,1.15-1.38,1.85-2.08a32.54,32.54,0,0,1,4.15-3.8,37.27,37.27,0,0,1,4.5-3.12c1.61-.92,3.69-2,5.19-2.65A40.69,40.69,0,0,1,61.36,9a42.84,42.84,0,0,1,21.8,17.18,40,40,0,0,1,5.19,11.54,45.69,45.69,0,0,1,1.16,5.3c.11.47.11.81.23,1.27.11.69,0,.12,0,0a1.09,1.09,0,0,0,.11.58c.12.81.12,1.5.23,2.31.12,1.84.12,3.69.12,5.53,0,.58-.12,1.16-.12,1.62s-.11.69-.11,1a1,1,0,0,1-.12.57c-.11.69.12-.34,0,.12a45.37,45.37,0,0,1-1,5.42A41.84,41.84,0,0,1,72.78,85c-1.5,1-3.11,2.07-4.73,3-3.92,2.19-.46,8.07,3.46,6A49.73,49.73,0,0,0,97.12,50.9,55.33,55.33,0,0,0,92.5,29,48.6,48.6,0,0,0,71.4,6.26,49.54,49.54,0,0,0,39,.72,46,46,0,0,0,14.53,13.87C5.54,23.1-.11,35.56,0,48.48.12,64.74,8.54,80.42,21.57,90c1.61,1.15,3.23,2.19,5,3.23C30,95,33.45,89,29.64,86.77Z"/>
        </g>
    </g>
</svg>
