<?xml version="1.0" encoding="utf-8"?>
<!-- Generator: Adobe Illustrator 24.1.0, SVG Export Plug-In . SVG Version: 6.00 Build 0)  -->
<svg version="1.1" id="animal-game" xmlns="http://www.w3.org/2000/svg" xmlns:xlink="http://www.w3.org/1999/xlink" x="0px"
	 y="0px" viewBox="0 0 578.9 595.7" style="enable-background:new 0 0 578.9 595.7;" xml:space="preserve">
<style type="text/css">
	.st0{fill:#BFC0E2;}
	.st1{fill:#434D9B;}
	.st2{fill:#273372;}
	.st3{fill:#332F2C;}
</style>
<g id="cow">
	<path id="cow-body-fill" class="st0" d="M406.3,522.7c1.3,1.1,2.9,2.6,4.5,4.1c1.6,1.5,4,1.9,5.9,0.9c7.4-3.1,12.6-8.5,16.7-15.1
		c3-4.7,5-10,5.6-15.5c5.6-0.6,11.2-1.2,16.7-1.9c1.1-0.3,2.3,0.3,2.6,1.4c0,0.1,0.1,0.2,0.1,0.3c0.9,3.8,2,7.6,2.6,11.5
		c0.6,3.8,1,7.6,1,11.4c0,4.1-0.6,8.1-1,12.2l-0.1,0.4c-0.6,5.5,0.6,6.8,6.2,6.7c9.1-0.2,17.5-2.9,25.8-6.3c1.9-0.8,3.8-1.7,5.7-2.4
		c1-0.4,2.1-0.7,3.4-1c0.7,7.7-0.1,14.7-5.4,20.6c-0.5,0.5-1.1,0.9-1.8,1.2c-0.4-0.6-0.7-1.2-1-1.8c-0.3-1-0.5-2.1-0.8-3.1
		c0,0-0.1-0.1-0.6-0.4c-0.1,2.7-0.6,5.1-0.1,7.4c1.2,6.3,2.9,12.5,4.4,18.7c0.8,3.1,1.4,6.3,1.8,9.4c0.3,3.1-2.2,5.3-6.3,6
		c-3.3,0.5-5.7-0.9-6.3-4c-0.6-3.5-0.9-7-1.3-10.7c0.5,0.1,1,0.2,1.5,0.4c2.6,1,3.5,0.5,4.2-2.1c0.9-3.4-0.8-6.9-4.2-7.8
		c-1.9-0.5-3.4-2-3.7-4c-0.7-2.6-1.3-5.3-2.1-8c-0.4-1.1-0.9-2.2-1.5-3.2l-0.8,0.3c0.2,1,0.4,2.1,0.7,3.1c0.5,1.9,1.2,3.8,1.8,5.7
		c0.3,1.2,0.1,2-1.5,2.4c-5.9,1.4-11.7,3-17.5,4.4c-1.3,0.2-2.6,0.4-3.9,0.4c0-1.9,0-3.6,0-5.3c0-4.8-1-6.2-5.6-7.4
		c-7.6-2.1-15.1-3-22.4,1.4c-0.9,0.5-1.7,1-2.5,1.6c-2.9,2-4.6,4.6-3.5,8.4c0.1,0.6,0.2,1.2,0.1,1.9c-1.3,0.1-2.7,0-4-0.1
		c-0.4-0.1-0.9-0.8-1.1-1.3c-1.3-4.7-1.6-9.5-0.9-14.3c0-0.4,0-0.7,0-1.1l-0.6-0.1c-0.5,4.7-1,9.5-1.5,14.2
		c-2.3,0.4-5.4,4.8-4.9,7.3c0.1,0.5,0.8,1,1.3,1.2c1,0.5,2.1,0.6,3,1.1c2.1,1.1,3.7,2.5,3.4,5.3c-0.1,1.7,0.6,3.5,0.4,5.2
		c-0.1,1.7-0.6,3.4-1.5,5c-1.5,2.2-5.8,2.9-8.3,2c-2.1-0.7-3.9-3.7-3.9-6.5c-0.1-8.6-0.2-17.1-0.5-25.7c-0.1-2.7-0.5-5.3-0.8-8
		c0-0.3-0.2-0.6-0.8-0.8v12.6c-1.2-0.5-2.2-0.9-3.1-1.3c-3.8-1.7-7.2-4.3-9.8-7.5c-0.4-0.5-0.9-1.5-0.8-1.7c0.6-0.5,1.2-0.9,2-1.1
		c0.7-0.1,1.5-0.1,2.2,0.1c4.7,1.2,8.8-4.7,7.5-8.6c-0.7-2.1-1.6-4.1-2.4-5.8L406.3,522.7z M442.4,519.1h-1.4
		c-4.6-0.1-7.7,1.7-9.1,6.5c-0.6,2-2.3,3.5-3.4,5.4c-1.2,1.9-2.3,4-3.2,6.1c0,0.9,0.4,1.8,1.1,2.3c3.4,2.1,6.9,4,10.5,5.9
		c3.1,1.6,4.9,1.3,7.4-1.1c3.5-3.5,6-7.8,7.3-12.5C453.2,526.9,449.2,518,442.4,519.1z"/>
	<path id="cow-nose-fill" class="st0" d="M357,521.7c2.4-2.1,4.7-4,6.9-6c3.2-2.9,7.3-3.5,11.4-3.9c4.2-0.5,8.5,0.2,12.3,2
		c3.5,1.7,7,3.3,10.5,5.1c1.3,0.7,2.5,1.5,3.7,2.4c2.1,1.6,2.2,1.9,0.9,4.3c-3.1,5.4-7.1,9.8-13,12.4c-6.9,3.3-15,2.5-21.2-1.9
		C363.3,532.5,359.3,527.5,357,521.7z M384.4,524.6c2.8,0,4.9-1.3,5-3.1s-1.9-3.3-4.6-3.6s-5.3,1.3-5.4,3.1S381.7,524.7,384.4,524.6
		z M371.5,524.3c2.8,0,4.9-1.5,4.9-3.3s-2.4-3.8-4.9-3.6c-0.7,0.1-1.4,0.3-2.1,0.6c-1.3,0.7-2.3,1.7-2,3.3c0.3,1.6,1.6,2.7,3.2,2.9
		C370.9,524.3,371.2,524.3,371.5,524.3z"/>
	<path id="cow-leg-front-fill" class="st0" d="M386.3,567.1l0.9,0.4c1,0.5,1.8,2.1,3.3,0.9c1.3-1.4,1.8-3.3,1.3-5.2
		c-0.1-0.4-0.3-0.7-0.6-1c-3.1-2.2-2-4.9-0.8-7.6c2.6,1.8,5.2,3.6,7.7,5.5c0.4,0.3,0.4,1.2,0.3,1.8c-1.1,5.6-2.2,11.1-3.4,16.7
		c-0.6,2.7-2,3.9-4.5,4c-2.9,0.2-6-1.3-6.8-3.3c-0.3-0.5-0.4-1.1-0.3-1.7C384.3,574.2,385.3,570.7,386.3,567.1z"/>
	<path id="cow-leg-back-fill" class="st0" d="M469.7,571.6l1.7,0.2c0.1,0.2,0.1,0.4,0.1,0.6c-0.1,1.3-0.2,2.7-0.2,4s0.5,2.2,2,2.2
		c1,0.1,1.9-0.7,2-1.7c0-0.2,0-0.3,0-0.5c0-1.1-0.2-2.3-0.2-3.4c0.1-0.5,0.2-1,0.5-1.4l0.8,0.2c-0.2,2.6-0.5,5.1-0.8,7.7
		c-0.1,1.4-0.4,2.8-0.8,4.1c-0.6,2.2-2.3,3.7-4.5,3.6c-2.1-0.2-4.2-0.7-6.1-1.6c-1.9-0.9-2.2-2.8-1.7-4.7c0.7-3.6,1.7-7,2.9-10.5
		c0.2,1,0.3,2,0.5,3c0.2,0.9,0.5,1.7,1,2.4c0.4,0.5,1.1,0.7,1.7,0.7c0.6-0.3,0.9-0.8,1.1-1.4C469.8,573.9,469.7,572.7,469.7,571.6z"
		/>
	<g id="cow-eyes">
		<path id="cow-eye-R" class="st0" d="M388.4,486.5v0.2c-0.1,2.3-1,4-2.2,4c-1.4,0-2.5-1.9-2.4-4.3c0.1-1.1,0.3-2.1,0.7-3.1
			c0.2-0.9,1.1-1.4,2-1.2c0.6,0.2,1,0.6,1.2,1.2c0.4,1,0.7,2,0.9,3L388.4,486.5z"/>
		<path id="cow-eye-L" class="st0" d="M374.9,486.5c0,2.4-0.9,4.2-2.2,4.2s-2.3-1.8-2.4-4.1s1-4.5,2.4-4.5S374.9,484,374.9,486.5z"
			/>
	</g>
	<path id="cow-spot" class="st1" d="M442.4,519.1c6.8-1,10.7,7.8,9.3,12.5c-1.3,4.7-3.8,9-7.3,12.5c-2.5,2.4-4.3,2.7-7.4,1.1
		c-3.5-1.8-7.1-3.8-10.5-5.9c-0.7-0.5-1.2-1.4-1.1-2.3c0.9-2.1,2-4.1,3.2-6.1c1.1-1.8,2.8-3.4,3.4-5.4c1.4-4.7,4.5-6.5,9.1-6.5
		L442.4,519.1z"/>
	<g id="cow-nose">
		<path class="st1" d="M384.4,524.6c-2.7,0-5.1-1.7-5-3.6s2.8-3.4,5.4-3.1s4.7,1.8,4.6,3.6S387.2,524.6,384.4,524.6z"/>
		<path class="st1" d="M371.5,524.3c-0.3,0-0.7,0-1-0.1c-1.6-0.2-2.9-1.3-3.2-2.9c-0.3-1.6,0.8-2.6,2-3.3c0.6-0.3,1.3-0.6,2.1-0.6
			c2.6-0.2,4.9,1.5,4.9,3.6S374.3,524.4,371.5,524.3z"/>
	</g>
	<path id="cow-stroke" class="st1" d="M356.3,489.2c-2.1,0.2-4.1,0.5-6.1,0.5c-2.2,0.1-4.3-1-5.5-2.8c-1.6-2.3-0.9-5.3,1.9-5.9
		c2.1-0.3,4.2-0.3,6.3,0.2c2.3,0.5,4.6,1,6.9,1.7c-5.6-5.2-8.6-10.8-5.6-18c1.6-3.8,7.9-7.4,12.4-7.3c-0.5,2-0.9,4.1-1.2,6.2
		c-0.2,2.7-0.1,5.3,0.4,7.9c0.5,2.6,2,2.9,4.4,1.7c7.6-4,14.9-3.2,22.2,0.9c2,1.2,2.5,1.1,3.6-1c1.7-3.4,1.5-7,0.8-10.6
		c-0.3-1.2-0.7-2.4-1.1-4c1.3,0,2.5,0.1,3.8,0.3c6.5,1.3,10.7,7.6,9.4,14.1c-0.1,0.7-0.3,1.3-0.6,1.9c-1.1,2.8-3.1,5.3-4.7,7.9
		c-0.4,0.5-0.7,1.1-0.8,1.8c1.3-0.5,2.5-1.1,3.8-1.5c2.4-0.9,4.9-1.5,7.5-1.9c2.3-0.4,4.6,1.2,5,3.6c0,0.1,0,0.3,0,0.4
		c0.2,2.8-1.9,5.3-4.7,5.5c-2.3,0.2-4.7,0-7-0.1c-0.5,0-0.9-0.1-1.8-0.2c0.9,3.3,1.8,6.4,2.7,10c4.2-0.7,8.3-1.4,12.4-2.2
		c15.6-3.2,31.4-5.4,47.4-5.1c5.2,0,10.3,0.9,15.1,2.7c6.7,2.4,12.3,7.2,15.5,13.6c0.4,0.8,1.1,1.5,1.9,1.9
		c5.6,3.2,9.8,7.6,12.1,13.7c0.8,2.2,2.2,4.1,2.9,6.2c0.4,1.3,0.1,2.9,0.1,4.4l-0.5,0.1l-1.6-1.8l-0.8,2.5c-0.7-1.1-1.4-1.9-1.5-2.7
		c-0.3-1.8-0.3-3.6-0.5-5.4c0-1.5-0.3-2.9-0.9-4.3c-1.7-3.5-4.7-5.7-7.6-7.7c0.7,3.7,1.7,7.5,2.1,11.3c0.9,6,0.2,12.1-2,17.8
		c-1.3,3.5-3.6,6.5-6.6,8.7c-0.9,0.6-1.4,1.7-1,2.7c1.5,6,3,12,4.4,18.1c0.5,1.9,1,3.8,1.3,5.7c0.2,1,0.1,2.1-0.2,3.1
		c-1.6,4.9-9.8,7.3-13.9,4.2c-1.6-1.3-2.6-3.3-2.7-5.4c-0.5-4.7-1-9.4-1.5-14.3c-2.1,0.8-3.2,1.8-2.5,4.3c0.7,2.6,0.1,3.1-2.4,3.6
		c-0.2,2.1-0.5,4.3-0.8,6.5c-0.3,3.9-3.7,6.7-7.5,6.4c-0.2,0-0.4,0-0.6-0.1c-2.9-0.4-5.6-1.1-6.9-4c-0.6-1.3-0.9-2.8-0.7-4.2
		c0.8-4,1.8-7.9,2.8-11.9c0.5-2.1,0-2.7-1.9-2.5c-13.8,1.6-27.8,1.6-41.7,0c-0.3,0-0.6,0-0.9,0c0.1,1.5,0.3,2.9,0.4,4.3
		c0.3,3.4,0.6,6.8,1,10.2c0.8,6.8-3.1,10.8-9.9,9.9c-3.8-0.2-6.8-3.4-6.7-7.2c-0.3-6.5-0.5-13.1-0.6-19.7c0-1.9-0.9-2.6-2.7-2.8
		c-0.9,4.3-1.8,8.5-2.7,12.7c-0.4,1.8-0.7,3.5-1.1,5.3c-0.8,3.4-2.9,5.3-6.3,5.3c-1.8,0-3.6-0.4-5.2-1.1c-3.2-1.3-4.2-3.7-3.1-7
		c2.2-7.2,4.5-14.3,6.6-21.4c0.3-1,0.2-2.1-0.2-3.1c-1.2-3-2.6-6-4-8.9c-0.3-0.5-0.9-0.8-1.5-0.9c-2.1-0.3-4.2-0.2-6.2-0.6
		c-9.9-2-16.1-8.5-20.2-17.3c-4.9-10.7-4.8-21.5-0.7-32.4c0.2-0.6,0.4-1.1,0.6-1.7C356.4,489.7,356.4,489.5,356.3,489.2z
		 M406.3,522.7l-7.8,12.1c0.7,1.7,1.6,3.7,2.4,5.8c1.3,3.8-2.8,9.8-7.5,8.6c-0.7-0.2-1.5-0.2-2.2-0.1c-0.8,0.2-1.4,0.5-2,1.1
		c-0.2,0.2,0.4,1.2,0.8,1.7c2.7,3.2,6,5.8,9.8,7.5c0.9,0.5,1.9,0.8,3.1,1.3v-12.6c0.5,0.2,0.8,0.5,0.8,0.8c0.3,2.7,0.7,5.3,0.8,8
		c0.2,8.6,0.3,17.1,0.5,25.7c0,2.8,1.9,5.8,3.9,6.5c2.6,0.9,6.8,0.2,8.3-2c0.9-1.5,1.4-3.2,1.5-5c0.2-1.7-0.6-3.5-0.4-5.2
		c0.2-2.8-1.4-4.2-3.4-5.3c-0.9-0.5-2-0.7-3-1.1c-0.5-0.2-1.2-0.7-1.3-1.2c-0.5-2.5,2.6-6.9,4.9-7.3c0.5-4.8,1-9.5,1.5-14.2l0.6,0.1
		c0,0.4,0.1,0.7,0,1.1c-0.7,4.8-0.3,9.6,0.9,14.3c0.2,0.5,0.7,1.3,1.1,1.3c1.3,0.1,2.7,0.1,4,0.1c0-0.6,0-1.3-0.1-1.9
		c-1.1-3.7,0.6-6.3,3.5-8.4c0.8-0.6,1.7-1.1,2.5-1.6c7.2-4.4,14.8-3.5,22.4-1.4c4.6,1.3,5.6,2.7,5.6,7.4c0,1.7,0,3.4,0,5.3
		c1.3,0,2.6-0.2,3.9-0.4c5.8-1.4,11.6-3.1,17.5-4.4c1.6-0.4,1.8-1.2,1.5-2.4c-0.5-1.9-1.2-3.8-1.8-5.7c-0.3-1-0.5-2.1-0.7-3.1
		l0.8-0.3c0.6,1,1.1,2.1,1.5,3.2c0.8,2.6,1.3,5.3,2.1,8c0.3,2,1.8,3.5,3.7,4c3.4,0.9,5.1,4.4,4.2,7.8c-0.7,2.7-1.6,3.1-4.2,2.1
		c-0.5-0.2-1-0.3-1.5-0.4c0.4,3.7,0.7,7.3,1.3,10.7c0.6,3.1,3,4.5,6.3,4c4.1-0.6,6.6-2.8,6.3-6c-0.4-3.2-1-6.3-1.8-9.4
		c-1.4-6.2-3.1-12.4-4.4-18.7c-0.5-2.3,0-4.8,0.1-7.4c0.5,0.3,0.6,0.3,0.6,0.4c0.3,1,0.5,2.1,0.8,3.1c0.3,0.6,0.6,1.2,1,1.8
		c0.6-0.3,1.2-0.7,1.8-1.2c5.2-5.8,6-12.9,5.4-20.6c-1.3,0.4-2.4,0.7-3.4,1c-1.9,0.8-3.8,1.6-5.7,2.4c-8.3,3.4-16.7,6-25.8,6.3
		c-5.6,0.1-6.8-1.1-6.2-6.7l0.1-0.4c0.4-4.1,1-8.1,1-12.2c0-3.8-0.4-7.6-1-11.4c-0.6-3.9-1.7-7.7-2.6-11.5c-0.2-1.1-1.2-1.9-2.3-1.8
		c-0.1,0-0.2,0-0.3,0.1c-5.5,0.7-11,1.2-16.7,1.9c-0.7,5.5-2.6,10.8-5.6,15.5c-4.1,6.6-9.4,12-16.7,15.1c-2,1-4.3,0.6-5.9-0.9
		C409.2,525.4,407.5,523.9,406.3,522.7z M357,521.7c2.3,5.8,6.3,10.8,11.4,14.4c6.2,4.4,14.3,5.2,21.2,1.9c5.8-2.5,9.9-7,13-12.4
		c1.3-2.3,1.3-2.6-0.9-4.3c-1.2-0.9-2.4-1.7-3.7-2.4c-3.5-1.8-7-3.4-10.5-5.1c-3.8-1.8-8.1-2.5-12.3-2c-4.1,0.4-8.1,1-11.4,3.9
		C361.7,517.7,359.4,519.6,357,521.7L357,521.7z M386.3,567.1c-1,3.6-2,7.1-2.9,10.5c-0.1,0.6,0,1.2,0.3,1.7c0.8,2,3.9,3.5,6.8,3.3
		c2.5-0.2,3.9-1.3,4.5-4c1.2-5.5,2.3-11.1,3.4-16.7c0.1-0.6,0-1.5-0.3-1.8c-2.5-1.9-5.1-3.7-7.7-5.5c-1.2,2.7-2.3,5.4,0.8,7.6
		c0.3,0.3,0.5,0.6,0.6,1c0.5,1.8,0,3.8-1.3,5.2c-1.5,1.2-2.2-0.4-3.3-0.9L386.3,567.1z M469.7,571.6c0.1,1.2,0,2.3,0,3.5
		c-0.1,0.6-0.5,1.1-1.1,1.4c-0.6,0.1-1.3-0.2-1.7-0.7c-0.5-0.7-0.8-1.5-1-2.4c-0.2-1-0.4-2-0.5-3c-1.2,3.4-2.2,6.9-2.9,10.5
		c-0.4,1.9-0.1,3.8,1.7,4.7c1.9,0.9,4,1.5,6.1,1.6c2.2,0.1,3.9-1.4,4.5-3.6c0.4-1.4,0.6-2.7,0.8-4.1c0.3-2.5,0.5-5.1,0.8-7.7
		l-0.7-0.2c-0.2,0.4-0.3,0.9-0.4,1.3c0,1.1,0.1,2.3,0.2,3.4c0.2,1-0.5,2-1.5,2.2c-0.2,0-0.3,0-0.5,0c-1.5,0.1-2-0.8-2-2.2
		s0.2-2.7,0.2-4c0-0.2-0.1-0.4-0.1-0.6L469.7,571.6z M388.4,486.5h0.2c-0.2-1-0.5-2-0.9-3c-0.2-0.9-1.1-1.4-2-1.2
		c-0.6,0.2-1,0.6-1.2,1.2c-0.4,1-0.6,2-0.7,3.1c-0.1,2.3,1,4.3,2.4,4.3c1.2,0,2.1-1.8,2.2-4L388.4,486.5z M374.9,486.5
		c0-2.5-1-4.4-2.2-4.4s-2.5,2.1-2.4,4.5s1.2,4.2,2.4,4.1S374.9,488.9,374.9,486.5z"/>
</g>
<g id="bird">
	<g id="body">
		<path id="bird-tail" class="st0" d="M62,305.8c0.1,6.2-6.4,10.5-19.2,18.7c-1.5,1-14.5,9.3-23,10.1c-2.6,0-5.2,0.3-7.7,0.9
			c-2.5,0.6-3.9,1.3-6,0.9c-1.3-0.3-3.8-1.2-4.1-2.7c-0.3-1.9,2.8-3.7,7.9-7.4c3.2-2.4,6.2-5.1,9.3-7.6l3.4-2.7
			c0.9-0.7,1.7-1.4,2.4-2c5.2-4.2,5.6-4.9,10.1-8.2c2-1.5,3.8-2.8,5.5-4l1.8,0.1h0.6h0.7c1,0,2.1,0.1,3.1,0.1c1.6,0,3.1,0,4.6-0.2
			h0.1l1.3-0.1l0.5,0l0.8-0.1l1.2-0.1h0.2H56c1.2-0.2,2.3-0.4,3.5-0.6l0.4-0.1l0.7-0.2C61.5,302.2,62,303.9,62,305.8z"/>
		<path id="bird-body" class="st0" d="M123.1,201.6c3.1,1.6,5.7,3.9,7.8,6.6c5.5,7.4,4.4,15.7,4.1,18.3c-0.5,3.7-1.1,8.8-4.6,10.8
			c-1.3,0.8-2.5,0.8-3.4,2.1c-1.4,1.9-0.5,4.5,0,7.1c0.3,1.8,0.1,4.9-0.5,11.2c-0.5,6.5-1.9,12.8-4.3,18.9
			c-2.7,6.9-6.8,13-12.1,18.1c-6.4,5.8-14.1,9.9-22.4,11.9c-5.3,1.3-19.3,3.8-21.3-0.5c-1.9-4,10.3-7.6,17.2-19.9
			c11.9-21.2,2.4-57.7,7.1-71c0.7-2,1.8-4,3-5.7c2.4-3.2,5.6-5.7,9.2-7.3c2.7-1.4,6.6-3.3,11.9-3
			C117.6,199.3,120.5,200.2,123.1,201.6z"/>
		<g>
			<path id="bird-wing-fill" class="st2" d="M24.1,301.6c0.7,1.8,3.5,2.2,6.9,2.5c14.1,1.5,21.2,2.3,28.4,0.7
				c5.6-1.3,18.4-4.2,28.4-15.7c7.4-8.5,9.6-17.5,10.8-22.4c2-8.7,2-17.6,0-26.3c-1.7-8.7-5.5-19.9-8.7-19.6c-0.9,0.1-1.3,1.1-4.6,6
				c-1.5,2.2-3.1,4.3-4.6,6.5c-4,5.8-9,11.8-12.1,15.5c-22.2,26.6-20,28.4-31.2,38.4C30,293.7,22.9,298.4,24.1,301.6z"/>
		</g>
		<path class="st1" d="M153.6,221.9c-0.2-0.5-0.6-1-1.1-1.2l0.1,0l-17.8-10.3c-6.4-12.2-21.5-17-33.7-10.6
			c-7.5,3.9-12.6,11.4-13.4,19.8l-65.7,80.4c-0.8,1-0.7,2.6,0.4,3.4c0.2,0.2,0.5,0.3,0.7,0.4c2.9,1,5.9,1.8,8.9,2.4l-6.2,5.3
			c-1,0.8-1.1,2.3-0.3,3.3c0.5,0.6,1.2,0.9,1.8,0.9c0.5,0,1.1-0.2,1.6-0.6l9.3-7.9c1,0.1,2.1,0.2,3.1,0.3l1,0.1h0.2
			c4.1,0.2,8.2,0.1,12.2-0.3l0.9-0.1H56l1.8,0.3c-12.2,16.4-31.2,26.3-51.6,27L23,320.3c1-0.9,1.1-2.4,0.3-3.4l-0.1-0.1
			c-0.9-1-2.3-1.1-3.3-0.2L1.4,332.3c-1.7,1.4-2,3.9-0.6,5.6c0.8,1,2,1.5,3.2,1.5c23.6,0,45.7-11.6,59.1-31c4.2,0.6,8.4,1,12.7,1
			c2.1,0,4.1-0.1,6.1-0.3V322l-8.5,6.1c-1.1,0.8-1.3,2.3-0.5,3.4c0.8,1.1,2.2,1.3,3.3,0.6l7.4-5.3l3.3,5.4c0.8,1.1,2.3,1.4,3.4,0.6
			c1-0.7,1.3-2.1,0.8-3.1l-1.4-2.2l5.8,1.7l3.7,5.4c0.5,0.7,1.2,1.1,2,1.1c1.3,0,2.4-1.1,2.4-2.4c0-0.5-0.1-1-0.4-1.4l-4.2-6.1
			c-0.3-0.4-0.8-0.8-1.3-0.9l-7.9-2.4l7-5l3.3,5.4c0.4,0.7,1.2,1.1,2,1.1c1.3,0,2.4-1.1,2.4-2.4c0-0.5-0.1-0.9-0.4-1.3l-1.4-2.2
			l5.7,1.7l3.7,5.4c0.5,0.6,1.2,1,2,1c0.5,0,1-0.1,1.4-0.4c1.1-0.8,1.4-2.2,0.6-3.3l0,0l-4.2-6.1c-0.3-0.5-0.8-0.8-1.3-0.9
			l-10.9-3.3v-7.5c2.7-1.2,5.2-2.8,7.6-4.5c15.5-11.5,20.3-30.9,21.7-45.2c0.2-1.3-0.7-2.5-2-2.8c-1.3-0.2-2.5,0.7-2.8,2
			c0,0.1,0,0.2,0,0.3c-1.2,13.3-5.6,31.4-19.7,41.8c-9.2,6.8-21.4,9.5-36.5,8c2.7-1,5.4-2.2,7.9-3.6c0.5-0.2,0.9-0.5,1.4-0.8
			l0.2-0.2c0.4-0.2,0.7-0.5,1.1-0.7l0.3-0.2l1-0.7l0.4-0.2c0.4-0.2,0.7-0.5,1.1-0.8l0.2-0.2c0.4-0.3,0.8-0.7,1.2-1
			c0.2-0.1,0.3-0.2,0.4-0.4c0.1-0.1,0.5-0.4,0.8-0.7c0.3-0.2,0.3-0.3,0.5-0.4l0.7-0.6l0.5-0.5c0.2-0.2,0.4-0.4,0.7-0.6
			c0.2-0.2,0.3-0.3,0.5-0.5l0.7-0.7c0.2-0.2,0.3-0.3,0.5-0.5c0.1-0.2,0.5-0.5,0.7-0.8l0.4-0.4c0.4-0.4,0.7-0.8,1-1.2
			c0.3-0.4,0.5-0.6,0.7-0.9l0.2-0.2c0.2-0.2,0.3-0.4,0.5-0.7l0.2-0.3l0.5-0.7l0.2-0.2l0.5-0.7l0.1-0.2c0.2-0.2,0.3-0.5,0.5-0.7
			l0.1-0.2l0.5-0.8l0.1-0.1l0.5-0.8c0,0,0-0.1,0-0.1c0.2-0.3,0.3-0.6,0.5-0.9c1.6-2.9,2.9-6,3.9-9.1c3.2-9.7,3.4-20.7,0.8-31.9
			c-1.6-6.9-4.2-13.5-7.6-19.7c1-10.5,9.8-18.3,20.1-18.3c0.6,0,1.3,0,1.9,0.1c7,0.7,13.1,4.9,16.2,11.2c0.2,0.5,0.5,1.1,0.7,1.6
			v0.1c0.1,0.2,0.2,0.5,0.2,0.7c0,0.1,0,0.2,0.1,0.2c0.1,0.2,0.1,0.4,0.2,0.6l0.1,0.3c0,0.2,0.1,0.3,0.1,0.5c0,0.2,0.1,0.3,0.1,0.4
			c0,0.2,0.1,0.3,0.1,0.5c0,0.2,0.1,0.4,0.1,0.6l0.1,0.3c0,0.3,0.1,0.6,0.1,0.9c0,0.3,0,0.6,0.1,0.9v2.5c0,0.2,0,0.4,0,0.5
			c-0.1,0.2,0,0.3,0,0.4l-0.1,0.7c0,0.1,0,0.3-0.1,0.4s-0.1,0.4-0.1,0.6l-0.1,0.4c0,0.2-0.1,0.4-0.2,0.7l-0.1,0.2
			c-0.1,0.3-0.2,0.5-0.2,0.8c-1.2,3.7-3.4,7-6.5,9.5c-0.6,0.5-0.9,1.2-0.9,2c0.1,1.5,0.2,3.9,0.2,6.9c0,1.3,1,2.4,2.4,2.4h0
			c0.7,0,1.2-0.3,1.7-0.7c0.4-0.4,0.7-1,0.7-1.7c0-2.5,0-4.5-0.1-6.1c3-2.7,5.2-6,6.6-9.7c5.9-2,16-5.9,16.1-5.9
			C153.4,224.6,154.1,223.2,153.6,221.9z M86.7,308.6c2.8-0.5,5.6-1.2,8.4-2.1v6.1l-8.4,6V308.6z M93.2,233l0.1,0.3
			c6.7,18.2,4.9,37.1-5.3,50.7l0,0.1c-0.4,0.5-0.8,1-1.1,1.5l-0.8,1c-0.1,0.1-0.2,0.2-0.3,0.3l-0.6,0.7l-0.3,0.3l-0.6,0.6l-1.1,1.1
			l-0.1,0l-1,0.9l-0.1,0.1l-0.8,0.7l-0.2,0.2l-0.8,0.6l-0.2,0.2l-0.8,0.7l-0.2,0.1c-0.3,0.3-0.7,0.5-1,0.8l-0.1,0.1l-0.9,0.6
			l-0.4,0.3l-0.6,0.4l-0.5,0.3l-0.5,0.3l-0.6,0.4l-0.2,0.1c-3.5,2-7.2,3.5-11,4.6c-0.9,0.3-1.8,0.5-2.7,0.7l-0.7,0.2l-0.4,0.1
			c-1.1,0.2-2.3,0.4-3.4,0.6h-0.3l-1.2,0.1l-0.8,0.1l-0.5,0.1l-1.3,0.1h-0.1c-1.5,0.1-3,0.2-4.5,0.2c-1,0-2,0-3-0.1h-1.3
			c-0.6,0-1.2-0.1-1.7-0.1c-1-0.1-1.9-0.2-2.9-0.3c-3.3-0.4-6.6-1.1-9.8-2L89.7,225c0,0.1,0.1,0.2,0.1,0.2l0.2,0.5
			c0.4,0.9,0.8,1.7,1.2,2.6c0.1,0.1,0.1,0.3,0.2,0.4c0,0,0,0,0,0c0,0,0,0,0,0c0.2,0.4,0.3,0.7,0.5,1.1l0.3,0.6
			c0.2,0.3,0.3,0.7,0.4,1C92.8,231.9,93,232.4,93.2,233z"/>
	</g>
	<circle id="bird-eye" class="st1" cx="120.2" cy="215.9" r="3.6"/>
</g>
<g id="dog">
	<path id="dog-body" class="st2" d="M537,294.1l-1.7,1.5c-2.5,1.9-4,4.7-4.4,7.8c-1.4,12.5-2.8,25-4.2,37.4
		c-0.2,1.3,0.1,1.6,1.4,1.8c2.2,0.2,4,1.7,4.6,3.8c0.2,0.7,0.1,1.1-0.8,1.1c-3.5,0-7.1,0-10.6,0c-0.7,0-1-0.3-1-1c0-0.4,0-0.8,0-1.2
		v-39.6c0-2,0-2-1.8-1.1c-8.2,4.3-16.3,8.7-24.5,13c-0.3,0.2-0.7,0.4-1,0.7c-3,1.5-5.9,3.1-8.9,4.6c-9.2,4.7-18.9,8.6-28.3,12.9
		c-3.7,1.7-7.4,3.5-11.3,4.9c-0.4,0-0.7,0-0.8,0.4l-0.6,0.3l-0.4,0.2l-0.5,0.2c-0.5,0-1.1-0.2-1.2,0.6c-0.7,0.5-1.5,0.9-2.4,1.1
		c-0.3-0.3-0.6-0.5-1-0.5c0-0.1,0-0.2,0.2-0.2c0.3-0.1,0.5-0.4,0.5-0.7c4.1-5.8,8.2-11.5,12.3-17.3c25.5-35.5,50.9-71,76.4-106.5
		c4.1-5.7,7.8-11.5,11.7-17.3c0.3-0.4,0.4-0.9,1-1.1c2.8,4.9,1.3,12.3-3.4,17.3c-1.5,1.3-3,2.8-4.2,4.4c-9.8,11.4-12.4,23.9-6.2,38
		c2.7,6,6.2,11.5,9.1,17.2c2.8,5.5,4.9,11,2.3,17.2l0,0C537.1,293.8,537,293.9,537,294.1z"/>
	<path id="dog-head" class="st0" d="M537.3,293.8c2.6-6.2,0.5-11.7-2.3-17.1c-3-5.8-6.5-11.3-9.1-17.2c-6.3-14-3.7-26.6,6.2-38
		c1.3-1.6,2.7-3.1,4.2-4.4c0.5,0.6,1.3,0.4,1.9,0.4c6.8,0,13.7,0,20.5,0c0.6,0,1.1,0.1,1.7,0.1c-0.7,6.2-3.3,9.1-9.4,10.4
		c-1.2,0.2-2.3,0.5-3.5,0.8c-3.7,1.1-5.9,4.9-4.8,8.7c0.1,0.5,0.3,0.9,0.5,1.3c1,3.8,1.1,7.7,1.5,11.6c0.7,6.4,1.7,12.9,2,19.4
		s-0.6,12.5-4,18.1C541.3,290.2,539.8,292.5,537.3,293.8z M546,220.8c0-0.8-0.6-1.5-1.4-1.5c-0.8,0-1.5,0.6-1.5,1.4
		c0,0.1,0,0.1,0,0.2c0,0.8,0.6,1.5,1.4,1.5c0.8,0,1.5-0.6,1.5-1.4C546,221,546,220.9,546,220.8z"/>
	<path id="dog-tail" class="st2" d="M437.6,342.8c0.4,0,0.7,0.2,1,0.5c-0.2,0.3-0.9,0.3-0.9,1h2.1c17.1,0,34.1,0,51.2,0
		c4.7-0.2,9.3,1,13.4,3.4c4.5,2.8,7.8,7.1,9.6,12.1c0.4,1.2,0.3,1.6-1.1,1.6c-18.4,0-36.8,0-55.1-0.1c-9.5-0.2-17.9-6.4-20.9-15.5
		C436.4,344.8,436.7,343.5,437.6,342.8z"/>
	<path id="dog-leg-back" class="st0" d="M504.4,347.7c-4.1-2.4-8.7-3.5-13.4-3.4c-17,0.1-34.1,0-51.2,0h-2.1c0-0.7,0.7-0.7,0.9-1
		c0.9-0.2,1.7-0.6,2.4-1.1c0.5,0,0.9-0.2,1.2-0.6l0.5-0.1l0.4-0.2l0.6-0.3c0.3,0,0.6-0.1,0.8-0.4c3.9-1.3,7.5-3.2,11.3-4.9
		c9.4-4.3,19.1-8.1,28.3-12.9c3-1.5,6-3.1,8.9-4.6c1.3,1.2,2.5,2.5,3.7,3.8c1.8,2.5,2.8,5.5,2.9,8.6c0,2.2,0,4.5,0,6.7
		c0,2.2,0,2.3,2.3,2.4c3.9,0.1,7.3,2.5,8.8,6.1c0.5,1.1,0.3,1.6-1.1,1.6C507.9,347.4,506.1,347.1,504.4,347.7z"/>
	<path id="dog-mouth" class="st2" d="M543.2,238.8c-1.8-3.4-0.5-7.7,2.9-9.5c0.4-0.2,0.9-0.4,1.3-0.5c1.1-0.3,2.3-0.6,3.5-0.8
		c6.1-1.3,8.8-4.2,9.4-10.4c5.9,0,11.8,0,17.7-0.1c0.8,0,1,0.3,0.7,1c-2.4,5.9-5.2,11.4-10.4,15.4c-2.6,1.9-5.5,2-8.5,1.4
		c-2.6-0.5-5.2-1.2-7.8-1.7c-4.7-1-6.6,0.1-8.3,4.6C543.6,238.4,543.5,238.7,543.2,238.8z"/>
	<path id="dog-eye" class="st3" d="M546,220.9c0.1,0.8-0.5,1.5-1.3,1.6c-0.8,0.1-1.5-0.5-1.6-1.3c0-0.1,0-0.1,0-0.2
		c-0.1-0.8,0.5-1.5,1.3-1.6c0.8-0.1,1.5,0.5,1.6,1.3C546,220.7,546,220.8,546,220.9z"/>
</g>
<g id="box">
	<path id="box-top" class="st0" d="M295.5,205.1c7.1,2.8,14.1,5.6,21.2,8.4c14.3,5.6,28.5,11.1,42.8,16.7c0.5,0.2,0.9,0.4,1.6,0.8
		l-12.7,5.8c-17.3,8-34.5,15.9-51.8,23.9c-0.9,0.5-2,0.6-3,0.1c-21.2-9.8-42.4-19.6-63.6-29.3c-0.3-0.1-0.5-0.3-1.1-0.6
		c2.1-0.9,4-1.6,5.8-2.3l58.5-22.8c0.4-0.2,0.7-0.4,1-0.6L295.5,205.1z"/>
	<path id="box-right" class="st1" d="M297.7,356v-24.1c0-21.3,0-42.6,0-63.9c-0.2-1.4,0.7-2.8,2-3.3c20.8-9.5,41.6-19.1,62.3-28.7
		c0.5-0.2,1-0.4,1.6-0.7c0,0.7,0.1,1.2,0.1,1.8c0,27.3,0,54.7,0,82c0.1,1.2-0.6,2.2-1.7,2.7c-20.8,11-41.6,22.1-62.3,33.1
		C299.2,355.3,298.5,355.6,297.7,356z"/>
	<path id="box-left" class="st2" d="M226.7,235.3c3.4,1.5,6.6,3,9.8,4.5c18.2,8.4,36.3,16.8,54.5,25.1c1.1,0.3,1.8,1.3,1.7,2.4
		c0,28.8-0.1,57.6,0,86.3v2.2c-0.7-0.3-1.1-0.4-1.6-0.7c-21.1-11.2-42.2-22.4-63.3-33.7c-0.9-0.4-1.4-1.3-1.3-2.2
		c0-27.5,0-55,0-82.5C226.6,236.5,226.7,236,226.7,235.3z"/>
</g>
<g id="monkey">
	<path id="monkey-body" class="st1" d="M129.8,529c-1.3-2.7-2.5-5.3-3.9-7.8c-0.3-0.4-0.7-0.6-1.2-0.7c-6-0.5-11-4.9-12.3-10.8
		c-1-5-1.1-10,1.7-14.6c1.8-3.3,5.1-5.6,8.9-6c1.2,0,2.2-0.8,2.3-2c3.2-10.8,8.7-20.1,17.9-26.9c7.5-5.5,16-8.1,25.2-8.6
		c10.2-0.6,19.9,1.2,28.7,6.5c10.1,6,16.3,15.3,20.3,26.2c0.1,0.3,0.2,0.6,0.2,0.8c0.5,2,1.3,3.1,3.8,3.5c5.9,0.8,10,5.8,10.4,12
		c0.3,2.4,0.3,4.8,0,7.2c-0.9,4.8-3.3,8.8-8.2,10.7c-1.5,0.6-3.2,0.9-4.8,1.4c-0.4,0.1-0.8,0.4-1,0.7c-1.6,3.3-3.2,6.5-4.9,10h1.8
		c8-0.2,18.6,8,17.8,18.1c-0.2,4.5-2.4,8.7-6.1,11.3c-5.6,4-12.1,6.7-18.6,8.8c-3.2,1-6.6,0.1-8.9-2.3c-1.3-1.1-1.7-2.8-1.1-4.4
		c0.6-1.7,2.1-1.5,3.5-1.5c0.6,0.1,1.3,0.1,1.9,0c0.7-0.2,1.4-0.5,2-0.8c-0.6-0.6-1.2-1.3-1.8-1.9c-0.1-0.1-0.3,0-0.4-0.1
		c-0.8-0.3-1.6-0.7-2.5-1c0.8-0.8,1.5-2.2,2.5-2.4c2.3-0.3,4.6-0.5,6.9-0.5c1.4,0,2.8,0,4.1-0.1c3.6-0.6,4.9-3.3,3.1-6.6
		c-1.1-2.3-3.3-3.8-5.8-4.2c-7.4-1.3-13.8,0.3-15.5,8.2c-0.8,3.6-0.7,7.2,0.2,10.8c0.8,3.1,1.4,6.2,1.9,9.4c0.3,3.2-0.6,6.5-2.6,9
		c-0.7,0.9-1.3,1.9-1.9,2.9c-1.7,3-1.6,3.9,1,6.1c2.2,1.9,2,4.4-0.7,5.5c-3.5,1.6-7.5,1.1-10.5-1.3c-3.1-2.4-4.4-7.2-3.1-11.1
		c0.5-1.4,1.2-2.7,1.6-4c1.3-4.5-0.1-7.5-4.7-8.5c-2.8-0.6-5.6-0.6-8.4-0.1c-5.1,1-7.1,4.7-5.9,9.8c0.7,2.5,1.3,5.1,1.7,7.6
		c0.4,4-2.7,6-5.7,7.5s-6.1,1-8.8-1c-1.8-1.4-1.7-3.3,0.1-5c3.4-3.2,3.4-3.7,0.1-6.9c-2.3-2.3-4.8-4.4-4.2-8.4
		c-2.6,0.7-4.7,1.3-6.9,1.8c-9.9,2.4-19.7,2.9-29.4-0.4c-1.8-0.7-3.6-1.5-5.3-2.6c-9.5-5.6-9.3-19.7-0.1-25.8
		c3.4-2.2,8-2.4,10.9-0.4s4.3,6.3,3.4,10.4c-0.4,1.7-1,3.2-3.1,3s-2.2-1.8-2.3-3.4s-0.1-3.3-2-3.9c-1.8-0.6-3.7,0-4.9,1.5
		c-2.9,3.1-2.5,8.6,0.9,11.6s7.4,4,11.6,4.5c9.7,1.3,19.5-0.9,27.7-6.1c1.6-0.7,2.4-2.5,2-4.2c-0.5-2.7-1-5.4-1.5-8.1
		s-2.6-3.5-5.3-3.9c-9.3-1.1-18.3-3.7-26.6-7.8c-5.4-2.7-10.2-6.6-14-11.3c-3.2-4-4.9-8.9-6-13.9c-3-13.8,1.1-26.1,8.2-37.8
		c3.3-5.5,6.6-11,9.7-16.5c0.8-1.3,1.3-2.8,1.6-4.3c1.9-10,14.5-16,23.7-12.6c1.9,0.7,3.7,1.5,5.4,2.7c2,1.3,2.8,3.8,1.8,6
		c-0.6,2.2-2.7,3.7-4.9,3.6c-2.1-0.1-4.2-0.4-6.2-0.9c-2-0.5-4.2,0.2-5.5,1.8c-0.6,0.7-0.8,1.6-0.6,2.5c0.3,0.6,1.5,1,2.3,1.2
		c0.6,0.1,1.3-0.4,1.9-0.3c1.2,0.2,3,0.3,3.3,1s-0.1,2.6-0.8,3.4c-1.3,1.3-2.9,2.4-4.5,3.4c-11.3,7.3-18.6,17.6-22.4,30.3
		c-2.2,7.5-0.8,14.8,3.2,21.4c1.6,2.6,4.4,4.6,7,6.2C121.8,527.5,125.7,528.8,129.8,529z M169.2,539c4.5-0.4,9-0.5,13.4-1.3
		c7.5-1.4,14.4-4.1,19.1-10.6c2.9-4,4.6-8.2,3-13.2c-0.6-1.9-1.6-3.9-1.6-5.8c0-3.8,0.2-7.5,0.6-11.3c0.2-2.9,1.1-5.8,0.8-8.6
		c-0.9-9.4-8.8-17-19.1-13.3c-2.1,0.8-4.1,1.9-6,3c-4.6,2.9-10.5,2.9-15.1,0c-1.5-0.9-3.1-1.7-4.6-2.4c-5-2.3-10.1-2.8-14.6,0.8
		c-4.9,3.6-7.4,9.6-6.4,15.6c0.4,2.6,1.3,5.1,1.4,7.7c0.1,3.6,0.5,7.5-0.6,10.7c-2.8,8.2-1,15.7,6,20.9S160.6,538.5,169.2,539z
		 M170.6,563.2v0.2c2.7-0.3,5.5-0.6,8.2-1c1.6-0.1,3.1-1.1,3.7-2.7c1.5-4.6-2-11.8-6.6-13.4c-7.7-2.7-14.6,2.4-14.2,10.6
		c0,3.4,2.7,6.2,6.1,6.2c0,0,0.1,0,0.1,0C168.9,563.3,169.7,563.2,170.6,563.2z M219.9,513c3.3-0.1,6-4.3,6.3-9.1
		c0.3-3.6-2.4-8.1-6.3-8.1V513z M123.4,513.4v-16.6c-3.9,0.5-5.9,3.6-5.7,8.3S120.2,513.2,123.4,513.4L123.4,513.4z"/>
	<path id="monkey-face-bck" class="st0" d="M169.2,539c-8.6-0.6-16.7-2.6-23.7-7.8s-8.9-12.7-6-20.9c1.1-3.3,0.7-7.2,0.6-10.7
		c-0.1-2.6-1-5.1-1.4-7.7c-1-6,1.5-12,6.4-15.6c4.5-3.5,9.6-3.1,14.6-0.8c1.6,0.7,3.1,1.5,4.6,2.4c4.6,2.9,10.5,2.9,15.1,0
		c1.9-1.2,3.9-2.2,6-3c10.3-3.7,18.3,3.9,19.1,13.3c0.3,2.8-0.6,5.8-0.8,8.6c-0.4,3.7-0.6,7.5-0.6,11.3c0,2,1,3.9,1.6,5.8
		c1.6,5-0.1,9.3-3,13.2c-4.7,6.5-11.7,9.2-19.1,10.6C178.3,538.6,173.7,538.6,169.2,539z M165.6,522.4c0,0.9,0,1.8,0,2.6
		c0.1,2.7,2.4,5.8,4.8,6.4s5-0.7,6.6-3.3c1.8-3,1.3-10.2-0.9-12.9c-2.4-3-6-2.8-8.5,0.1C165.8,517.5,165.5,519.8,165.6,522.4z
		 M150,496.2c0.4,1.4,0.8,2.8,1.5,4.2c2.3,4,7,4.1,9.6,0.3c1.4-2.1,1.7-4.7,0.9-7.1c-0.8-2.6-2.6-4.5-4.8-4.7
		c-2.6-0.3-5.1,1.1-6.1,3.6C150.7,493.7,150.3,495,150,496.2L150,496.2z M187,488.9c-3.6,0-6,3.2-5.9,7.7c0.1,3.8,2.5,6.7,5.6,6.9
		c2.8,0.2,5.8-2.4,6.1-6c0.1-1.8-0.2-3.6-0.9-5.2C191.3,490.1,189.3,488.8,187,488.9L187,488.9z M172,503.9L172,503.9
		c-1-0.2-2,0-3,0.2c-1,0.5-1.8,1.3-2.2,2.3c0,1,0.4,2,1.2,2.7c1.7,1.7,3.9,1.2,5.9,0.6c1.7-0.5,3-1.8,2.7-3.7s-2-2.1-3.5-2.1
		C172.8,503.9,172.4,503.9,172,503.9L172,503.9z"/>
	<path id="monkey-belly" class="st0" d="M170.6,563.2c-0.9,0-1.8,0-2.6,0c-3.4,0-6.2-2.7-6.2-6.1c0,0,0-0.1,0-0.1
		c-0.4-8.2,6.5-13.4,14.2-10.6c4.6,1.6,8.1,8.8,6.6,13.4c-0.6,1.6-2,2.6-3.7,2.7c-2.7,0.4-5.5,0.7-8.2,1L170.6,563.2z"/>
	<g id="monkey-face-ears">
		<path class="st2" d="M219.9,513v-17.2c3.9,0,6.6,4.5,6.3,8.1C225.9,508.8,223.3,512.9,219.9,513z"/>
		<path class="st2" d="M123.4,513.4c-3.2-0.2-5.6-3.7-5.7-8.3s1.8-7.8,5.7-8.3V513.4z"/>
		<path class="st2" d="M165.6,522.4c-0.1-2.6,0.2-5,2-7.1c2.5-2.9,6.1-3.1,8.5-0.1c2.2,2.8,2.7,9.9,0.9,12.9
			c-1.5,2.6-4.1,3.8-6.6,3.3s-4.8-3.7-4.8-6.4C165.6,524.2,165.6,523.3,165.6,522.4z"/>
		<path class="st2" d="M150,496.2c0.3-1.3,0.6-2.5,1.1-3.7c1-2.5,3.5-4,6.1-3.6c2.2,0.3,4.1,2.2,4.8,4.7c0.8,2.4,0.5,5-0.9,7.1
			c-2.6,3.8-7.3,3.7-9.6-0.3C150.9,499.1,150.4,497.7,150,496.2z"/>
		<path class="st2" d="M187,488.9c2.3-0.1,4.3,1.3,5.1,3.4c0.7,1.7,1,3.4,0.9,5.2c-0.4,3.5-3.3,6.1-6.1,6c-3.1-0.2-5.5-3.1-5.6-6.9
			C181,492.1,183.5,488.9,187,488.9z"/>
		<path class="st2" d="M172.1,503.9c0.4,0,0.7,0,1.1,0c1.6,0.1,3.2,0.3,3.5,2.1s-1,3.2-2.7,3.7c-2,0.6-4.2,1.1-5.9-0.6
			c-0.8-0.7-1.2-1.7-1.2-2.7c0.4-1,1.2-1.8,2.2-2.3C170,503.8,171.1,503.7,172.1,503.9L172.1,503.9z"/>
	</g>
</g>
<g id="cat">
	<g id="cat-body">
		<path class="st0" d="M408.5,118.2c0.4-0.5,0.7-1,1-1.4c3.2-3.8,5.3-8.4,6.3-13.3c0.2-1.1,0.2-2.2,0-3.3c-0.2-1.6-1.3-3-2.9-3.5
			c-1.5-0.4-3.2,0.1-4.2,1.3c-1,1.1-1.8,2.3-2.5,3.6c-2.7,4.6-6.5,8.4-11,11.1c-0.8,0.6-2,0.7-2.9,0.1c-1.7-0.9-3.4-1.8-5.4-2.9
			l2.1-1.1c5.5-2.7,9.7-7.4,11.8-13.2c0.3-0.7,0.4-1.5,0.4-2.2c0.1-2.6-1.8-4-4.2-3.2c-1.3,0.5-2.6,1.2-3.8,1.9
			c-6,3.2-12.5,5.2-19.3,5.9c-1.2,0.3-2.4-0.2-3.1-1.2c-7.3-9.1-10.2-19.4-9.5-30.9c0.4-6.1,1.8-12.1,3.9-17.8
			c0.1-0.2,0.2-0.5,0.5-1c1.1,1.2,2.1,2.3,3.2,3.4c0.7,0.8,1.5,1.6,2.4,2.3c0.6,0.5,1.3,0.8,2.1,0.9c1.4,0.1,2.6,1.2,2.7,2.6
			c0.1,0.5,0.3,1,0.6,1.4c3.2,3.2,7.1,5.4,11.5,6.5c3,0.7,6.1,0.3,8.8-1.1c3.6-1.9,7-4.1,10.6-6.1c2.4-1.4,4.7-2.9,7.2-4
			c3.5-1.5,6.9-1.7,10.1,1c1.8,1.5,2.4,3.4,1.2,5.4c-1,2-2.4,3.7-4,5.2c-6.2,4.8-12.5,9.4-18.8,13.9c-5.9,4.2-12.6,4.4-19.5,3.4
			c-2.1-0.3-4.1-0.9-6.1-1.3c-1.1-0.2-2,0-2.1,1.1c0,0.8,0.4,1.6,1.1,2c8.1,2.4,16.3,3.5,24.4,0c6.3-2.8,11.6-7,17.1-11.2
			c2.4-1.8,2.3-1.8,4.9-0.2c0.6,0.4,1.3,0.8,2,1.2c-1.3,2.1-2.5,4.4-3.5,6.7c-1.3,3.4-2.3,7-3.3,10.5c-0.3,0.8,0.1,1.7,0.9,2.1
			c0.2,0.1,0.3,0.1,0.5,0.1c0.9,0.2,1.7-0.3,2-1.2c0-0.1,0-0.2,0-0.3c1.8-12.5,10.2-23.1,22-27.8c0.9-0.4,1.7-1,2.4-1.8
			c4.1-5.8,8.8-10.8,15.5-13.7c3.6-1.6,7.5-2.4,11.4-2.5c2.9,0,4.5,1,4.8,3c0.4,2.3-0.8,4.1-3.5,5c-7.2,2.6-13.6,11.4-13.6,18.5
			c0,1.2,0.1,2.4,0.5,3.6c2.1,5.5,1.6,11.1,0.6,16.7c-1.7,10.1-8.2,16.1-16.8,20.6c-10.6,5.7-22.8,7.7-34.7,5.7
			c-0.4-0.1-0.8-0.2-1.1-0.3C408.9,118.4,408.7,118.3,408.5,118.2z M375.5,56.6c0.1-1.8-0.6-2.5-2.2-2.1L375.5,56.6z"/>
		<path class="st0" d="M420,48.6c-5.8,0.2-10.4,3.2-15,6.1c-2.8,1.8-5.7,3.6-8.6,5.1c-4.8,2.6-9.5,1.6-13.4-1.7
			c-5.4-4.7-10.5-9.7-15.3-14.9c-1.8-1.9-2.7-4.5-3.9-6.9c-0.1-0.7,0.1-1.4,0.5-1.9c4.8-4.4,10.1-8.2,15.7-11.3
			c0.5-0.2,1.1-0.2,1.7,0c2.4,0.7,4.9,1.2,7.4,1.6c4.4,0.3,5.7-1.6,4.1-5.8c-0.2-0.6-0.4-1.1-0.6-1.6c4-1.8,12.4,0.2,15.9,3.8
			c-1,1-2,2-2.9,3.1c-1.4,1.8-1.3,3.4,0.7,4.4c2.6,1.3,5.3,2.4,8.1,3.2c1.6,0.3,2.9,1.5,3.2,3.1C419,39.3,419.8,43.9,420,48.6z
			 M397.6,50.7c2.6,0.7,5.1-0.7,5.6-2.8c0.1-0.5-0.3-1-0.5-1.6c-0.5,0.3-1.1,0.4-1.3,0.8c-0.6,1.2-1.3,2-2.7,1.7s-2-1.2-2-2.6
			c-0.1-0.4-0.4-0.8-0.8-1c-0.4,0-0.9,0.3-1.1,0.7c-0.5,1.2-1.3,2.1-2.7,1.8c-1.3-0.1-2.2-1.3-2-2.5c0,0,0-0.1,0-0.1
			c0-0.4-0.6-0.8-0.9-1.1c-0.3,0.4-0.9,0.7-1,1.1c-0.5,2.1,1.5,4.8,3.8,4.6S396.3,48.9,397.6,50.7L397.6,50.7z M391.7,35.6
			c1.6,0.5,3.3-0.5,3.7-2.1c0,0,0,0,0,0c0.4-1.6-0.5-3.1-2.1-3.6c-1.5-0.5-3.1,0.4-3.6,1.9c0,0.1,0,0.1-0.1,0.2
			C389.2,33.5,390.1,35.1,391.7,35.6z M406.3,36.2c0.3-1.6-0.6-3.1-2.2-3.6c-1.6-0.4-3.1,0.5-3.6,2.1c0,0.1,0,0.1,0,0.2
			c-0.3,1.6,0.6,3.1,2.2,3.5C404.3,38.7,405.8,37.7,406.3,36.2L406.3,36.2z M396.3,42.9c0.2,0.1,0.5,0.2,0.6,0.1
			c1-0.3,2.4-0.4,2.7-1.1c0.6-1.2-0.4-2.1-1.5-2.6c-0.3-0.1-0.6-0.3-0.9-0.4c-1.7-0.4-3.2,0.2-3.5,1.3S394.5,42.5,396.3,42.9
			L396.3,42.9z"/>
		<path class="st0" d="M462.3,101.7c0.6-1.7,1.1-3,1.7-4.4c0.2-0.3,0.5-0.6,0.8-0.7c7.9-3.1,16-5.6,24.6-5.4s14.2,4.9,15.6,13
			c1,5.5-0.7,10.5-3.8,15.1c-2.6,3.7-5.8,6.9-9.5,9.6c-1,0.8-2,1-2.9-0.1s-0.4-2,0.6-2.8c3.6-2.7,6.8-6,9.3-9.7
			c1.9-2.9,2.8-6.4,2.7-9.9c-0.4-6.6-4.4-10.8-11-11.3c-6-0.5-11.7,0.9-17.3,2.6c-3.1,1-6.2,2.3-9.2,3.5L462.3,101.7z"/>
		<path class="st0" d="M466.6,85c-0.9-4-1.8-7.5-2.4-11.1c-0.8-4.7,1.3-8.4,4.4-12.1c2.4,4.2,4.6,8.2,5.8,12.7
			c0.2,0.8,0.1,1.7-0.4,2.5C471.6,79.8,469.1,82.4,466.6,85z"/>
		<path class="st0" d="M430,55.4c-1.1-2.6-3.1-4.7-5.7-5.9c-0.4-0.2-0.7-1-0.7-1.6c0-0.3,0.4-1,0.7-1c2.6-0.3,5.2-0.9,7.8-0.6
			c3.3,0.4,4,2.8,1.9,5.3C432.7,53,431.4,54.3,430,55.4z"/>
	</g>
	<path id="cat-stroke" class="st1" d="M499,90c-0.4-0.3-0.9-0.5-1.4-0.5h0l-6-1.5l0,0c-0.5-0.2-1-0.2-1.6-0.3
		c-5.5-0.1-11,0.6-16.3,2.2c-2.8,0.7-5.4,1.7-8.4,2.6c-0.1-1.4,0.4-2.8,1.5-3.7c3.1-2.8,6.1-5.7,9.1-8.6c2.1-1.9,2.8-5,1.6-7.6
		c-1.5-3.7-3.2-7.4-4.9-11c-0.4-0.8-0.9-1.6-1.5-2.8c1.8-1,3.5-2,5.2-2.7c3.5-1.5,5.4-4.4,4.9-8c-0.5-3.4-3-5.7-6.8-6.1
		c-4-0.2-7.9,0.4-11.7,1.7c-8.1,2.6-14.1,8.1-18.9,15c-0.4,0.6-1,1.1-1.6,1.5c-5.3,2.1-10,5.4-13.9,9.5c-0.3,0.3-0.9,0.7-1.2,0.6
		c-1.2-0.5-2.4-1.3-3.7-2c1.2-1.2,2.4-2.4,3.5-3.7c1-1.3,1.7-2.8,2.6-4.2c0.5-0.8,1-1.4,1.7-2c2.5-1.8,4.9-3.6,6.4-6.3
		c0,0,0,0,0-0.1c1.7-2.7,0.9-6.3-1.9-8.1c-2.1-1.4-4.7-2-7.2-1.6c-1.8,0.2-3.5,0.5-5.3,0.8c-0.8-2-0.9-4.2-0.2-6.3
		c1.3-4.7,2.7-9.4,3.6-14.2c0.5-2.8,0.5-5.7,0.1-8.5c-0.4-3.3-3-5.2-6.4-4.7c-1.8,0.2-3.6,0.8-5.3,1.6c-2.3,1.1-4.4,2.6-6.7,3.9
		c-0.5,0.3-1.1,0.5-1.7,0.4c-2.6-0.7-5-1.5-7.6-2.1c-0.7-0.1-1.3-0.7-1.5-1.4c-0.9-2.7-2-5.3-3.3-7.8c-2.4-4.3-7.1-5.2-10.9-2
		c-1.6,1.4-3,3.1-4.1,4.9c-2.9,4.7-4.5,9.9-6,15.1c-0.3,0.8-0.8,1.5-1.4,2c-3.2,2.6-6.5,5.1-9.7,7.7c-2.1,1.8-2.5,3.6-1.3,6.2
		c0.7,1.5,1.6,2.9,2.2,4.4c0.2,0.6,0.3,1.2,0.1,1.8c-0.7,2.2-1.7,4.4-2.4,6.7c-3.2,10.6-4.1,21.2-0.9,32c2.8,9.6,8.7,18,16.7,24
		c11.1,8.7,23.5,14.3,37.7,15.7c12.4,1.3,24.9-1.7,35.4-8.5c3.1-1.9,5.9-4.4,9-6.4c5.3-3.3,11-5.8,17-7.4c4.5-1.2,9.1-2.3,13.8-2.1
		c5.8,0.3,8.8,3.6,8.6,9.4c-0.1,2.8-1.1,5.5-2.9,7.6c-2.5,2.8-5.2,5.5-8,8c-2.3,2.1-2.8,5.2-1,7.5c0.1,0.1,0.2,0.2,0.3,0.4
		c1.9,2.1,5.2,2.4,7.3,0.5c2.6-2,5-4.3,7.3-6.6c4.1-4.2,6.7-9.5,7.5-15.3C509.8,101.9,506,94,499,90z M474.4,74.5
		c0.2,0.8,0.1,1.7-0.4,2.5c-2.4,2.8-4.9,5.4-7.4,8c-0.9-4-1.8-7.5-2.4-11.1c-0.8-4.7,1.3-8.5,4.4-12.1C471,66,473.2,70,474.4,74.5z
		 M424.2,46.9c2.6-0.3,5.2-0.9,7.8-0.6c3.3,0.4,4,2.8,1.9,5.3c-1.2,1.3-2.5,2.6-3.9,3.8l0,0c-1.1-2.6-3.1-4.7-5.7-5.9
		c-0.4-0.2-0.7-1-0.7-1.6C423.5,47.7,424,46.9,424.2,46.9z M420,13.2c2.3-0.5,3.5,0.3,3.6,2.6c0.1,2.2,0,4.5-0.3,6.7
		c-0.3,1.9-0.7,3.8-1.1,5.6c-0.3,1.5-0.8,2.9-1.3,4.3c-2.3-5.6-5.4-10.7-10.2-14.6C413.6,15.7,416.6,13.9,420,13.2z M384.5,5.7
		c2.8-3,5.5-2.6,7.4,0.9c1.1,2,1.8,4.2,2.8,6.6c-6.7,0.4-11.7,3.9-17,6.9l0,0C379.2,15,380.7,9.8,384.5,5.7z M364.4,34.5
		c4.8-4.4,10.1-8.2,15.7-11.3c0.5-0.2,1.1-0.2,1.7,0c2.4,0.7,4.9,1.2,7.4,1.6c4.4,0.3,5.7-1.6,4.1-5.8c-0.2-0.5-0.4-1.1-0.6-1.6
		c4-1.8,12.4,0.2,15.9,3.8c-1,1-2,2-2.9,3.1c-1.4,1.8-1.3,3.4,0.7,4.4c2.6,1.3,5.3,2.4,8.1,3.2c1.6,0.3,2.9,1.5,3.2,3.1
		c1.3,4.5,2.1,9.1,2.3,13.7c-5.8,0.2-10.3,3.2-15,6.1c-2.8,1.8-5.7,3.6-8.6,5.1c-4.8,2.5-9.5,1.6-13.4-1.7
		c-5.4-4.7-10.5-9.7-15.3-14.9c-1.8-1.9-2.7-4.5-3.9-6.9C363.8,35.7,364,35,364.4,34.5z M445,113c-10.6,5.7-22.8,7.7-34.7,5.7
		c-0.4-0.1-0.8-0.2-1.1-0.3c-0.2-0.1-0.4-0.2-0.6-0.3c0.4-0.5,0.7-1,1-1.4c3.2-3.8,5.4-8.4,6.3-13.3c0.2-1.1,0.2-2.2,0-3.3
		c-0.2-1.6-1.3-3-2.9-3.5c-1.5-0.5-3.2,0.1-4.2,1.3c-1,1.1-1.8,2.3-2.5,3.6c-2.7,4.6-6.5,8.4-11,11.1c-0.9,0.6-2,0.7-2.9,0.1
		c-1.7-0.9-3.4-1.8-5.4-2.9l2.2-1.1c5.5-2.7,9.7-7.4,11.8-13.2c0.3-0.7,0.4-1.5,0.4-2.2c0.1-2.6-1.8-4-4.2-3.2
		c-1.3,0.5-2.6,1.2-3.8,1.9c-6,3.2-12.5,5.2-19.3,5.9c-1.2,0.2-2.4-0.2-3.1-1.2c-7.3-9.1-10.2-19.4-9.5-30.9
		c0.4-6.1,1.8-12.1,3.9-17.8c0.1-0.3,0.2-0.5,0.5-1c1.1,1.2,2.2,2.3,3.2,3.4c0.7,0.7,1.4,1.4,2.1,2.1c0,0-0.1,0-0.1,0l6,5.5V58
		c3.1,3,7,5.2,11.2,6.3c3,0.7,6.1,0.3,8.8-1.1c3.6-1.9,7-4.1,10.6-6.1c2.4-1.4,4.7-2.9,7.2-4c3.5-1.5,6.9-1.6,10.1,1
		c1.8,1.5,2.4,3.5,1.2,5.5c-1,2-2.4,3.7-4,5.2c-6.2,4.8-12.5,9.4-18.8,13.9c-5.9,4.2-12.6,4.4-19.5,3.4c-2.1-0.3-4.1-0.9-6.1-1.3
		c-1.1-0.2-2,0-2.1,1.1c0,0.8,0.4,1.5,1.1,2c8.1,2.4,16.4,3.5,24.4,0c6.3-2.8,11.6-7,17.1-11.2c2.4-1.8,2.3-1.8,4.9-0.2
		c0.6,0.4,1.3,0.8,2,1.2c-1.3,2.1-2.5,4.4-3.5,6.7c-1.3,3.4-2.3,7-3.3,10.5c-0.1,0.2-0.1,0.3-0.1,0.5c0,0.9,0.7,1.6,1.5,1.6
		c0.1,0,0.2,0,0.3,0c0.9,0,1.6-0.7,1.7-1.6c1.8-12.5,10.2-23.1,22-27.8c0.9-0.4,1.8-1,2.4-1.8c4.1-5.8,8.8-10.8,15.5-13.7
		c3.6-1.6,7.4-2.4,11.3-2.5c2.9,0,4.5,1,4.8,3c0.4,2.2-0.8,4-3.5,5c-7.2,2.6-13.6,11.4-13.6,18.5c0,1.2,0.1,2.4,0.5,3.6
		c2.2,5.5,1.6,11.1,0.7,16.7C460,102.5,453.5,108.5,445,113z M501.3,119.4c-2.6,3.7-5.8,6.9-9.5,9.6c-1,0.8-2,1-2.9-0.1
		c-0.9-1.1-0.4-2,0.6-2.8c3.6-2.7,6.8-6,9.3-9.7c1.9-2.9,2.8-6.4,2.7-9.9c-0.4-6.6-4.4-10.8-11-11.3c-6-0.5-11.7,0.9-17.3,2.6
		c-3.1,1-6.2,2.3-9.2,3.5l-1.6,0.6c0.6-1.7,1.1-3,1.7-4.3c0.2-0.3,0.5-0.6,0.8-0.7c7.9-3.2,15.9-5.6,24.6-5.4
		c8.7,0.2,14.2,4.8,15.6,13C506.1,109.8,504.4,114.8,501.3,119.4z"/>
	<g id="cat-face">
		<path class="st2" d="M377.6,20.2c1.5-5.2,3.1-10.4,6.8-14.4c2.8-3,5.5-2.6,7.4,0.9c1.1,2,1.8,4.2,2.8,6.6
			C387.9,13.7,382.9,17.1,377.6,20.2z"/>
		<path class="st2" d="M410.6,17.9c3-2.1,5.9-4,9.4-4.7c2.3-0.5,3.5,0.3,3.6,2.6c0.1,2.2,0,4.5-0.3,6.7c-0.3,1.9-0.6,3.8-1.1,5.6
			c-0.3,1.5-0.8,2.9-1.4,4.3C418.5,26.8,415.5,21.8,410.6,17.9z"/>
		<path class="st2" d="M397.6,50.7c-1.3-1.8-3.4-1.1-5.5-1s-4.2-2.6-3.8-4.6c0.1-0.4,0.6-0.7,1-1.1c0.3,0.4,0.9,0.8,0.9,1.1
			c-0.2,1.3,0.7,2.4,1.9,2.6c0,0,0.1,0,0.1,0c1.5,0.3,2.2-0.6,2.7-1.8c0.2-0.4,0.6-0.6,1.1-0.7c0.4,0.2,0.7,0.6,0.8,1
			c0,1.4,0.6,2.4,2,2.6s2.1-0.6,2.7-1.7c0.2-0.4,0.9-0.6,1.3-0.8c0.2,0.5,0.5,1.1,0.5,1.6C402.8,50.1,400.2,51.4,397.6,50.7z"/>
		<path class="st2" d="M391.7,35.6c-1.5-0.4-2.4-2.1-2-3.6c0.4-1.5,1.9-2.5,3.5-2.1c0.1,0,0.1,0,0.2,0.1c1.5,0.5,2.4,2,2.1,3.6
			C395,35.1,393.3,36,391.7,35.6C391.7,35.6,391.7,35.6,391.7,35.6z"/>
		<path class="st2" d="M406.3,36.2c-0.5,1.5-2,2.5-3.6,2.2c-1.6-0.4-2.5-2-2.2-3.5c0.3-1.6,1.8-2.6,3.4-2.3c0.1,0,0.1,0,0.2,0
			C405.7,33,406.7,34.6,406.3,36.2z"/>
		<path class="st2" d="M396.3,42.9c-1.8-0.4-2.8-1.5-2.6-2.7s1.8-1.7,3.5-1.3c0.3,0.1,0.6,0.2,0.9,0.4c1.1,0.5,2.2,1.4,1.5,2.6
			c-0.4,0.7-1.8,0.8-2.7,1.1C396.8,43.1,396.5,42.9,396.3,42.9z"/>
	</g>
</g>
<g id="fish">
	<g id="fish-fins">
		<path class="st1" d="M98,38.3c0.2-0.8,0.4-1.6,0.7-2.4c3.7-11.2,11-19.5,20.8-25.7c7.7-4.7,16.3-8,25.3-9.4
			c7.2-1.3,14.6-1,21.7,0.8c6,1.4,11,4.6,14.2,10c0.7,1.3,1.3,2.6,1.7,3.9c0.3,0.9,0.1,1.1-0.8,1c-1.6-0.2-3.2-0.6-4.8-0.9
			c-5.9-1-11.9-1.4-17.8-1.1c-6.6,0.3-13.2,1.3-19.6,3.1c-10.8,3.2-21.1,7.8-30.6,13.9c-3.2,2-6.3,4.2-9.5,6.3
			c-0.3,0.2-0.7,0.4-1,0.6L98,38.3z"/>
		<path class="st1" d="M173.2,74.4c-2.9,0.7-5.7,1.5-8.6,2.1c-4.9,1-9.9,0.7-14.6-0.9c-3.6-1.3-6.8-3.4-9.5-6.2
			c-0.8-0.8-0.9-1.2,0-1.9c1.8-1.4,3.7-2.7,5.7-3.9c2.5-1.5,5.3-2.7,8.2-3.4c3-0.6,6-0.7,9-0.3c2.1,0.2,4.1,0.6,6.2,1
			c1.2,0.1,2.1,1.1,2.1,2.2c0.4,2.9,0.8,5.7,1.2,8.6C172.9,72.6,173,73.4,173.2,74.4z"/>
		<path class="st1" d="M111.8,87.3c-1.1,4.1-8.7,7.8-16.6,8.1c0.2-1.7,0.3-3.4,0.6-5.1c0.6-3.4,2.1-6.5,4.3-9.1
			c0.5-0.5,0.8-0.7,1.4-0.2c2.9,1.9,5.9,3.8,8.8,5.7C110.8,86.8,111.2,87.1,111.8,87.3z"/>
	</g>
	<path id="fish-body" class="st2" d="M161,98.6c-1.2-0.1-2.4-0.2-3.6-0.3c-13.1-1-25.9-4.8-37.5-11C108.6,81.5,98.2,74,89.1,65.2
		c-1-0.9-2-1.8-3.1-2.8c-3.7,12.4-12.3,18-24.9,18.4C60.6,70.2,65.4,62.8,75,58.3c-9.3-4.8-14.6-11.8-13.8-22.5l3,0.3
		c3.1,0.2,6.1,1,9,2.2C78.9,41,83.3,46,85.2,52c0.2,0.7,0.4,1.4,0.7,2.2c0.7-0.6,1.4-1.2,2-1.8c7.2-6.8,15.1-12.9,23.4-18.1
		c10-6.3,21-11,32.6-13.9c7.8-1.9,15.9-2.6,23.9-2.1c5.2,0.4,10.4,1.3,15.4,2.7c0.3,0.1,0.6,0.2,1.1,0.4c-0.8,1.1-1.6,2.1-2.4,3.1
		c-4.1,5.2-6.6,11.2-8.2,17.5c-1.1,4.3-1.8,8.6-2.1,13c0,0,0,0.1,0,0.1c-0.1,2.1-0.2,2.1-2.2,1.7c-6.1-1.2-12.1-1.6-18.1,0.1
		c-5.7,1.6-10.5,4.9-14.8,8.9c-0.2,0.2-0.4,0.4-0.6,0.6c-1.2,1.4-1.2,2.1-0.2,3.5c2.2,3,5.2,5,8.3,6.8c5.5,3.3,12,4.6,18.4,3.8
		c3.8-0.4,7.5-1.2,11.1-2.5c0.3-0.1,0.6-0.2,1-0.3c2.2,6.5,5.6,12.5,10,17.6c-1.3,0.3-2.3,0.6-3.3,0.8c-5,1.1-10.1,1.9-15.2,2.2
		c-0.2,0-0.3,0.1-0.5,0.1L161,98.6z"/>
	<g id="fish-face">
		<path id="fish-face-bcg" class="st0" d="M234.5,58.2c-4.5,5.9-9.4,11.3-14.8,16.4c-0.9,0.9-1.8,1.8-2.7,2.6
			c-0.2,0.2-0.6,0.3-0.9,0.4c-2.6-0.2-5.1-0.8-7.5-1.9c-1.1-0.6-2.2-1.3-3.2-2.1c-0.7-0.6-1.6-0.8-2.5-0.5c-0.7,0.3-1.1,1-1,1.7
			c0.1,0.5,0.3,1,0.7,1.4c1.6,1.5,3.5,2.7,5.5,3.5c1.1,0.4,2.1,0.9,3.3,1.4c-0.3,0.4-0.6,0.7-1,1c-3.8,2.4-7.6,4.8-11.6,7
			c-2.4,1.3-4.9,2.3-7.4,3.5c-1.2,0.6-2.6,0.3-3.4-0.8c-4-4.3-6.9-9.4-8.7-15c-2.2-7.3-3.1-14.9-2.6-22.4c0.2-7,1.8-13.9,4.7-20.4
			c1.6-3.7,3.9-7,6.7-9.9c0.9-1.2,2.6-1.5,3.9-0.8c9.4,4.1,18.1,9.6,25.8,16.3c5.5,4.9,10.7,10.2,15.3,16c0.5,0.6,1,1.3,1.5,1.9
			L234.5,58.2z M201.3,58.3c4.7,0.5,8.9-2.9,9.4-7.6c0-0.1,0-0.3,0-0.4c0.2-5-3.6-9.2-8.6-9.4s-9.2,3.6-9.4,8.6
			c0,2.5,1.1,4.9,2.9,6.7C197,57.7,199.1,58.5,201.3,58.3z"/>
		<path id="fish-eye" class="st1" d="M201.3,54.7c-2.3,0-4.6-2.5-4.7-5s2.6-5.4,5-5.4c2.8,0.3,4.9,2.5,5.2,5.2
			C206.8,52.5,204.3,54.8,201.3,54.7C201.4,54.7,201.4,54.7,201.3,54.7z"/>
	</g>
</g>
</svg>
