<svg xmlns="http://www.w3.org/2000/svg" viewBox="0 0 578.9 595.73"><defs><style>.cls-1{fill:#434d9b;}.cls-2{fill:#bfc0e2;}.cls-3{fill:#273372;}.cls-4{fill:#daa757;}.cls-5{fill:#332f2c;}</style></defs><g id="cow"><path class="cls-1" d="M358.78,629.62c-2.12.19-4.11.45-6.1.52a6.16,6.16,0,0,1-5.45-2.85c-1.64-2.35-.85-5.3,1.92-5.92a17.51,17.51,0,0,1,6.28.17,69.19,69.19,0,0,1,6.86,1.74c-5.61-5.2-8.65-10.81-5.64-18,1.59-3.83,7.93-7.38,12.35-7.26a42.29,42.29,0,0,0-1.18,6.18,31.91,31.91,0,0,0,.37,7.94c.52,2.58,2,2.91,4.35,1.66,7.56-4,14.94-3.25,22.16.92,2.05,1.18,2.55,1.11,3.64-1,1.74-3.41,1.52-7,.78-10.59-.26-1.24-.66-2.44-1.1-4a25.94,25.94,0,0,1,3.78.27,12,12,0,0,1,8.84,16.06c-1.07,2.82-3.06,5.28-4.66,7.89a3.7,3.7,0,0,0-.81,1.76c1.27-.51,2.5-1.14,3.81-1.52a42.31,42.31,0,0,1,7.49-1.87,4.31,4.31,0,0,1,5,4,5.16,5.16,0,0,1-4.68,5.54c-2.32.17-4.68,0-7-.07-.45,0-.91-.09-1.83-.19.9,3.32,1.75,6.41,2.72,10,4.18-.73,8.32-1.36,12.43-2.2,15.64-3.21,31.4-5.36,47.42-5.06a45.76,45.76,0,0,1,15.14,2.68,27.68,27.68,0,0,1,15.49,13.56,5.22,5.22,0,0,0,1.85,1.94c5.57,3.23,9.8,7.57,12.08,13.71.8,2.15,2.22,4.07,2.93,6.23.44,1.32.08,2.91.08,4.38l-.52.09L516,674.56l-.75,2.51c-.66-1.12-1.39-1.86-1.54-2.71-.32-1.76-.29-3.59-.51-5.37a13.6,13.6,0,0,0-.86-4.32c-1.7-3.47-4.72-5.74-7.61-7.71.71,3.68,1.68,7.49,2.13,11.35a35,35,0,0,1-2,17.76,19.54,19.54,0,0,1-6.6,8.67,2.31,2.31,0,0,0-1,2.73q2.22,9,4.42,18.1c.46,1.88,1,3.76,1.26,5.67a6.93,6.93,0,0,1-.2,3.14c-1.6,4.86-9.83,7.28-13.87,4.18a7.21,7.21,0,0,1-2.69-5.39c-.48-4.71-1-9.42-1.53-14.26-2.15.85-3.17,1.83-2.51,4.26.7,2.58.15,3.08-2.38,3.57-.25,2.14-.5,4.33-.76,6.51a7,7,0,0,1-8.19,6.33c-2.89-.37-5.64-1.09-6.91-4a7.83,7.83,0,0,1-.69-4.2c.75-4,1.84-7.94,2.78-11.9.5-2.1,0-2.71-1.94-2.49a176.71,176.71,0,0,1-41.69,0,7.86,7.86,0,0,0-.92,0c.13,1.47.26,2.89.4,4.32.31,3.39.56,6.8,1,10.19.82,6.81-3.06,10.75-9.9,9.93a7.15,7.15,0,0,1-6.74-7.19c-.27-6.55-.48-13.11-.58-19.67,0-1.89-.88-2.61-2.71-2.85-.9,4.27-1.8,8.49-2.7,12.7-.37,1.77-.73,3.54-1.13,5.29-.77,3.38-2.91,5.31-6.34,5.26a14.15,14.15,0,0,1-5.22-1.11c-3.21-1.34-4.17-3.69-3.14-7,2.2-7.15,4.5-14.27,6.64-21.44a5.13,5.13,0,0,0-.22-3.14c-1.22-3-2.61-6-4-8.93a2.11,2.11,0,0,0-1.46-.92c-2.06-.27-4.17-.19-6.19-.61-9.9-2.05-16.14-8.51-20.19-17.33-4.89-10.66-4.76-21.5-.68-32.39.21-.56.4-1.14.58-1.71A4,4,0,0,0,358.78,629.62Zm50,33.54L401,675.27c.71,1.71,1.65,3.7,2.35,5.77,1.31,3.85-2.78,9.83-7.47,8.59a4.78,4.78,0,0,0-2.19-.09,4.11,4.11,0,0,0-2,1.07c-.16.16.37,1.17.75,1.66a27.78,27.78,0,0,0,9.83,7.48c.92.45,1.89.81,3.13,1.34V688.53c.55.24.76.52.79.82.29,2.66.72,5.31.79,8,.23,8.57.31,17.14.46,25.71.05,2.79,1.88,5.76,3.94,6.5,2.58.93,6.84.15,8.33-2a10.73,10.73,0,0,0,1.52-4.95c.16-1.7-.56-3.48-.42-5.18.24-2.79-1.35-4.19-3.44-5.3-.92-.5-2-.66-3-1.11-.51-.24-1.18-.72-1.27-1.2-.46-2.49,2.63-6.86,4.92-7.26.52-4.76,1-9.48,1.55-14.21l.64.06a6.63,6.63,0,0,1,.05,1.09,35.51,35.51,0,0,0,.93,14.29c.16.53.67,1.27,1.09,1.33a31.23,31.23,0,0,0,4,.06,9,9,0,0,0-.15-1.88c-1.08-3.74.56-6.33,3.49-8.38.82-.58,1.68-1.11,2.53-1.63,7.21-4.38,14.77-3.45,22.35-1.37,4.63,1.27,5.58,2.68,5.62,7.44,0,1.7,0,3.41,0,5.28a27.43,27.43,0,0,0,3.88-.39c5.84-1.44,11.64-3.06,17.5-4.42,1.61-.37,1.82-1.17,1.49-2.39-.52-1.93-1.21-3.82-1.76-5.74-.29-1-.45-2.07-.66-3.1l.82-.28a21.22,21.22,0,0,1,1.55,3.23c.78,2.63,1.34,5.31,2.06,8a4.9,4.9,0,0,0,3.71,4c3.38.89,5.06,4.37,4.17,7.8-.69,2.65-1.6,3.11-4.16,2.12a13,13,0,0,0-1.52-.36c.44,3.74.66,7.27,1.3,10.72.57,3.13,3,4.52,6.3,4,4.07-.62,6.62-2.85,6.28-6a82.47,82.47,0,0,0-1.8-9.43c-1.43-6.23-3.11-12.42-4.35-18.69-.46-2.3,0-4.78.1-7.44.54.32.62.34.63.38.26,1,.45,2.09.79,3.1a12.25,12.25,0,0,0,1,1.82,8.73,8.73,0,0,0,1.76-1.18c5.21-5.85,6-12.86,5.36-20.58-1.26.39-2.36.65-3.39,1-1.93.76-3.82,1.62-5.73,2.41-8.28,3.41-16.74,6-25.8,6.28-5.57.14-6.78-1.14-6.18-6.66l.06-.4c.35-4.06.95-8.12,1-12.18a71.4,71.4,0,0,0-1-11.39c-.62-3.87-1.68-7.68-2.6-11.51a2.09,2.09,0,0,0-2.66-1.73c-5.5.68-11,1.25-16.66,1.88A36.24,36.24,0,0,1,436,653c-4.15,6.59-9.35,12-16.72,15.08a5.22,5.22,0,0,1-5.94-.89C411.66,665.78,410,664.29,408.78,663.16Zm-49.32-1a31.7,31.7,0,0,0,11.42,14.38,20.92,20.92,0,0,0,21.18,1.91c5.83-2.54,9.9-7,13-12.39,1.31-2.32,1.26-2.63-.87-4.26a25.44,25.44,0,0,0-3.7-2.4c-3.46-1.76-7-3.42-10.46-5.1a22.46,22.46,0,0,0-12.32-2c-4.08.41-8.12,1-11.37,3.92C364.12,658.14,361.88,660,359.46,662.14Zm29.27,45.37c-1,3.62-2,7.07-2.93,10.53a3,3,0,0,0,.27,1.74c.82,2,3.94,3.5,6.83,3.3,2.51-.17,3.92-1.34,4.52-4.05,1.21-5.54,2.34-11.11,3.44-16.68.11-.58.05-1.53-.32-1.8-2.52-1.92-5.14-3.71-7.73-5.55-1.17,2.72-2.31,5.38.82,7.6a2.38,2.38,0,0,1,.62,1,5.29,5.29,0,0,1-1.32,5.16c-1.5,1.21-2.24-.41-3.29-.89ZM472.11,712a25.22,25.22,0,0,1-.05,3.5,2,2,0,0,1-1.06,1.41,2,2,0,0,1-1.69-.66,6.66,6.66,0,0,1-1-2.38c-.25-1-.35-2-.51-3a76.75,76.75,0,0,0-2.93,10.46c-.42,1.9-.13,3.85,1.74,4.71a17,17,0,0,0,6.06,1.61c2.25.11,3.88-1.39,4.52-3.6a26.22,26.22,0,0,0,.75-4.14c.3-2.55.51-5.11.76-7.67L478,712a4.65,4.65,0,0,0-.41,1.35c0,1.13.12,2.26.17,3.39a1.87,1.87,0,0,1-2,2.19c-1.49.06-2-.85-2-2.16s.17-2.67.24-4a2.5,2.5,0,0,0-.14-.63Zm-81.24-85.1.17,0a16.84,16.84,0,0,0-.9-3,1.65,1.65,0,0,0-3.19,0,9.26,9.26,0,0,0-.69,3.09c-.14,2.34,1,4.32,2.41,4.28,1.19,0,2.14-1.78,2.2-4Zm-13.51,0c0-2.53-1-4.43-2.21-4.41s-2.46,2.09-2.36,4.53,1.19,4.18,2.39,4.12S377.36,629.29,377.36,626.9Z" transform="translate(-2.45 -140.42)"/><path class="cls-2" d="M408.78,663.16c1.26,1.13,2.88,2.62,4.54,4.07a5.22,5.22,0,0,0,5.94.89c7.37-3.06,12.57-8.49,16.72-15.08a36.24,36.24,0,0,0,5.62-15.54c5.65-.63,11.16-1.2,16.66-1.88a2.09,2.09,0,0,1,2.66,1.73c.92,3.83,2,7.64,2.6,11.51a71.4,71.4,0,0,1,1,11.39c0,4.06-.62,8.12-1,12.18l-.06.4c-.6,5.52.61,6.8,6.18,6.66,9.06-.24,17.52-2.87,25.8-6.28,1.91-.79,3.8-1.65,5.73-2.41,1-.4,2.13-.66,3.39-1,.66,7.72-.15,14.73-5.36,20.58a8.73,8.73,0,0,1-1.76,1.18,12.25,12.25,0,0,1-1-1.82c-.34-1-.53-2.06-.79-3.1,0,0-.09-.06-.63-.38-.07,2.66-.56,5.14-.1,7.44,1.24,6.27,2.92,12.46,4.35,18.69a82.47,82.47,0,0,1,1.8,9.43c.34,3.12-2.21,5.35-6.28,6-3.26.5-5.73-.89-6.3-4-.64-3.45-.86-7-1.3-10.72a13,13,0,0,1,1.52.36c2.56,1,3.47.53,4.16-2.12.89-3.43-.79-6.91-4.17-7.8a4.9,4.9,0,0,1-3.71-4c-.72-2.64-1.28-5.32-2.06-8a21.22,21.22,0,0,0-1.55-3.23l-.82.28c.21,1,.37,2.09.66,3.1.55,1.92,1.24,3.81,1.76,5.74.33,1.22.12,2-1.49,2.39-5.86,1.36-11.66,3-17.5,4.42a27.43,27.43,0,0,1-3.88.39c0-1.87,0-3.58,0-5.28,0-4.76-1-6.17-5.62-7.44-7.58-2.08-15.14-3-22.35,1.37-.85.52-1.71,1-2.53,1.63-2.93,2.05-4.57,4.64-3.49,8.38a9,9,0,0,1,.15,1.88,31.23,31.23,0,0,1-4-.06c-.42-.06-.93-.8-1.09-1.33a35.51,35.51,0,0,1-.93-14.29,6.63,6.63,0,0,0-.05-1.09l-.64-.06c-.51,4.73-1,9.45-1.55,14.21-2.29.4-5.38,4.77-4.92,7.26.09.48.76,1,1.27,1.2,1,.45,2.07.61,3,1.11,2.09,1.11,3.68,2.51,3.44,5.3-.14,1.7.58,3.48.42,5.18a10.73,10.73,0,0,1-1.52,4.95c-1.49,2.15-5.75,2.93-8.33,2-2.06-.74-3.89-3.71-3.94-6.5-.15-8.57-.23-17.14-.46-25.71-.07-2.66-.5-5.31-.79-8,0-.3-.24-.58-.79-.82v12.56c-1.24-.53-2.21-.89-3.13-1.34a27.78,27.78,0,0,1-9.83-7.48c-.38-.49-.91-1.5-.75-1.66a4.11,4.11,0,0,1,2-1.07,4.78,4.78,0,0,1,2.19.09c4.69,1.24,8.78-4.74,7.47-8.59-.7-2.07-1.64-4.06-2.35-5.77Zm36.12-3.67h-1.35c-4.6-.06-7.71,1.72-9.07,6.45-.56,1.95-2.27,3.54-3.35,5.36a47.54,47.54,0,0,0-3.22,6.06,2.76,2.76,0,0,0,1.12,2.35c3.43,2.07,6.94,4,10.49,5.86,3.09,1.6,4.94,1.29,7.43-1.12a28.38,28.38,0,0,0,7.29-12.5C455.64,667.31,451.67,658.45,444.9,659.49Z" transform="translate(-2.45 -140.42)"/><path class="cls-2" d="M359.46,662.14c2.42-2.1,4.66-4,6.85-5.95,3.25-2.89,7.29-3.51,11.37-3.92a22.46,22.46,0,0,1,12.32,2c3.49,1.68,7,3.34,10.46,5.1a25.44,25.44,0,0,1,3.7,2.4c2.13,1.63,2.18,1.94.87,4.26-3.07,5.43-7.14,9.85-13,12.39a20.92,20.92,0,0,1-21.18-1.91A31.7,31.7,0,0,1,359.46,662.14Zm27.42,2.92c2.78,0,4.9-1.33,5-3.07s-1.86-3.3-4.61-3.59-5.29,1.28-5.37,3.09S384.19,665.09,386.88,665.06ZM374,664.74c2.78,0,4.85-1.45,4.85-3.34s-2.36-3.77-4.94-3.56a5.35,5.35,0,0,0-2.06.62c-1.27.7-2.33,1.68-2,3.31a3.58,3.58,0,0,0,3.17,2.89A5.91,5.91,0,0,0,374,664.74Z" transform="translate(-2.45 -140.42)"/><path class="cls-2" d="M388.73,707.51l.91.38c1.05.48,1.79,2.1,3.29.89a5.29,5.29,0,0,0,1.32-5.16,2.38,2.38,0,0,0-.62-1c-3.13-2.22-2-4.88-.82-7.6,2.59,1.84,5.21,3.63,7.73,5.55.37.27.43,1.22.32,1.8-1.1,5.57-2.23,11.14-3.44,16.68-.6,2.71-2,3.88-4.52,4.05-2.89.2-6-1.27-6.83-3.3a3,3,0,0,1-.27-1.74C386.71,714.58,387.71,711.13,388.73,707.51Z" transform="translate(-2.45 -140.42)"/><path class="cls-2" d="M472.11,712l1.68.18a2.5,2.5,0,0,1,.14.63c-.07,1.33-.22,2.66-.24,4s.52,2.22,2,2.16a1.87,1.87,0,0,0,2-2.19c-.05-1.13-.17-2.26-.17-3.39A4.65,4.65,0,0,1,478,712l.78.18c-.25,2.56-.46,5.12-.76,7.67a26.22,26.22,0,0,1-.75,4.14c-.64,2.21-2.27,3.71-4.52,3.6a17,17,0,0,1-6.06-1.61c-1.87-.86-2.16-2.81-1.74-4.71a76.75,76.75,0,0,1,2.93-10.46c.16,1,.26,2,.51,3a6.66,6.66,0,0,0,1,2.38,2,2,0,0,0,1.69.66,2,2,0,0,0,1.06-1.41A25.22,25.22,0,0,0,472.11,712Z" transform="translate(-2.45 -140.42)"/><path class="cls-2" d="M390.87,626.88v.2c-.06,2.27-1,4-2.2,4-1.37,0-2.55-1.94-2.41-4.28a9.26,9.26,0,0,1,.69-3.09,1.65,1.65,0,0,1,3.19,0,16.84,16.84,0,0,1,.9,3Z" transform="translate(-2.45 -140.42)"/><path class="cls-2" d="M377.36,626.9c0,2.39-.91,4.17-2.18,4.24s-2.3-1.83-2.39-4.12,1-4.5,2.36-4.53S377.35,624.37,377.36,626.9Z" transform="translate(-2.45 -140.42)"/><path class="cls-1" d="M444.9,659.49c6.77-1,10.74,7.82,9.34,12.46a28.38,28.38,0,0,1-7.29,12.5c-2.49,2.41-4.34,2.72-7.43,1.12-3.55-1.84-7.06-3.79-10.49-5.86a2.76,2.76,0,0,1-1.12-2.35,47.54,47.54,0,0,1,3.22-6.06c1.08-1.82,2.79-3.41,3.35-5.36,1.36-4.73,4.47-6.51,9.07-6.45Z" transform="translate(-2.45 -140.42)"/><path class="cls-1" d="M386.88,665.06c-2.69,0-5.1-1.69-5-3.57s2.77-3.36,5.37-3.09,4.67,1.79,4.61,3.59S389.66,665,386.88,665.06Z" transform="translate(-2.45 -140.42)"/><path class="cls-1" d="M374,664.74a5.91,5.91,0,0,1-1-.08,3.58,3.58,0,0,1-3.17-2.89c-.3-1.63.76-2.61,2-3.31a5.35,5.35,0,0,1,2.06-.62c2.58-.21,4.94,1.54,4.94,3.56S376.8,664.77,374,664.74Z" transform="translate(-2.45 -140.42)"/></g><g id="bird"><g id="bird-2" data-name="bird"><g id="body"><path class="cls-2" d="M64.48,446.18c.1,6.25-6.39,10.46-19.17,18.73-1.49,1-14.52,9.31-23,10.14a39.82,39.82,0,0,0-7.74.86c-2.51.6-3.92,1.29-6,.85-1.3-.27-3.76-1.18-4.05-2.74-.35-1.94,2.83-3.66,7.92-7.39,3.23-2.37,6.16-5.11,9.32-7.56l3.42-2.69c.92-.73,1.72-1.37,2.43-1.95,5.19-4.21,5.61-4.92,10.15-8.25,2-1.46,3.81-2.78,5.46-3.95l1.79.14.58,0,.71,0c1,.05,2.09.07,3.13.07,1.56,0,3.1-.05,4.63-.15l.13,0,1.29-.1.54-.05.85-.1,1.2-.15.17,0,.2,0c1.18-.16,2.34-.37,3.49-.6l.37-.08L63,441A10.94,10.94,0,0,1,64.48,446.18Z" transform="translate(-2.45 -140.42)"/><path class="cls-2" d="M125.56,342a23.11,23.11,0,0,1,7.79,6.65c5.47,7.4,4.44,15.72,4.12,18.32-.46,3.72-1.08,8.75-4.58,10.77-1.33.77-2.53.78-3.44,2.06-1.37,1.94-.47,4.47,0,7.11.32,1.76.06,4.92-.46,11.22A62.43,62.43,0,0,1,124.64,417a50,50,0,0,1-12.14,18.1A51.15,51.15,0,0,1,90.05,447c-5.26,1.29-19.27,3.84-21.31-.46-1.89-4,10.28-7.62,17.18-19.93,11.91-21.23,2.42-57.68,7.11-71a24.81,24.81,0,0,1,3-5.73,24.18,24.18,0,0,1,9.17-7.33c2.71-1.35,6.63-3.31,11.91-3A20.66,20.66,0,0,1,125.56,342Z" transform="translate(-2.45 -140.42)"/><path class="cls-3" d="M26.58,442c.68,1.75,3.49,2.17,6.88,2.54,14.13,1.55,21.19,2.33,28.41.69,5.55-1.26,18.39-4.16,28.41-15.69,7.4-8.51,9.63-17.55,10.76-22.38a59.73,59.73,0,0,0,0-26.3c-1.67-8.72-5.53-19.87-8.7-19.61-.93.07-1.26,1.08-4.58,6-1.48,2.18-3.09,4.28-4.59,6.46-4,5.8-9,11.75-12.14,15.45C48.8,415.76,51,417.59,39.87,427.51,32.49,434.11,25.35,438.83,26.58,442Z" transform="translate(-2.45 -140.42)"/><polygon class="cls-1" points="149.95 221.8 133.68 230.41 134.35 212.01 149.95 221.8"/><path class="cls-1" d="M155.06,361.15l-17.75-10.28a25,25,0,0,0-47.07,9.21L24.58,440.49a2.42,2.42,0,0,0,1.11,3.81,80.94,80.94,0,0,0,8.9,2.4L28.37,452a2.4,2.4,0,0,0-.31,3.35s0,0,0,0a2.42,2.42,0,0,0,3.4.28l9.34-7.93c1,.12,2.05.22,3.08.3l1,.07.21,0a68.24,68.24,0,0,0,12.25-.34l.9-.12.25,0,1.79.35A67.3,67.3,0,0,1,8.65,475l16.83-14.28a2.42,2.42,0,0,0,.28-3.4l-.07-.06a2.39,2.39,0,0,0-3.33-.21L3.88,472.76a4,4,0,0,0,2.62,7.12,71.76,71.76,0,0,0,59.07-31,90.3,90.3,0,0,0,12.68,1c2.09,0,4.12-.1,6.1-.27v12.78l-8.53,6.07a2.41,2.41,0,0,0,2.79,3.93l7.44-5.3,3.33,5.43a2.41,2.41,0,0,0,4.1-2.52l-1.37-2.23,5.75,1.73,3.72,5.4a2.41,2.41,0,0,0,2,1.05,2.41,2.41,0,0,0,2-3.77l-4.2-6.1a2.42,2.42,0,0,0-1.28-.94l-7.85-2.37,7-5,3.32,5.42a2.41,2.41,0,0,0,2,1.15,2.4,2.4,0,0,0,2.05-3.66l-1.36-2.23,5.74,1.74,3.73,5.4a2.39,2.39,0,0,0,2,1,2.35,2.35,0,0,0,1.36-.42,2.4,2.4,0,0,0,.62-3.35l-4.2-6.09a2.31,2.31,0,0,0-1.29-.94l-10.89-3.3V445a44,44,0,0,0,7.62-4.51c15.52-11.45,20.34-30.91,21.65-45.21a2.41,2.41,0,1,0-4.79-.44c-1.22,13.32-5.64,31.38-19.72,41.77-9.19,6.78-21.41,9.47-36.45,8A53,53,0,0,0,78.56,441l0,0c.46-.25.9-.52,1.35-.78l.25-.16c.37-.22.74-.46,1.11-.7l.35-.22,1-.69.36-.25c.36-.25.72-.52,1.08-.79l.24-.17c.42-.33.84-.65,1.25-1,.15-.11.29-.23.43-.35s.54-.44.8-.68.35-.3.52-.45l.69-.61.52-.49c.22-.21.44-.42.65-.64s.34-.33.51-.49l.66-.69c.15-.16.31-.32.45-.48s.48-.52.72-.79l.37-.41c.35-.41.71-.82,1-1.24s.47-.58.7-.88l.18-.24c.17-.21.34-.43.5-.66l.19-.26.48-.66.17-.24.48-.69.14-.22c.16-.24.33-.49.48-.74l.12-.18.49-.79.09-.14.5-.85a.31.31,0,0,0,0-.1c.18-.3.35-.6.52-.92l0,0a51.67,51.67,0,0,0,3.88-9.1c3.17-9.72,3.44-20.68.79-31.85A76,76,0,0,0,95,360.66a.05.05,0,0,1,0,0,20.22,20.22,0,0,1,38.28-7l0,0c.25.52.49,1.06.69,1.6l0,.09c.09.23.17.46.25.69a2.25,2.25,0,0,0,.08.24c.07.2.13.4.19.6l.09.35c.05.18.1.35.14.53s.07.3.1.45.07.3.1.45.07.39.1.58l.06.35c.05.31.09.63.12.94h0c0,.31.05.62.07.92a1.7,1.7,0,0,1,0,.22c0,.28,0,.57,0,.85v.3c0,.21,0,.42,0,.62s0,.32,0,.48,0,.37-.05.55,0,.27,0,.41l-.09.7c0,.13,0,.26-.07.4s-.06.37-.1.56l-.09.41c-.05.22-.1.44-.16.67l-.06.25c-.08.28-.16.55-.25.83a20.15,20.15,0,0,1-6.48,9.52,2.46,2.46,0,0,0-.88,2c.1,1.48.2,3.89.16,6.92a2.4,2.4,0,0,0,2.37,2.44h0a2.41,2.41,0,0,0,2.4-2.37c0-2.48,0-4.55-.1-6.09a25,25,0,0,0,6.64-9.73c5.89-2.05,16-5.89,16.13-5.92a2.41,2.41,0,0,0,.35-4.34ZM89.16,449a54.06,54.06,0,0,0,8.36-2.07V453l-8.36,6ZM95,371.81c.21.53.41,1,.6,1.56l.1.26c6.66,18.25,4.86,37.09-5.3,50.71l-.05.07c-.37.49-.75,1-1.13,1.45l-.81,1c-.09.09-.17.19-.26.29l-.59.66-.29.31-.61.65-.26.26-.83.83-.06.05-1,.89-.13.11-.82.73-.24.2-.75.62-.25.2-.83.65-.18.14c-.34.26-.68.51-1,.76l-.14.1-.87.59-.4.27-.61.39-.52.32-.49.3-.61.37-.25.13a49.46,49.46,0,0,1-11,4.59h0c-.9.26-1.81.49-2.73.7h0l-.73.17-.36.08c-1.13.23-2.26.43-3.42.6l-.19,0-.16,0-1.18.15-.83.09-.53.06-1.26.1H53.9c-1.49.11-3,.16-4.53.16-1,0-2,0-3-.07l-.7,0-.57,0c-.58,0-1.16-.08-1.74-.14-1-.08-1.93-.19-2.9-.33h0a71,71,0,0,1-9.79-2L92.11,365.4c0,.08.09.16.12.23l.25.49c.42.86.83,1.71,1.22,2.58.07.13.13.26.19.39s0,0,0,.06c.16.35.31.71.46,1.07l.27.62C94.77,371.16,94.91,371.49,95,371.81Zm45-6a23.56,23.56,0,0,0,.14-5v0q0-.37-.06-.75-.06-.59-.15-1.17c0-.14,0-.29-.07-.44s-.06-.39-.1-.58l8.49,4.92C145.78,363.69,142.72,364.82,140,365.8Z" transform="translate(-2.45 -140.42)"/></g><circle id="eye" class="cls-1" cx="120.23" cy="215.85" r="3.61"/></g></g><g id="dog"><path class="cls-3" d="M539.47,434.55,537.76,436a11.51,11.51,0,0,0-4.38,7.84q-2.05,18.74-4.22,37.44c-.15,1.29.13,1.64,1.42,1.76a5.13,5.13,0,0,1,4.57,3.8c.17.72.08,1.08-.75,1.08-3.54,0-7.09,0-10.63,0-.72,0-1-.26-1-1,0-.4,0-.8,0-1.2V446.1c0-2,0-2.05-1.76-1.13q-12.25,6.48-24.49,13a10.53,10.53,0,0,0-1,.65c-3,1.54-5.94,3.09-8.93,4.62-9.23,4.74-18.85,8.6-28.29,12.89-3.72,1.69-7.39,3.52-11.26,4.86-.36,0-.69,0-.83.41l-.6.27-.43.21-.51.15c-.53,0-1.12-.2-1.23.61a6.49,6.49,0,0,1-2.4,1.07,1.35,1.35,0,0,0-1-.47c0-.13,0-.2.16-.21a.67.67,0,0,0,.49-.7c4.09-5.77,8.17-11.55,12.29-17.3q38.21-53.22,76.4-106.46c4.06-5.66,7.82-11.52,11.73-17.29.28-.41.44-.94,1-1.15,2.8,4.9,1.35,12.31-3.38,17.34a33.36,33.36,0,0,0-4.23,4.42c-9.82,11.39-12.44,23.93-6.16,38,2.67,6,6.15,11.46,9.12,17.25,2.8,5.45,4.9,11,2.29,17.15l0,0C539.53,434.2,539.45,434.33,539.47,434.55Z" transform="translate(-2.45 -140.42)"/><path class="cls-2" d="M539.75,434.23c2.61-6.17.51-11.7-2.29-17.15-3-5.79-6.45-11.29-9.12-17.25-6.28-14-3.66-26.57,6.16-38a33.36,33.36,0,0,1,4.23-4.42c.53.65,1.27.39,1.92.39,6.83,0,13.66,0,20.5,0,.56,0,1.13.07,1.69.1-.68,6.2-3.33,9.11-9.43,10.39-1.17.25-2.34.51-3.48.84a7,7,0,0,0-4.26,10c1,3.81,1.1,7.74,1.52,11.63.69,6.45,1.69,12.88,2,19.37s-.62,12.52-4,18.09C543.78,430.6,542.26,432.89,539.75,434.23Zm8.72-73a1.47,1.47,0,1,0-2.93.12,1.47,1.47,0,1,0,2.93-.12Z" transform="translate(-2.45 -140.42)"/><path class="cls-3" d="M440.07,483.22a1.35,1.35,0,0,1,1,.47c-.21.34-.85.31-.87,1h2.08c17.06,0,34.12,0,51.17,0a25,25,0,0,1,13.4,3.39,23.5,23.5,0,0,1,9.57,12.12c.4,1.18.3,1.58-1.08,1.58-18.38,0-36.75,0-55.13-.06a22.45,22.45,0,0,1-20.88-15.49A2.43,2.43,0,0,1,440.07,483.22Z" transform="translate(-2.45 -140.42)"/><path class="cls-2" d="M506.84,488.08a25,25,0,0,0-13.4-3.39c-17.05.06-34.11,0-51.17,0h-2.08c0-.71.66-.68.87-1a6.49,6.49,0,0,0,2.4-1.07,1.65,1.65,0,0,0,1.23-.61l.51-.15.43-.21.6-.27a1,1,0,0,0,.83-.41c3.87-1.34,7.54-3.17,11.26-4.86,9.44-4.29,19.06-8.15,28.29-12.89,3-1.53,5.95-3.08,8.93-4.62a34.78,34.78,0,0,1,3.66,3.82,15.44,15.44,0,0,1,2.88,8.64c.05,2.23,0,4.46,0,6.69s0,2.33,2.29,2.39a9.71,9.71,0,0,1,8.76,6.08c.47,1.15.35,1.64-1.07,1.64C510.34,487.86,508.56,487.55,506.84,488.08Z" transform="translate(-2.45 -140.42)"/><path class="cls-3" d="M545.67,379.18a7,7,0,0,1,4.26-10c1.14-.33,2.31-.59,3.48-.84,6.1-1.28,8.75-4.19,9.43-10.39q8.82,0,17.65-.11c.82,0,1,.32.74,1-2.38,5.87-5.21,11.44-10.44,15.38-2.6,1.94-5.54,2-8.52,1.43-2.64-.49-5.23-1.21-7.85-1.74-4.73-1-6.64.11-8.26,4.59C546.06,378.84,546,379.08,545.67,379.18Z" transform="translate(-2.45 -140.42)"/><path class="cls-4" d="M539.47,434.55c0-.22.06-.35.3-.34C539.81,434.45,539.68,434.54,539.47,434.55Z" transform="translate(-2.45 -140.42)"/><path class="cls-5" d="M548.47,361.28a1.47,1.47,0,1,1-2.93.12,1.47,1.47,0,1,1,2.93-.12Z" transform="translate(-2.45 -140.42)"/></g><g id="box"><path class="cls-2" d="M298,345.47c7.07,2.79,14.13,5.61,21.21,8.37q21.4,8.37,42.83,16.71c.46.18.9.44,1.62.79L351,377.18q-25.89,11.94-51.77,23.89a3.14,3.14,0,0,1-3,.12q-31.77-14.71-63.57-29.33c-.26-.12-.5-.27-1.12-.61,2.14-.85,4-1.59,5.83-2.31l58.52-22.84a6.2,6.2,0,0,0,1-.63Z" transform="translate(-2.45 -140.42)"/><path class="cls-1" d="M300.11,496.42v-24.1c0-21.3,0-42.59,0-63.89a3,3,0,0,1,2.05-3.26q31.2-14.28,62.34-28.7c.46-.21,1-.39,1.64-.66,0,.71.1,1.25.1,1.8q0,41,.05,82a2.6,2.6,0,0,1-1.67,2.66q-31.18,16.53-62.31,33.13C301.67,495.69,301,496,300.11,496.42Z" transform="translate(-2.45 -140.42)"/><path class="cls-3" d="M229.16,375.76c3.38,1.54,6.62,3,9.84,4.48q27.25,12.57,54.51,25.14a2.3,2.3,0,0,1,1.67,2.43q-.07,43.17-.05,86.35v2.16c-.67-.28-1.15-.43-1.59-.66Q261.92,478.85,230.29,462a2.12,2.12,0,0,1-1.26-2.2q0-41.25,0-82.49C229.05,376.9,229.11,376.45,229.16,375.76Z" transform="translate(-2.45 -140.42)"/></g><g id="monkey"><path class="cls-1" d="M132.21,669.41c-1.31-2.69-2.53-5.29-3.85-7.83a1.7,1.7,0,0,0-1.22-.66,13.86,13.86,0,0,1-12.3-10.83c-1-5-1.08-10,1.69-14.6a11.5,11.5,0,0,1,8.87-6,2.31,2.31,0,0,0,2.31-2c3.21-10.78,8.7-20.12,17.88-26.91,7.47-5.53,16-8.06,25.22-8.6,10.17-.6,19.86,1.25,28.68,6.5,10.15,6,16.29,15.28,20.26,26.16a8,8,0,0,1,.22.84c.47,2,1.3,3.13,3.79,3.48,5.91.85,10,5.81,10.41,12a28.74,28.74,0,0,1,0,7.18c-.92,4.83-3.32,8.8-8.2,10.68-1.54.6-3.19.93-4.77,1.44a1.81,1.81,0,0,0-1,.73c-1.63,3.26-3.21,6.55-4.91,10.05h1.84c8-.15,18.64,8,17.83,18.06a14.69,14.69,0,0,1-6.1,11.3c-5.65,4-12.05,6.67-18.61,8.78a8.61,8.61,0,0,1-8.86-2.3,3.83,3.83,0,0,1-1.07-4.38c.62-1.66,2.09-1.53,3.5-1.48a7.93,7.93,0,0,0,1.95,0,12.15,12.15,0,0,0,2-.84c-.59-.64-1.17-1.29-1.77-1.92-.08-.08-.29,0-.42-.07-.83-.34-1.65-.7-2.48-1.05.82-.83,1.52-2.18,2.46-2.38a45.11,45.11,0,0,1,6.9-.5,35.17,35.17,0,0,0,4.12-.13c3.64-.62,4.85-3.27,3.14-6.6a7.77,7.77,0,0,0-5.82-4.17c-7.37-1.31-13.8.31-15.53,8.16a23.65,23.65,0,0,0,.2,10.78,91.19,91.19,0,0,1,1.88,9.36,12.41,12.41,0,0,1-2.62,9c-.67.94-1.3,1.93-1.88,2.93-1.74,3-1.58,3.88,1,6.14,2.2,1.93,2,4.41-.71,5.5a10.12,10.12,0,0,1-10.5-1.29c-3.13-2.41-4.37-7.23-3.07-11.1.47-1.37,1.19-2.66,1.6-4,1.34-4.55-.1-7.51-4.72-8.54a21.06,21.06,0,0,0-8.37-.13c-5.13,1-7.1,4.65-5.91,9.79a55.31,55.31,0,0,1,1.66,7.63c.35,4-2.71,5.95-5.67,7.5s-6.12,1-8.8-1c-1.83-1.4-1.7-3.33.08-5,3.39-3.24,3.41-3.7.1-6.94-2.3-2.26-4.79-4.38-4.16-8.44-2.57.69-4.71,1.3-6.86,1.83-9.85,2.43-19.69,2.93-29.44-.42a29.46,29.46,0,0,1-5.26-2.58c-9.49-5.61-9.35-19.68-.07-25.84,3.38-2.24,8-2.38,10.95-.37s4.33,6.29,3.4,10.38c-.38,1.65-1,3.17-3.1,3s-2.25-1.76-2.27-3.37-.13-3.34-2-3.91a4.58,4.58,0,0,0-4.93,1.45c-2.87,3.1-2.49,8.57.89,11.57s7.4,4,11.61,4.51a41.89,41.89,0,0,0,27.74-6.12,3.68,3.68,0,0,0,2-4.15c-.5-2.7-1-5.42-1.54-8.11s-2.65-3.54-5.28-3.88a80.63,80.63,0,0,1-26.61-7.85,42.7,42.7,0,0,1-14-11.28c-3.21-4-4.9-8.86-6-13.87-3-13.8,1.13-26.09,8.15-37.75,3.3-5.47,6.56-11,9.73-16.49a13.93,13.93,0,0,0,1.56-4.28c1.9-10,14.52-16,23.69-12.64a24.47,24.47,0,0,1,5.44,2.65,4.78,4.78,0,0,1,1.81,6,5.07,5.07,0,0,1-4.92,3.63,38.79,38.79,0,0,1-6.21-.92,5.46,5.46,0,0,0-5.5,1.85,2.88,2.88,0,0,0-.6,2.49c.31.64,1.47,1,2.32,1.22.57.13,1.29-.42,1.89-.33,1.18.18,3,.27,3.32,1s-.11,2.59-.84,3.39a22.2,22.2,0,0,1-4.49,3.38c-11.28,7.29-18.55,17.62-22.38,30.33-2.24,7.46-.8,14.82,3.16,21.37,1.55,2.57,4.37,4.61,7,6.22A24,24,0,0,0,132.21,669.41Zm39.48,10.06c4.48-.42,9-.51,13.42-1.34,7.47-1.41,14.42-4.1,19.13-10.6,2.87-3.95,4.63-8.22,3-13.23-.62-1.93-1.6-3.86-1.64-5.81a112.21,112.21,0,0,1,.65-11.27c.23-2.88,1.06-5.8.8-8.63-.86-9.4-8.8-17-19.13-13.29a38.13,38.13,0,0,0-6,3.05,14.33,14.33,0,0,1-15.12,0c-1.52-.86-3.07-1.67-4.65-2.39-5-2.29-10.12-2.75-14.64.77a16,16,0,0,0-6.38,15.56c.35,2.59,1.29,5.13,1.39,7.71.13,3.58.52,7.46-.6,10.73-2.83,8.23-1,15.68,6,20.89S163.06,678.88,171.69,679.47Zm1.37,24.19,0,.16c2.73-.33,5.48-.59,8.21-1a4.08,4.08,0,0,0,3.66-2.68c1.51-4.57-2-11.76-6.55-13.37-7.72-2.74-14.6,2.42-14.18,10.64a6.18,6.18,0,0,0,6.22,6.25C171.31,703.7,172.19,703.66,173.06,703.66Zm49.33-50.19c3.32-.13,6-4.27,6.31-9.11.26-3.57-2.42-8.08-6.31-8.08Zm-96.57.36V637.21c-3.88.53-5.88,3.59-5.71,8.35S122.62,653.59,125.82,653.83Z" transform="translate(-2.45 -140.42)"/><path class="cls-2" d="M171.69,679.47c-8.63-.59-16.7-2.56-23.74-7.8s-8.85-12.66-6-20.89c1.12-3.27.73-7.15.6-10.73-.1-2.58-1-5.12-1.39-7.71a16,16,0,0,1,6.38-15.56c4.52-3.52,9.63-3.06,14.64-.77,1.58.72,3.13,1.53,4.65,2.39a14.33,14.33,0,0,0,15.12,0,38.13,38.13,0,0,1,6-3.05c10.33-3.73,18.27,3.89,19.13,13.29.26,2.83-.57,5.75-.8,8.63a112.21,112.21,0,0,0-.65,11.27c0,2,1,3.88,1.64,5.81,1.61,5-.15,9.28-3,13.23-4.71,6.5-11.66,9.19-19.13,10.6C180.71,679,176.17,679.05,171.69,679.47ZM168,662.82c0,.87,0,1.75,0,2.62.08,2.71,2.41,5.77,4.84,6.37s5-.7,6.55-3.26c1.82-3,1.33-10.16-.9-12.93-2.42-3-6-2.85-8.48.09C168.22,657.87,167.94,660.24,168,662.82Zm-15.53-26.15a24.38,24.38,0,0,0,1.46,4.15c2.28,4,7,4.14,9.58.32a8.12,8.12,0,0,0,.93-7.08c-.76-2.59-2.62-4.48-4.81-4.74a5.72,5.72,0,0,0-6.08,3.61A25.94,25.94,0,0,0,152.48,636.67Zm37-7.39c-3.55,0-6,3.25-5.85,7.74.12,3.79,2.52,6.71,5.65,6.89,2.82.16,5.75-2.43,6.14-6a11.88,11.88,0,0,0-.87-5.23A5.14,5.14,0,0,0,189.46,629.28Zm-15,15v-.08a8.21,8.21,0,0,0-3,.33,4.24,4.24,0,0,0-2.19,2.29,3.61,3.61,0,0,0,1.19,2.68c1.73,1.7,3.92,1.25,5.92.63,1.68-.52,3-1.79,2.67-3.71s-2-2.08-3.53-2.14C175.22,644.29,174.86,644.31,174.5,644.31Z" transform="translate(-2.45 -140.42)"/><path class="cls-2" d="M173.06,703.66c-.87,0-1.75,0-2.62,0a6.18,6.18,0,0,1-6.22-6.25c-.42-8.22,6.46-13.38,14.18-10.64,4.55,1.61,8.06,8.8,6.55,13.37a4.08,4.08,0,0,1-3.66,2.68c-2.73.41-5.48.67-8.21,1Z" transform="translate(-2.45 -140.42)"/><path class="cls-3" d="M222.39,653.47V636.28c3.89,0,6.57,4.51,6.31,8.08C228.36,649.2,225.71,653.34,222.39,653.47Z" transform="translate(-2.45 -140.42)"/><path class="cls-3" d="M125.82,653.83c-3.2-.24-5.56-3.65-5.71-8.27s1.83-7.82,5.71-8.35Z" transform="translate(-2.45 -140.42)"/><path class="cls-3" d="M168,662.82c-.07-2.58.21-5,2-7.11,2.47-2.94,6.06-3.11,8.48-.09,2.23,2.77,2.72,9.88.9,12.93-1.53,2.56-4.13,3.85-6.55,3.26s-4.76-3.66-4.84-6.37C168,664.57,168,663.69,168,662.82Z" transform="translate(-2.45 -140.42)"/><path class="cls-3" d="M152.48,636.67a25.94,25.94,0,0,1,1.08-3.74,5.72,5.72,0,0,1,6.08-3.61c2.19.26,4.05,2.15,4.81,4.74a8.12,8.12,0,0,1-.93,7.08c-2.57,3.82-7.3,3.68-9.58-.32A24.38,24.38,0,0,1,152.48,636.67Z" transform="translate(-2.45 -140.42)"/><path class="cls-3" d="M189.46,629.28a5.14,5.14,0,0,1,5.07,3.43,11.88,11.88,0,0,1,.87,5.23c-.39,3.54-3.32,6.13-6.14,6-3.13-.18-5.53-3.1-5.65-6.89C183.46,632.53,185.91,629.31,189.46,629.28Z" transform="translate(-2.45 -140.42)"/><path class="cls-3" d="M174.5,644.31c.36,0,.72,0,1.08,0,1.58.06,3.25.26,3.53,2.14s-1,3.19-2.67,3.71c-2,.62-4.19,1.07-5.92-.63a3.61,3.61,0,0,1-1.19-2.68,4.24,4.24,0,0,1,2.19-2.29,8.21,8.21,0,0,1,3-.33Z" transform="translate(-2.45 -140.42)"/></g><g id="cat"><g id="cat-2" data-name="cat"><g id="body-2" data-name="body"><path class="cls-2" d="M411,258.59c.37-.51.68-1,1-1.44a30,30,0,0,0,6.28-13.28,9.16,9.16,0,0,0,0-3.26,4.07,4.07,0,0,0-2.89-3.5,3.89,3.89,0,0,0-4.16,1.34,22.28,22.28,0,0,0-2.55,3.62,31.5,31.5,0,0,1-11,11.12,2.55,2.55,0,0,1-2.88.09c-1.66-.94-3.38-1.79-5.42-2.86l2.15-1.1a24,24,0,0,0,11.84-13.18,7.13,7.13,0,0,0,.43-2.25c.09-2.55-1.83-4-4.23-3.2a30.25,30.25,0,0,0-3.82,1.91,53.56,53.56,0,0,1-19.28,5.9,3,3,0,0,1-3.09-1.23c-7.33-9.05-10.2-19.43-9.49-30.93a62.59,62.59,0,0,1,3.93-17.81c.09-.25.23-.48.47-1,1.13,1.2,2.15,2.3,3.19,3.37a24.36,24.36,0,0,0,2.36,2.3,4.91,4.91,0,0,0,2.11.94,2.84,2.84,0,0,1,2.68,2.65,2.56,2.56,0,0,0,.62,1.42,25,25,0,0,0,11.46,6.53,12.35,12.35,0,0,0,8.82-1.1c3.61-1.85,7-4.07,10.56-6.09,2.38-1.37,4.71-2.87,7.2-4,3.46-1.54,6.94-1.66,10.07,1,1.77,1.48,2.37,3.45,1.21,5.45a17.78,17.78,0,0,1-4,5.16c-6.16,4.78-12.47,9.38-18.84,13.88-5.91,4.17-12.62,4.42-19.48,3.37-2.06-.31-4.08-.87-6.12-1.33-1.06-.24-2.05,0-2.15,1.11a2.43,2.43,0,0,0,1.08,2c8.1,2.39,16.31,3.53,24.35,0,6.27-2.78,11.65-7,17.08-11.18,2.36-1.8,2.34-1.81,4.91-.23.65.4,1.31.78,2,1.22a61.11,61.11,0,0,0-3.53,6.67c-1.3,3.43-2.26,7-3.27,10.52a1.58,1.58,0,0,0,1.42,2.16,1.62,1.62,0,0,0,2-1.54,35.29,35.29,0,0,1,22.05-27.76,5.5,5.5,0,0,0,2.35-1.83c4.06-5.82,8.82-10.83,15.48-13.69A29.83,29.83,0,0,1,475.28,186c2.89,0,4.46,1,4.84,3,.44,2.28-.79,4.06-3.47,5-7.18,2.6-13.65,11.36-13.64,18.54a10,10,0,0,0,.52,3.57c2.15,5.52,1.6,11.1.65,16.74-1.7,10.08-8.23,16.14-16.8,20.64a54.6,54.6,0,0,1-34.68,5.71,8.69,8.69,0,0,1-1.12-.27A4.21,4.21,0,0,1,411,258.59Zm-33.09-61.53c.14-1.76-.61-2.47-2.24-2.11Z" transform="translate(-2.45 -140.42)"/><path class="cls-2" d="M422.5,189c-5.82.16-10.35,3.21-15,6.11-2.83,1.78-5.68,3.56-8.63,5.13-4.8,2.55-9.54,1.64-13.38-1.68a209.37,209.37,0,0,1-15.33-14.91c-1.75-1.86-2.71-4.5-3.86-6.86a2.18,2.18,0,0,1,.54-1.93,86.19,86.19,0,0,1,15.74-11.34,2.68,2.68,0,0,1,1.68,0,58,58,0,0,0,7.36,1.61c4.37.34,5.67-1.65,4.13-5.81-.2-.55-.42-1.1-.63-1.65,4-1.77,12.43.2,15.9,3.8-1,1-2,2-2.89,3.11-1.39,1.76-1.27,3.37.71,4.41a42.73,42.73,0,0,0,8.06,3.21,4,4,0,0,1,3.25,3.09A61.24,61.24,0,0,1,422.5,189Zm-22.43,2.14c2.63.68,5.14-.67,5.58-2.79.1-.46-.29-1-.45-1.55-.46.26-1.13.42-1.32.82-.56,1.17-1.34,2-2.66,1.73s-2-1.23-2-2.63a1.37,1.37,0,0,0-.76-1,1.35,1.35,0,0,0-1.08.67c-.55,1.2-1.29,2.11-2.74,1.83a2.29,2.29,0,0,1-2-2.62c0-.37-.59-.76-.9-1.14-.34.37-.87.69-1,1.11-.5,2.08,1.54,4.8,3.75,4.64S398.78,189.37,400.07,191.15ZM394.12,176a3,3,0,0,0,3.71-2.1,3,3,0,0,0-2.06-3.59,2.88,2.88,0,0,0-3.67,2.09A2.92,2.92,0,0,0,394.12,176Zm14.64.64a3,3,0,0,0-2.16-3.55,2.91,2.91,0,0,0-3.61,2.24,3,3,0,0,0,2.18,3.53A3.28,3.28,0,0,0,408.76,176.6Zm-10,6.68c.21.06.45.21.63.15,1-.33,2.37-.45,2.74-1.13.65-1.19-.41-2.09-1.53-2.63a5,5,0,0,0-.91-.35c-1.68-.4-3.23.19-3.49,1.3S397,182.89,398.75,183.28Z" transform="translate(-2.45 -140.42)"/><path class="cls-2" d="M464.8,242.16c.64-1.66,1.14-3,1.71-4.38a1.63,1.63,0,0,1,.81-.74c7.91-3.15,16-5.64,24.62-5.38s14.17,4.85,15.59,13c1,5.52-.69,10.53-3.81,15.1a43.42,43.42,0,0,1-9.45,9.59c-1,.77-2,1-2.89-.14s-.4-2.05.59-2.83a38.13,38.13,0,0,0,9.28-9.72,16.77,16.77,0,0,0,2.68-9.86c-.35-6.62-4.38-10.8-11-11.33-6-.48-11.69.87-17.32,2.6-3.14,1-6.17,2.3-9.24,3.47Z" transform="translate(-2.45 -140.42)"/><path class="cls-2" d="M469.08,225.42c-.89-4-1.81-7.54-2.44-11.12-.83-4.72,1.32-8.45,4.41-12.09,2.39,4.25,4.65,8.25,5.81,12.74a3.1,3.1,0,0,1-.38,2.46C474.1,220.17,471.56,222.77,469.08,225.42Z" transform="translate(-2.45 -140.42)"/><path class="cls-2" d="M432.43,195.86A11.22,11.22,0,0,0,426.7,190c-.42-.21-.66-1-.72-1.61,0-.34.4-1,.69-1,2.58-.3,5.23-.91,7.76-.6,3.29.39,4,2.79,1.93,5.32A46.23,46.23,0,0,1,432.43,195.86Z" transform="translate(-2.45 -140.42)"/></g><g id="outline"><path class="cls-1" d="M467.75,233c2.92-.92,5.61-1.85,8.36-2.59a53,53,0,0,1,16.27-2.23c1.19.05,2.17.16,2.8,1.48a2.39,2.39,0,0,0,3.57.81,2.17,2.17,0,0,1,2.69,0,19.22,19.22,0,0,1,9.6,19.77,27.55,27.55,0,0,1-7.53,15.27,70.84,70.84,0,0,1-7.31,6.65,5.19,5.19,0,0,1-7.61-.84c-1.77-2.32-1.27-5.37,1-7.51a110.32,110.32,0,0,0,8-8,12.12,12.12,0,0,0,2.87-7.58c.24-5.79-2.77-9.12-8.59-9.38-4.73-.22-9.28.86-13.8,2.06a62.65,62.65,0,0,0-17,7.38c-3.11,1.93-5.87,4.44-9,6.37a55.39,55.39,0,0,1-35.43,8.45c-14.13-1.41-26.56-7.05-37.66-15.73a46.71,46.71,0,0,1-16.65-24c-3.15-10.75-2.29-21.41.9-32,.68-2.26,1.63-4.44,2.36-6.68a2.77,2.77,0,0,0-.08-1.82c-.67-1.5-1.53-2.92-2.24-4.41-1.19-2.54-.88-4.41,1.26-6.18,3.17-2.63,6.48-5.1,9.67-7.7a4.4,4.4,0,0,0,1.44-2c1.53-5.23,3.09-10.46,6-15.11a21,21,0,0,1,4.09-4.89c3.79-3.2,8.46-2.34,10.87,2a59.67,59.67,0,0,1,3.35,7.83,1.86,1.86,0,0,0,1.51,1.4c2.55.63,5,1.48,7.59,2.13a2.55,2.55,0,0,0,1.74-.36c2.25-1.27,4.37-2.78,6.68-3.89a17.77,17.77,0,0,1,5.34-1.58c3.35-.44,6,1.4,6.39,4.74a28.49,28.49,0,0,1-.12,8.5c-.89,4.79-2.28,9.49-3.56,14.21a8.7,8.7,0,0,0,.16,6.28c1.76-.28,3.52-.66,5.31-.82a10.3,10.3,0,0,1,7.24,1.58,5.85,5.85,0,0,1,1.83,8.12c-1.52,2.73-3.95,4.52-6.41,6.29a7.59,7.59,0,0,0-1.73,2c-.9,1.37-1.61,2.88-2.59,4.17a50.16,50.16,0,0,1-3.51,3.73c1.25.71,2.42,1.45,3.66,2,.26.12.9-.27,1.2-.59a39.89,39.89,0,0,1,13.92-9.51,4.43,4.43,0,0,0,1.63-1.51c4.83-6.86,10.75-12.35,18.89-15a29.11,29.11,0,0,1,11.66-1.74c3.76.32,6.33,2.66,6.79,6.06.49,3.59-1.37,6.54-4.88,8-1.75.75-3.39,1.76-5.2,2.72.64,1.17,1.13,1.95,1.51,2.78,1.66,3.64,3.39,7.26,4.91,11a6.61,6.61,0,0,1-1.6,7.6c-3,2.93-6,5.83-9.09,8.6A4.3,4.3,0,0,0,467.75,233ZM411,258.59a4.21,4.21,0,0,0,.6.32,8.69,8.69,0,0,0,1.12.27,54.6,54.6,0,0,0,34.68-5.71c8.57-4.5,15.1-10.56,16.8-20.64.95-5.64,1.5-11.22-.65-16.74a10,10,0,0,1-.52-3.57c0-7.18,6.46-15.94,13.64-18.54,2.68-1,3.91-2.75,3.47-5-.38-2-1.95-3-4.84-3a29.83,29.83,0,0,0-11.35,2.54c-6.66,2.86-11.42,7.87-15.48,13.69a5.5,5.5,0,0,1-2.35,1.83,35.29,35.29,0,0,0-22.05,27.76,1.62,1.62,0,0,1-2,1.54,1.58,1.58,0,0,1-1.42-2.16c1-3.53,2-7.09,3.27-10.52a61.11,61.11,0,0,1,3.53-6.67c-.73-.44-1.39-.82-2-1.22-2.57-1.58-2.55-1.57-4.91.23-5.43,4.14-10.81,8.4-17.08,11.18-8,3.55-16.25,2.41-24.35,0a2.43,2.43,0,0,1-1.08-2c.1-1.13,1.09-1.35,2.15-1.11,2,.46,4.06,1,6.12,1.33,6.86,1.05,13.57.8,19.48-3.37,6.37-4.5,12.68-9.1,18.84-13.88a17.78,17.78,0,0,0,4-5.16c1.16-2,.56-4-1.21-5.45-3.13-2.62-6.61-2.5-10.07-1-2.49,1.12-4.82,2.62-7.2,4-3.52,2-6.95,4.24-10.56,6.09a12.35,12.35,0,0,1-8.82,1.1,25,25,0,0,1-11.46-6.53,2.56,2.56,0,0,1-.62-1.42,2.84,2.84,0,0,0-2.68-2.65,4.91,4.91,0,0,1-2.11-.94,24.36,24.36,0,0,1-2.36-2.3c-1-1.07-2.06-2.17-3.19-3.37-.24.48-.38.71-.47,1a62.59,62.59,0,0,0-3.93,17.81c-.71,11.5,2.16,21.88,9.49,30.93a3,3,0,0,0,3.09,1.23,53.56,53.56,0,0,0,19.28-5.9,30.25,30.25,0,0,1,3.82-1.91c2.4-.84,4.32.65,4.23,3.2a7.13,7.13,0,0,1-.43,2.25,24,24,0,0,1-11.84,13.18l-2.15,1.1c2,1.07,3.76,1.92,5.42,2.86a2.55,2.55,0,0,0,2.88-.09,31.5,31.5,0,0,0,11-11.12,22.28,22.28,0,0,1,2.55-3.62,3.89,3.89,0,0,1,4.16-1.34,4.07,4.07,0,0,1,2.89,3.5,9.16,9.16,0,0,1,0,3.26A30,30,0,0,1,412,257.15C411.66,257.6,411.35,258.08,411,258.59ZM422.5,189a61.24,61.24,0,0,0-2.31-13.7,4,4,0,0,0-3.25-3.09,42.73,42.73,0,0,1-8.06-3.21c-2-1-2.1-2.65-.71-4.41.88-1.11,1.92-2.08,2.89-3.11-3.47-3.6-11.92-5.57-15.9-3.8.21.55.43,1.1.63,1.65,1.54,4.16.24,6.15-4.13,5.81a58,58,0,0,1-7.36-1.61,2.68,2.68,0,0,0-1.68,0,86.19,86.19,0,0,0-15.74,11.34,2.18,2.18,0,0,0-.54,1.93c1.15,2.36,2.11,5,3.86,6.86a209.37,209.37,0,0,0,15.33,14.91c3.84,3.32,8.58,4.23,13.38,1.68,2.95-1.57,5.8-3.35,8.63-5.13C412.15,192.22,416.68,189.17,422.5,189Zm42.3,53.15,1.58-.6c3.07-1.17,6.1-2.51,9.24-3.47,5.63-1.73,11.35-3.08,17.32-2.6,6.61.53,10.64,4.71,11,11.33a16.77,16.77,0,0,1-2.68,9.86A38.13,38.13,0,0,1,492,266.4c-1,.78-1.44,1.74-.59,2.83s1.9.91,2.89.14a43.42,43.42,0,0,0,9.45-9.59c3.12-4.57,4.78-9.58,3.81-15.1-1.42-8.17-6.89-12.76-15.59-13s-16.71,2.23-24.62,5.38a1.63,1.63,0,0,0-.81.74C465.94,239.12,465.44,240.5,464.8,242.16Zm4.28-16.74c2.48-2.65,5-5.25,7.4-8a3.1,3.1,0,0,0,.38-2.46c-1.16-4.49-3.42-8.49-5.81-12.74-3.09,3.64-5.24,7.37-4.41,12.09C467.27,217.88,468.19,221.42,469.08,225.42Zm-89-64.83c5.29-3.05,10.3-6.47,17-6.91-1-2.44-1.72-4.63-2.79-6.62-1.91-3.55-4.62-3.89-7.37-.91C383.13,150.2,381.6,155.38,380.06,160.59Zm33-2.28c4.85,3.94,7.92,8.95,10.21,14.6a24.79,24.79,0,0,0,1.35-4.34,52.11,52.11,0,0,0,1.13-5.64,37.72,37.72,0,0,0,.27-6.71c-.16-2.32-1.34-3.07-3.61-2.61C419,154.32,416,156.17,413.06,158.31Zm19.37,37.55a46.23,46.23,0,0,0,3.93-3.77c2.11-2.53,1.36-4.93-1.93-5.32-2.53-.31-5.18.3-7.76.6-.29,0-.73.71-.69,1,.06.57.3,1.4.72,1.61A11.22,11.22,0,0,1,432.43,195.86Z" transform="translate(-2.45 -140.42)"/><path class="cls-1" d="M493.79,228.39l7.23,1.87.27.83c-1.5.2-3.1.82-4.46.48s-2.55-1.66-3.82-2.55Z" transform="translate(-2.45 -140.42)"/><path class="cls-1" d="M379.55,198.5l-6-5.5Q380,191.64,379.55,198.5Z" transform="translate(-2.45 -140.42)"/></g><g id="face"><path class="cls-3" d="M380.06,160.59c1.54-5.21,3.07-10.39,6.82-14.44,2.75-3,5.46-2.64,7.37.91,1.07,2,1.78,4.18,2.79,6.62C390.36,154.12,385.35,157.54,380.06,160.59Z" transform="translate(-2.45 -140.42)"/><path class="cls-3" d="M413.06,158.31c3-2.14,5.89-4,9.35-4.7,2.27-.46,3.45.29,3.61,2.61a37.72,37.72,0,0,1-.27,6.71,52.11,52.11,0,0,1-1.13,5.64,24.79,24.79,0,0,1-1.35,4.34C421,167.26,417.91,162.25,413.06,158.31Z" transform="translate(-2.45 -140.42)"/><path class="cls-3" d="M400.07,191.15c-1.29-1.78-3.36-1.13-5.49-1s-4.25-2.56-3.75-4.64c.1-.42.63-.74,1-1.11.31.38.9.77.9,1.14a2.29,2.29,0,0,0,2,2.62c1.45.28,2.19-.63,2.74-1.83a1.35,1.35,0,0,1,1.08-.67,1.37,1.37,0,0,1,.76,1c0,1.4.59,2.39,2,2.63s2.1-.56,2.66-1.73c.19-.4.86-.56,1.32-.82.16.52.55,1.09.45,1.55C405.21,190.48,402.7,191.83,400.07,191.15Z" transform="translate(-2.45 -140.42)"/><path class="cls-3" d="M394.12,176a2.92,2.92,0,0,1-2-3.6,2.88,2.88,0,0,1,3.67-2.09,3,3,0,0,1,2.06,3.59A3,3,0,0,1,394.12,176Z" transform="translate(-2.45 -140.42)"/><path class="cls-3" d="M408.76,176.6a3.28,3.28,0,0,1-3.59,2.22,3,3,0,0,1-2.18-3.53,2.91,2.91,0,0,1,3.61-2.24A3,3,0,0,1,408.76,176.6Z" transform="translate(-2.45 -140.42)"/><path class="cls-3" d="M398.75,183.28c-1.75-.39-2.83-1.52-2.56-2.66s1.81-1.7,3.49-1.3a5,5,0,0,1,.91.35c1.12.54,2.18,1.44,1.53,2.63-.37.68-1.78.8-2.74,1.13C399.2,183.49,399,183.34,398.75,183.28Z" transform="translate(-2.45 -140.42)"/></g></g></g><g id="fish"><g id="fish-2" data-name="fish"><g id="fins"><path class="cls-1" d="M100.43,178.76c.22-.81.4-1.63.66-2.42,3.65-11.24,11-19.52,20.84-25.7a70.53,70.53,0,0,1,25.3-9.44,52.41,52.41,0,0,1,21.67.78c6,1.44,11,4.61,14.2,10a22.9,22.9,0,0,1,1.71,3.93c.34.91.14,1.13-.84,1-1.62-.25-3.23-.6-4.84-.89a79.31,79.31,0,0,0-17.81-1.09,85.53,85.53,0,0,0-19.6,3.12,119.35,119.35,0,0,0-30.57,13.88c-3.23,2-6.35,4.22-9.52,6.33-.33.22-.68.41-1,.61Z" transform="translate(-2.45 -140.42)"/><path class="cls-1" d="M175.62,214.84c-2.87.7-5.71,1.54-8.6,2.08a27.68,27.68,0,0,1-14.6-.92,26,26,0,0,1-9.53-6.16c-.81-.8-.87-1.21,0-1.89a60,60,0,0,1,5.66-3.85,28.69,28.69,0,0,1,8.17-3.4,29.22,29.22,0,0,1,9-.29c2.06.17,4.11.62,6.16,1a2.34,2.34,0,0,1,2.11,2.22q.6,4.3,1.22,8.62C175.39,213,175.49,213.82,175.62,214.84Z" transform="translate(-2.45 -140.42)"/><path class="cls-1" d="M114.21,227.75c-1.1,4.09-8.74,7.81-16.56,8.05.19-1.72.29-3.44.59-5.12a18.92,18.92,0,0,1,4.29-9.13c.47-.54.79-.68,1.44-.25,2.91,1.92,5.86,3.8,8.8,5.68C113.21,227.26,113.69,227.48,114.21,227.75Z" transform="translate(-2.45 -140.42)"/></g><path id="body-3" data-name="body" class="cls-3" d="M163.44,239c-1.2-.1-2.39-.22-3.59-.3a95.37,95.37,0,0,1-37.48-11,129.78,129.78,0,0,1-30.82-22.09c-1-.95-2-1.83-3.09-2.78-3.7,12.43-12.32,18-24.85,18.36-.58-10.59,4.27-17.94,13.87-22.44C68.2,194,62.85,187,63.64,176.23l3,.34a27.7,27.7,0,0,1,9,2.21,22.47,22.47,0,0,1,12,13.67c.23.68.42,1.38.67,2.2.74-.65,1.4-1.22,2-1.81a153.1,153.1,0,0,1,23.45-18.14,110.81,110.81,0,0,1,32.55-13.88,80.88,80.88,0,0,1,23.87-2.09,86.63,86.63,0,0,1,15.41,2.7c.33.08.65.24,1.09.4-.84,1.09-1.61,2.12-2.41,3.13-4.13,5.19-6.57,11.18-8.25,17.53a80.73,80.73,0,0,0-2.11,13s0,.06,0,.09c-.15,2.08-.23,2.07-2.22,1.68-6.05-1.2-12.13-1.6-18.14.13-5.72,1.64-10.49,4.91-14.81,8.9-.21.2-.41.42-.6.64-1.17,1.35-1.23,2.07-.16,3.51,2.21,3,5.21,5,8.32,6.83a28.65,28.65,0,0,0,18.37,3.78,44.14,44.14,0,0,0,11.11-2.54c.27-.11.56-.18,1-.31a52.91,52.91,0,0,0,10,17.64c-1.28.32-2.27.62-3.29.82a95.38,95.38,0,0,1-15.23,2.19,1.89,1.89,0,0,0-.51.12Z" transform="translate(-2.45 -140.42)"/><g id="face-2" data-name="face"><path id="face-3" data-name="face" class="cls-2" d="M236.92,198.62A130.7,130.7,0,0,1,222.1,215c-.91.88-1.79,1.79-2.72,2.64a1.34,1.34,0,0,1-.9.35A20.52,20.52,0,0,1,211,216.1a24.93,24.93,0,0,1-3.23-2.07,2.38,2.38,0,0,0-2.46-.46,1.59,1.59,0,0,0-1,1.68,2.56,2.56,0,0,0,.66,1.36,16.06,16.06,0,0,0,5.53,3.52c1.05.43,2.09.88,3.33,1.4a6.93,6.93,0,0,1-1,1c-3.84,2.38-7.64,4.82-11.57,7-2.36,1.33-4.91,2.33-7.39,3.47a2.74,2.74,0,0,1-3.41-.78,39.69,39.69,0,0,1-8.69-15,61.71,61.71,0,0,1-2.6-22.43,54.46,54.46,0,0,1,4.71-20.35,33.84,33.84,0,0,1,6.68-9.85,3,3,0,0,1,3.86-.75,101.68,101.68,0,0,1,25.79,16.32,126,126,0,0,1,15.27,16c.51.63,1,1.28,1.49,1.93Zm-33.19.11a8.54,8.54,0,0,0,9.4-8.07,9,9,0,1,0-18-.78,9.57,9.57,0,0,0,2.85,6.71A7.16,7.16,0,0,0,203.73,198.73Z" transform="translate(-2.45 -140.42)"/><path id="eye-2" data-name="eye" class="cls-1" d="M203.79,195.1c-2.27,0-4.64-2.5-4.67-5s2.61-5.4,5-5.35a5.85,5.85,0,0,1,5.19,5.24A5.28,5.28,0,0,1,203.79,195.1Z" transform="translate(-2.45 -140.42)"/></g></g></g></svg>