<svg xmlns="http://www.w3.org/2000/svg" viewBox="0 0 252.04 233.28"><defs><style>.cls-1{fill:#bfc0e2;}.cls-2{fill:#273372;}.cls-3{fill:#434d9b;}</style></defs><g id="Layer_2" data-name="Layer 2"><g id="bird"><g id="bird-2" data-name="bird"><g id="body"><path class="cls-1" d="M101.64,178.06c.16,10.24-10.48,17.13-31.41,30.69-2.45,1.58-23.8,15.25-37.76,16.61-3.38.33-6.78,0-12.68,1.41-4.11,1-6.42,2.12-9.8,1.4-2.12-.45-6.16-1.94-6.63-4.5-.58-3.17,4.64-6,13-12.11,5.29-3.88,10.09-8.36,15.27-12.39,2.12-1.65,4-3.11,5.61-4.4s2.82-2.25,4-3.2c8.5-6.9,9.19-8,16.63-13.51,3.28-2.4,6.24-4.56,8.94-6.48,1,.09,2,.17,2.93.23l1,.06,1.16.06q2.56.12,5.13.12,3.84,0,7.59-.26l.21,0,2.11-.17.89-.09,1.4-.15,2-.25.28,0,.31-.06c1.94-.27,3.84-.6,5.73-1l.6-.13,1.23-.27A18.08,18.08,0,0,1,101.64,178.06Z"/><path class="cls-1" d="M201.72,7.41A37.91,37.91,0,0,1,214.49,18.3c9,12.13,7.28,25.77,6.75,30-.75,6.09-1.77,14.34-7.5,17.65-2.19,1.26-4.14,1.28-5.64,3.38-2.25,3.17-.77,7.32,0,11.63.52,2.9.1,8.06-.75,18.4a102.39,102.39,0,0,1-7.13,30.78,81.91,81.91,0,0,1-19.9,29.66,83.68,83.68,0,0,1-36.79,19.52c-8.61,2.11-31.57,6.29-34.91-.75-3.09-6.52,16.85-12.5,28.16-32.66,19.51-34.79,3.95-94.52,11.63-116.38a41.18,41.18,0,0,1,4.88-9.38,39.51,39.51,0,0,1,15-12c4.44-2.22,10.86-5.43,19.52-4.88A33.78,33.78,0,0,1,201.72,7.41Z"/><path class="cls-2" d="M39.54,171.27c1.11,2.87,5.72,3.55,11.27,4.16C74,178,85.54,179.25,97.36,176.57c9.09-2.06,30.13-6.83,46.55-25.71,12.14-14,15.79-28.77,17.64-36.68,4.46-19,1.73-34.11,0-43.1-2.74-14.29-9.06-32.55-14.26-32.13-1.53.12-2.07,1.78-7.51,9.83-2.42,3.58-5.06,7-7.51,10.58-6.53,9.51-14.81,19.26-19.9,25.33C76,128.2,79.49,131.2,61.32,147.46,49.22,158.27,37.52,166,39.54,171.27Z"/><polygon class="cls-3" points="245.71 40.47 219.04 54.58 220.15 24.43 245.71 40.47"/><path class="cls-3" d="M250.07,38.72,221,21.88A41,41,0,0,0,143.85,37L36.27,168.73A4,4,0,0,0,38.08,175a130.3,130.3,0,0,0,14.59,3.93l-10.2,8.65a3.94,3.94,0,0,0-.5,5.5l.05.06a4,4,0,0,0,5.56.46l15.31-13c1.68.2,3.36.37,5,.5l1.6.12.34,0A109.74,109.74,0,0,0,90,180.65l1.47-.19.4-.05c1,.2,2,.4,2.94.58a110.31,110.31,0,0,1-84.6,44.34l27.57-23.41a4,4,0,0,0,.46-5.56.57.57,0,0,0-.11-.11,3.92,3.92,0,0,0-5.45-.34L2.34,221.61a6.63,6.63,0,0,0,4.29,11.67,117.79,117.79,0,0,0,58.21-15.42,117.89,117.89,0,0,0,38.59-35.41A148.24,148.24,0,0,0,124.21,184c3.42,0,6.75-.15,10-.43v20.94l-14,9.95a3.94,3.94,0,0,0,4.57,6.43l12.2-8.68,5.45,8.89a3.95,3.95,0,0,0,6.73-4.13l-2.25-3.65,9.42,2.84,6.1,8.85a3.94,3.94,0,1,0,6.49-4.47l-6.88-10a3.94,3.94,0,0,0-2.11-1.54l-12.85-3.88L158.58,197l5.45,8.89a3.94,3.94,0,0,0,3.36,1.88,3.85,3.85,0,0,0,2.06-.58,3.94,3.94,0,0,0,1.3-5.42l-2.24-3.66,9.41,2.85,6.11,8.85a3.94,3.94,0,1,0,6.49-4.48l-6.88-10a3.94,3.94,0,0,0-2.11-1.54l-17.85-5.4V176.08a72,72,0,0,0,12.49-7.39c25.43-18.76,33.33-50.64,35.48-74.08a3.95,3.95,0,1,0-7.86-.72c-2,21.83-9.23,51.43-32.31,68.45-15,11.11-35.08,15.51-59.73,13.16a87.1,87.1,0,0,0,13-5.94l.07,0c.75-.42,1.48-.85,2.21-1.29l.41-.25c.61-.37,1.22-.76,1.82-1.15l.57-.36,1.67-1.13.59-.41c.6-.42,1.19-.86,1.77-1.3l.4-.28c.69-.53,1.38-1.06,2.05-1.61l.7-.58c.45-.37.89-.73,1.32-1.11l.84-.74,1.13-1,.85-.8c.37-.34.73-.69,1.08-1l.82-.81c.37-.37.73-.75,1.09-1.12l.74-.79c.4-.43.79-.86,1.18-1.3l.6-.67c.58-.67,1.16-1.34,1.72-2,.39-.48.77-1,1.15-1.45.1-.12.19-.25.29-.38.28-.36.56-.72.83-1.09l.3-.42.79-1.08.28-.4.78-1.13.24-.36c.26-.4.53-.8.79-1.21.06-.09.12-.2.19-.3.27-.42.54-.86.81-1.29a1.76,1.76,0,0,1,.14-.23c.28-.46.55-.93.82-1.4l.09-.16c.29-.49.57-1,.85-1.5l0-.07a84.11,84.11,0,0,0,6.36-14.91c5.2-15.93,5.64-33.89,1.3-52.19a124.2,124.2,0,0,0-12.67-32.25.21.21,0,0,1,0-.06A33.15,33.15,0,0,1,214.42,26.4s0,0,0,0c.42.85.8,1.73,1.14,2.61l.06.15c.15.38.28.76.41,1.14,0,.13.09.25.13.38.11.33.21.66.31,1l.15.57c.08.29.16.57.23.87s.11.49.17.73.11.5.16.75.11.63.16.94.07.39.1.58c.08.51.14,1,.19,1.54,0,0,0,0,0,0,.05.5.08,1,.11,1.51,0,.12,0,.24,0,.36q0,.69,0,1.38v.49l0,1c0,.26,0,.52,0,.78s-.05.6-.07.9-.05.45-.07.67L217.46,46c0,.22-.07.43-.11.65s-.11.61-.17.92-.09.44-.14.67-.17.73-.27,1.1c0,.13-.07.27-.1.41-.13.46-.26.91-.41,1.37a33.16,33.16,0,0,1-10.61,15.6A4,4,0,0,0,204.21,70c.15,2.42.32,6.36.25,11.33a3.94,3.94,0,0,0,3.89,4h.06a3.94,3.94,0,0,0,3.94-3.89c.06-4,0-7.45-.16-10a41.11,41.11,0,0,0,10.88-15.94c9.65-3.37,26.25-9.65,26.43-9.71a3.95,3.95,0,0,0,.57-7.11Zm-108,143.88a87.65,87.65,0,0,0,13.7-3.38v10L142.09,199Zm9.62-126.41c.34.86.67,1.71,1,2.56l.16.42c10.91,29.9,8,60.78-8.68,83.09l-.09.12c-.6.8-1.22,1.59-1.85,2.37-.44.53-.88,1.06-1.33,1.58l-.42.47c-.32.36-.64.73-1,1.09l-.47.5c-.33.36-.67.72-1,1.07l-.42.43-1.36,1.35-.09.09c-.51.49-1,1-1.57,1.46l-.21.18c-.44.41-.89.8-1.34,1.19l-.39.33c-.41.35-.82.69-1.24,1-.14.11-.27.23-.41.33-.45.36-.91.72-1.36,1.06l-.29.22c-.56.43-1.12.84-1.7,1.25l-.23.16-1.42,1-.67.43c-.33.22-.66.44-1,.65l-.84.52c-.26.17-.53.33-.8.49l-1,.6-.4.22a81.82,81.82,0,0,1-18,7.52h0c-1.47.42-3,.81-4.47,1.15l-.09,0c-.4.09-.8.19-1.2.27l-.59.13q-2.76.57-5.59,1l-.31.06-.27,0-1.93.25-1.36.15-.87.09-2.06.17-.21,0q-3.66.25-7.41.26-2.51,0-5-.12l-1.14-.06-.93-.06c-1-.06-1.9-.14-2.86-.23-1.58-.14-3.16-.32-4.75-.54h-.06a117.81,117.81,0,0,1-16-3.35L146.92,45.68c.07.13.14.26.2.39l.4.8c.7,1.4,1.37,2.8,2,4.22l.3.64a1,1,0,0,0,0,.1c.26.58.51,1.16.75,1.75l.44,1C151.28,55.13,151.5,55.66,151.71,56.19Zm73.67-9.85a40.28,40.28,0,0,0,.23-8.15v-.06c0-.4-.06-.81-.11-1.22q-.09-1-.24-1.92c0-.24-.08-.48-.12-.72s-.1-.64-.16-1l13.92,8.06C234.86,42.88,229.85,44.73,225.38,46.34Z"/></g><circle id="eye" class="cls-3" cx="197.01" cy="30.72" r="5.91"/></g></g></g></svg>