<svg xmlns="http://www.w3.org/2000/svg" viewBox="0 0 237.96 165.41"><defs><style>.cls-1{fill:#bfc0e2;}.cls-2{fill:#434d9b;}.cls-3{fill:#273372;}</style></defs><g id="Layer_2" data-name="Layer 2"><g id="cat"><g id="cat-2" data-name="cat"><g id="body"><path class="cls-1" d="M99,159.89c.34-.85.61-1.65,1-2.42a43.81,43.81,0,0,0,4-21.11,13.47,13.47,0,0,0-1.15-4.63,6,6,0,0,0-5.37-3.9,5.69,5.69,0,0,0-5.41,3.42,33.1,33.1,0,0,0-2.29,6.07,46,46,0,0,1-11.56,19.77,3.72,3.72,0,0,1-4,1.19c-2.7-.72-5.45-1.3-8.73-2.07l2.65-2.36a35.08,35.08,0,0,0,11.94-23,10.44,10.44,0,0,0-.2-3.34c-.82-3.65-4.08-5.06-7.17-3a44.32,44.32,0,0,0-4.71,4.1A78.55,78.55,0,0,1,42.79,144a4.44,4.44,0,0,1-4.82-.62c-13.69-10.13-21.56-23.79-24.75-40.34a91.39,91.39,0,0,1-1-26.67c0-.38.16-.76.32-1.53,2,1.28,3.88,2.46,5.75,3.6a34.29,34.29,0,0,0,4.19,2.4,7.16,7.16,0,0,0,3.32.57c2.34-.22,3.87.57,4.77,2.76A3.78,3.78,0,0,0,32,86a36.54,36.54,0,0,0,18.63,5.07,18.22,18.22,0,0,0,12.1-4.79c4.43-4,8.47-8.33,12.72-12.49a117.74,117.74,0,0,1,8.75-8.28c4.33-3.44,9.22-4.89,14.62-2.32,3,1.44,4.62,4,3.69,7.28-.86,3-1.88,6.32-3.77,8.77-7,9-14.24,17.84-21.62,26.54-6.85,8.07-16.26,10.88-26.36,11.9-3,.31-6.1.27-9.16.36-1.59,0-2.91.73-2.63,2.35.16,1,1.44,2.42,2.26,2.45,12.35.43,24.39-1,34.48-8.93,7.87-6.22,13.94-14.23,20.11-22.07,2.69-3.41,2.67-3.42,6.87-2.13,1.07.33,2.15.63,3.35,1-.9,3.64-2.16,7.15-2.56,10.75-.6,5.33-.65,10.73-.79,16.1a2.3,2.3,0,0,0,2.8,2.54,2.37,2.37,0,0,0,2.2-2.9,51.58,51.58,0,0,1,21.11-47.39,8.17,8.17,0,0,0,2.65-3.45c3.63-9.73,8.53-18.57,16.92-25.05a43.63,43.63,0,0,1,15.16-7.75c4.07-1.12,6.66-.27,7.94,2.42,1.45,3.06.36,6-3.08,8.39-9.22,6.31-15.19,21.08-12.55,31.26a14.55,14.55,0,0,0,2,4.86c5.07,7,6.33,15.15,7,23.48,1.28,14.9-5.75,25.87-16.26,35.39a79.94,79.94,0,0,1-47,20.76,13.62,13.62,0,0,1-1.69,0A5.57,5.57,0,0,1,99,159.89ZM29.61,84.82c-.45-2.54-1.77-3.27-3.94-2.16Z"/><path class="cls-1" d="M89.87,57.11c-8.19,2.35-13.49,8.33-19,14.13-3.36,3.56-6.75,7.12-10.36,10.42C54.69,87,47.64,87.47,41,84.18A310.58,310.58,0,0,1,13.82,68.65c-3.16-2-5.48-5.38-8-8.3a3.2,3.2,0,0,1,.06-2.93c5-8.1,11.46-15.09,18.16-21.82A3.94,3.94,0,0,1,26.44,35c3.67-.15,7.43.22,11-.41,6.32-1.12,7.43-4.4,3.74-9.73-.5-.71-1-1.42-1.5-2.11,5-4,17.68-4.27,23.92-.43-1,1.81-2.13,3.57-3,5.45-1.33,3-.56,5.25,2.62,6a62.91,62.91,0,0,0,12.59,1.61c2.76,0,4.35.83,5.74,3.19A90.13,90.13,0,0,1,89.87,57.11Zm-31,11.23c4,0,7-2.82,6.88-6,0-.7-.79-1.37-1.21-2-.54.54-1.44,1-1.56,1.64-.37,1.86-1.19,3.26-3.15,3.43s-3.2-1-3.76-3a2,2,0,0,0-1.46-1.19c-.45,0-1.18.8-1.28,1.34-.35,1.91-1.05,3.46-3.21,3.6s-3.23-.95-3.74-3c-.13-.54-1.1-.87-1.69-1.29-.34.64-1,1.29-1,1.92.06,3.13,3.94,6.24,7,5.2S56.39,66.3,58.88,68.34ZM44.89,49a4.4,4.4,0,0,0,4.49-4.34,4.33,4.33,0,0,0-4.23-4.33,4.23,4.23,0,0,0-4.44,4.32A4.28,4.28,0,0,0,44.89,49Zm21-4.45a4.32,4.32,0,0,0-4.36-4.23,4.24,4.24,0,0,0-4.3,4.49A4.31,4.31,0,0,0,61.59,49,4.79,4.79,0,0,0,65.87,44.55ZM54.12,57.68c.32,0,.73.13,1,0,1.24-.82,3.19-1.51,3.47-2.61.49-1.92-1.34-2.81-3.12-3.16A6.89,6.89,0,0,0,54,51.73c-2.52,0-4.51,1.45-4.46,3.12S51.5,57.76,54.12,57.68Z"/><path class="cls-1" d="M169.22,116.94c.3-2.58.5-4.72.83-6.83a2.28,2.28,0,0,1,.87-1.35c10.06-7.35,20.61-13.84,32.91-16.62s21.85,1.7,26.85,12.75c3.38,7.47,2.87,15.17.12,22.79a63.75,63.75,0,0,1-9.88,17c-1.13,1.46-2.54,2.12-4.15.87s-1.32-2.77-.2-4.24c4-5.26,7.62-10.76,9.6-17.16a24.51,24.51,0,0,0,.19-14.94c-2.91-9.25-10.15-13.71-19.71-12-8.63,1.51-16.24,5.51-23.59,10-4.1,2.51-7.89,5.52-11.82,8.3Z"/><path class="cls-1" d="M169.17,91.66c-2.73-5.35-5.33-10-7.53-14.86-2.9-6.39-1.22-12.45,1.83-18.74,4.94,5.15,9.6,10,12.89,15.92a4.63,4.63,0,0,1,.37,3.63C174.36,82.38,171.71,87,169.17,91.66Z"/><path class="cls-1" d="M106.44,63.19A16.35,16.35,0,0,0,96.19,57c-.68-.15-1.32-1.23-1.62-2a1.89,1.89,0,0,1,.6-1.73c3.55-1.37,7.09-3.2,10.78-3.7,4.8-.64,6.74,2.48,4.68,6.84A69.34,69.34,0,0,1,106.44,63.19Z"/></g><g id="outline"><path class="cls-2" d="M170.05,102.89c3.8-2.35,7.28-4.66,10.9-6.72,7-4,14.27-7.41,22.23-9.11,1.7-.36,3.14-.55,4.52,1.08a3.49,3.49,0,0,0,5.35-.15c1.19-1.45,2.35-1.3,3.82-.95,11.26,2.76,19.41,12.54,20.82,24.51,1,8.75-1,16.82-5.08,24.38A104.27,104.27,0,0,1,224.69,148a7.6,7.6,0,0,1-11.09,1.59c-3.36-2.63-3.76-7.14-1.3-11a161.49,161.49,0,0,0,8.41-14.29A17.76,17.76,0,0,0,222,112.51c-1.77-8.3-7.25-11.91-15.59-10.16-6.79,1.43-12.83,4.62-18.8,8A91.71,91.71,0,0,0,166.17,127c-3.71,3.88-6.69,8.44-10.41,12.32-12.92,13.49-28.58,22.06-47.1,24.92-20.53,3.17-40.2-.28-59.1-8.52-13.64-5.94-24.67-15-32.36-27.89C8.8,113.75,6.13,98.33,6.78,82.18c.14-3.45.69-6.88.91-10.33a4,4,0,0,0-.79-2.54c-1.5-1.89-3.24-3.58-4.78-5.44C-.49,60.72-.74,58,1.65,54.65,5.17,49.77,9,45.07,12.53,40.22a6.45,6.45,0,0,0,1.29-3.4c.25-8,.56-15.95,3-23.61a30.86,30.86,0,0,1,4-8.43C25-1.13,32-1.62,37,3.65a87.2,87.2,0,0,1,7.61,9.87A2.72,2.72,0,0,0,47.23,15c3.84,0,7.68.25,11.52.25a3.91,3.91,0,0,0,2.35-1.15c2.71-2.62,5.16-5.54,8-8a26.25,26.25,0,0,1,7-4.18c4.59-1.85,9-.2,10.79,4.38a41.57,41.57,0,0,1,2.95,12.08c.48,7.12.23,14.29.15,21.43,0,3.77.24,5.27,2.51,8.85,2.4-1,4.76-2.23,7.22-3.11,3.54-1.27,7.18-1.82,10.85-.4,4.75,1.84,6.85,5.91,5.56,10.83-1.16,4.42-3.94,7.84-6.79,11.26a11.06,11.06,0,0,0-1.7,3.52c-.78,2.26-1.23,4.66-2.15,6.85a71.57,71.57,0,0,1-3.61,6.56c2,.56,4,1.18,5.94,1.55.41.07,1.17-.72,1.47-1.28a58.59,58.59,0,0,1,16.25-18.56,6.32,6.32,0,0,0,1.75-2.74C131.65,51.65,138,41.71,148.58,35c4.9-3.14,10.06-5.76,15.87-6.73,5.45-.92,9.94,1.45,11.84,6.1,2,4.91.45,9.77-4,13.16-2.21,1.7-4.16,3.74-6.37,5.76,1.32,1.42,2.3,2.35,3.14,3.39,3.69,4.55,7.46,9,11,13.73a9.64,9.64,0,0,1,.51,11.34c-3.12,5.25-6.33,10.44-9.73,15.51A6.23,6.23,0,0,0,170.05,102.89ZM99,159.89a5.57,5.57,0,0,0,1,.24,13.62,13.62,0,0,0,1.69,0,79.94,79.94,0,0,0,47-20.76c10.51-9.52,17.54-20.49,16.26-35.39-.71-8.33-2-16.44-7-23.48a14.55,14.55,0,0,1-2-4.86c-2.64-10.18,3.33-25,12.55-31.26C171.84,42,172.93,39,171.48,36c-1.28-2.69-3.87-3.54-7.94-2.42a43.63,43.63,0,0,0-15.16,7.75c-8.39,6.48-13.29,15.32-16.92,25.05a8.17,8.17,0,0,1-2.65,3.45,51.58,51.58,0,0,0-21.11,47.39,2.37,2.37,0,0,1-2.2,2.9,2.3,2.3,0,0,1-2.8-2.54c.14-5.37.19-10.77.79-16.1.4-3.6,1.66-7.11,2.56-10.75-1.2-.35-2.28-.65-3.35-1-4.2-1.29-4.18-1.28-6.87,2.13-6.17,7.84-12.24,15.85-20.11,22.07-10.09,8-22.13,9.36-34.48,8.93-.82,0-2.1-1.5-2.26-2.45-.28-1.62,1-2.31,2.63-2.35,3.06-.09,6.13-.05,9.16-.36,10.1-1,19.51-3.83,26.36-11.9,7.38-8.7,14.64-17.52,21.62-26.54,1.89-2.45,2.91-5.72,3.77-8.77.93-3.26-.65-5.84-3.69-7.28-5.4-2.57-10.29-1.12-14.62,2.32a117.74,117.74,0,0,0-8.75,8.28C71.21,78,67.17,82.33,62.74,86.28a18.22,18.22,0,0,1-12.1,4.79A36.54,36.54,0,0,1,32,86a3.78,3.78,0,0,1-1.39-1.79c-.9-2.19-2.43-3-4.77-2.76a7.16,7.16,0,0,1-3.32-.57,34.29,34.29,0,0,1-4.19-2.4c-1.87-1.14-3.71-2.32-5.75-3.6-.16.77-.28,1.15-.32,1.53a91.39,91.39,0,0,0,1,26.67c3.19,16.55,11.06,30.21,24.75,40.34a4.44,4.44,0,0,0,4.82.62A78.55,78.55,0,0,0,68,128.63a44.32,44.32,0,0,1,4.71-4.1c3.09-2.07,6.35-.66,7.17,3a10.44,10.44,0,0,1,.2,3.34,35.08,35.08,0,0,1-11.94,23l-2.65,2.36c3.28.77,6,1.35,8.73,2.07a3.72,3.72,0,0,0,4-1.19,46,46,0,0,0,11.56-19.77,33.1,33.1,0,0,1,2.29-6.07,5.69,5.69,0,0,1,5.41-3.42,6,6,0,0,1,5.37,3.9,13.47,13.47,0,0,1,1.15,4.63,43.81,43.81,0,0,1-4,21.11C99.59,158.24,99.32,159,99,159.89ZM89.87,57.11a90.13,90.13,0,0,0-8.28-18.56c-1.39-2.36-3-3.14-5.74-3.19a62.91,62.91,0,0,1-12.59-1.61c-3.18-.74-3.95-3-2.62-6,.84-1.88,2-3.64,3-5.45-6.24-3.84-18.93-3.53-23.92.43.5.69,1,1.4,1.5,2.11,3.69,5.33,2.58,8.61-3.74,9.73-3.58.63-7.34.26-11,.41a3.94,3.94,0,0,0-2.38.61C17.36,42.33,11,49.32,5.9,57.42a3.2,3.2,0,0,0-.06,2.93c2.5,2.92,4.82,6.31,8,8.3A310.58,310.58,0,0,0,41,84.18c6.65,3.29,13.7,2.85,19.56-2.52,3.61-3.3,7-6.86,10.36-10.42C76.38,65.44,81.68,59.46,89.87,57.11Zm79.35,59.83,2-1.42c3.93-2.78,7.72-5.79,11.82-8.3,7.35-4.51,15-8.51,23.59-10,9.56-1.67,16.8,2.79,19.71,12a24.51,24.51,0,0,1-.19,14.94c-2,6.4-5.59,11.9-9.6,17.16-1.12,1.47-1.4,3,.2,4.24s3,.59,4.15-.87a63.75,63.75,0,0,0,9.88-17c2.75-7.62,3.26-15.32-.12-22.79-5-11-14.43-15.55-26.85-12.75s-22.85,9.27-32.91,16.62a2.28,2.28,0,0,0-.87,1.35C169.72,112.22,169.52,114.36,169.22,116.94Zm-.05-25.28c2.54-4.65,5.19-9.28,7.56-14a4.63,4.63,0,0,0-.37-3.63c-3.29-5.93-8-10.77-12.89-15.92-3.05,6.29-4.73,12.35-1.83,18.74C163.84,81.65,166.44,86.31,169.17,91.66ZM19.36,32.36c6.37-6.25,12.22-12.92,21.52-16-2.32-3.09-4.12-5.94-6.37-8.37-4-4.32-8-3.81-10.78,1.42C19.9,16.53,19.62,24.42,19.36,32.36ZM65.27,17.07c8.3,3.81,14.49,9.79,19.8,17a36.13,36.13,0,0,0,.33-6.65A75.92,75.92,0,0,0,84.93,19a54.71,54.71,0,0,0-2.07-9.6c-1.07-3.23-3-3.86-6.06-2.37C72.15,9.27,68.71,13,65.27,17.07Zm41.17,46.12a69.34,69.34,0,0,0,4.19-6.78c2.06-4.36.12-7.48-4.68-6.84-3.69.5-7.23,2.33-10.78,3.7a1.89,1.89,0,0,0-.6,1.73c.3.79.94,1.87,1.62,2A16.35,16.35,0,0,1,106.44,63.19Z"/><path class="cls-2" d="M205.25,86.84h10.93l.69,1.08c-2.05.83-4.09,2.3-6.14,2.3s-4.23-1.41-6.34-2.21Z"/><path class="cls-2" d="M32.49,86.26,22,80.65Q30.7,76.35,32.49,86.26Z"/></g><g id="face"><path class="cls-3" d="M19.36,32.36c.26-7.94.54-15.83,4.37-22.94C26.54,4.19,30.5,3.68,34.51,8c2.25,2.43,4.05,5.28,6.37,8.37C31.58,19.44,25.73,26.11,19.36,32.36Z"/><path class="cls-3" d="M65.27,17.07C68.71,13,72.15,9.27,76.8,7c3-1.49,5-.86,6.06,2.37A54.71,54.71,0,0,1,84.93,19a75.92,75.92,0,0,1,.47,8.41A36.13,36.13,0,0,1,85.07,34C79.76,26.86,73.57,20.88,65.27,17.07Z"/><path class="cls-3" d="M58.88,68.34c-2.49-2-5.18-.37-8.14.63s-7-2.07-7-5.2c0-.63.63-1.28,1-1.92.59.42,1.56.75,1.69,1.29.51,2,1.69,3.12,3.74,3s2.86-1.69,3.21-3.6c.1-.54.83-1.33,1.28-1.34a2,2,0,0,1,1.46,1.19c.56,2,1.71,3.18,3.76,3S62.62,63.82,63,62c.12-.63,1-1.1,1.56-1.64.42.67,1.18,1.34,1.21,2C65.9,65.52,62.85,68.34,58.88,68.34Z"/><path class="cls-3" d="M44.89,49a4.28,4.28,0,0,1-4.18-4.35,4.23,4.23,0,0,1,4.44-4.32,4.33,4.33,0,0,1,4.23,4.33A4.4,4.4,0,0,1,44.89,49Z"/><path class="cls-3" d="M65.87,44.55A4.79,4.79,0,0,1,61.59,49a4.31,4.31,0,0,1-4.38-4.19,4.24,4.24,0,0,1,4.3-4.49A4.32,4.32,0,0,1,65.87,44.55Z"/><path class="cls-3" d="M54.12,57.68c-2.62.08-4.55-1.12-4.59-2.83s1.94-3.08,4.46-3.12a6.89,6.89,0,0,1,1.43.16c1.78.35,3.61,1.24,3.12,3.16-.28,1.1-2.23,1.79-3.47,2.61C54.85,57.81,54.44,57.68,54.12,57.68Z"/></g></g></g></g></svg>