<svg xmlns="http://www.w3.org/2000/svg" viewBox="0 0 476.25 236.62">
  <g id="Layer_2" data-name="Layer 2">
    <g id="groups">
      <rect id="groups-bck" width="286" height="208" rx="22.19" fill="#8a8bff" opacity="0.12"/>
      <g id="groups-right-module">
        <path id="groups-right-module-bcg" d="M444.18,225.8H217.42c-17.71,0-32.07-10.07-32.07-22.49V34.3c0-12.43,14.36-22.5,32.07-22.5H444.18c17.71,0,32.07,10.07,32.07,22.5v169C476.25,215.73,461.89,225.8,444.18,225.8Z" fill="#c3c3e5"/>
        <g id="lines-top">
          <circle id="circle-t" cx="436.94" cy="70.25" r="14.18" fill="#8a8bff" stroke="#f2f2f2" stroke-miterlimit="10" stroke-width="3"/>
          <rect id="rect-t" x="219.94" y="64.21" width="192.82" height="4.5" fill="#f2f2f2"/>
          <line id="thin-black-t" x1="269.2" y1="76.3" x2="412.17" y2="76.3" fill="none" stroke="#000" stroke-miterlimit="10"/>
        </g>
        <g id="lines-middle">
          <circle id="circle-m" cx="436.94" cy="119.05" r="14.18" fill="#8a8bff" stroke="#f2f2f2" stroke-miterlimit="10" stroke-width="3"/>
          <rect id="rect-m" x="219.94" y="113.01" width="192.82" height="4.5" fill="#f2f2f2"/>
          <line id="thin-black-m" x1="269.2" y1="125.09" x2="412.17" y2="125.09" fill="none" stroke="#000" stroke-miterlimit="10"/>
        </g>
        <g id="lines-bottom">
          <circle id="circle-b" cx="436.94" cy="167.85" r="14.18" fill="none" stroke="#f2f2f2" stroke-miterlimit="10" stroke-width="3"/>
          <rect id="rect-b" x="219.94" y="161.81" width="192.82" height="4.5" fill="#f2f2f2"/>
          <line id="thin-black-b" x1="269.2" y1="173.89" x2="412.17" y2="173.89" fill="none" stroke="#000" stroke-miterlimit="10"/>
        </g>
        <g id="plus-button">
          <circle id="button-bcg" cx="273.54" cy="214.05" r="22.57" fill="#8a8bff"/>
          <path id="plus" d="M264,211.82h7.34v-7.34h4.42v7.34h7.34v4.41h-7.34v7.39h-4.39v-7.39H264Z" fill="#fff"/>
        </g>
      </g>
      <g id="groups-chat-bubble">
        <g id="groups-chat-bubble-bcg">
          <polygon points="149.69 106.71 131.02 90.22 150.06 90.22 149.69 106.71" fill="#8a8bff"/>
          <rect x="24" y="28.63" width="144.35" height="63.46" rx="25.73" fill="#8a8bff"/>
        </g>
        <g id="groups-chat-bubble-docs">
          <circle cx="115.46" cy="60.36" r="5.6" fill="#fff"/>
          <circle cx="96.18" cy="60.36" r="5.6" fill="#fff"/>
          <circle cx="76.89" cy="60.36" r="5.6" fill="#fff"/>
        </g>
      </g>
      <text transform="translate(3.11 168.59) scale(0.99 1)" font-size="61.76" fill="#3d3d3d" font-family="Poppins-SemiBold, Poppins" font-weight="600">Groups</text>
    </g>
  </g>
</svg>
