<svg xmlns="http://www.w3.org/2000/svg" viewBox="0 0 318.19 247.03"><defs><style>.cls-1{fill:#434d9b;}.cls-2{fill:#bfc0e2;}</style></defs><g id="Layer_2" data-name="Layer 2"><g id="cow"><path class="cls-1" d="M23,58.51c-3.94.35-7.61.82-11.3,1A11.4,11.4,0,0,1,1.57,54.2c-3-4.36-1.57-9.81,3.56-11,3.67-.84,7.79-.26,11.62.31,4,.6,7.84,2,12.71,3.24-10.39-9.65-16-20-10.46-33.34C22,6.35,33.69-.22,41.87,0c-.77,3.84-2,7.62-2.19,11.45a59.52,59.52,0,0,0,.7,14.68c1,4.79,3.74,5.39,8,3.08,14-7.49,27.66-6,41,1.7,3.8,2.19,4.72,2,6.73-1.87C99.41,22.74,99,16.1,97.63,9.44c-.47-2.28-1.22-4.51-2-7.48,2.55.16,4.85,0,7,.49C116.24,5.55,124,19.1,119,32.19c-2,5.21-5.68,9.77-8.64,14.6a6.82,6.82,0,0,0-1.49,3.27,74.41,74.41,0,0,1,7-2.83c4.58-1.34,9.18-3,13.88-3.45,5.4-.53,9,2.9,9.32,7.45a9.55,9.55,0,0,1-8.65,10.26c-4.31.31-8.66-.05-13-.14-.84,0-1.69-.17-3.39-.35,1.67,6.15,3.23,11.87,5,18.48,7.73-1.36,15.41-2.51,23-4.07,29-6,58.13-9.92,87.78-9.38a85.15,85.15,0,0,1,28,5A51.25,51.25,0,0,1,286.58,96.1,9.36,9.36,0,0,0,290,99.69c10.31,6,18.13,14,22.36,25.4,1.48,4,4.1,7.52,5.42,11.52.82,2.45.15,5.39.15,8.12l-1,.16-3-3.18c-.42,1.41-.75,2.52-1.39,4.64-1.22-2.07-2.56-3.45-2.85-5-.6-3.26-.52-6.64-.94-9.94-.33-2.7-.43-5.64-1.59-8-3.15-6.41-8.74-10.61-14.09-14.25,1.31,6.81,3.1,13.85,3.95,21,1.32,11.17.7,22.27-3.67,32.88a36.29,36.29,0,0,1-12.22,16,4.24,4.24,0,0,0-1.88,5.05q4.11,16.74,8.18,33.49c.84,3.49,1.79,7,2.33,10.5a13,13,0,0,1-.37,5.82c-3,9-18.19,13.48-25.69,7.74-3.32-2.55-4.56-6-5-10-.9-8.72-1.86-17.44-2.83-26.39-4,1.57-5.87,3.37-4.65,7.88,1.29,4.77.27,5.7-4.41,6.61-.46,4-.92,8-1.4,12.05-.94,7.92-7.21,12.73-15.16,11.72-5.36-.68-10.45-2-12.79-7.48a14.33,14.33,0,0,1-1.27-7.78c1.37-7.41,3.39-14.69,5.14-22,.92-3.88,0-5-3.6-4.61a326.57,326.57,0,0,1-77.17-.06,17,17,0,0,0-1.71,0c.25,2.71.49,5.35.73,8,.59,6.29,1,12.6,1.79,18.87,1.52,12.62-5.67,19.89-18.33,18.39-7.39-.88-12.18-5.81-12.48-13.31-.49-12.14-.88-24.28-1.06-36.43-.06-3.5-1.65-4.82-5-5.26l-5,23.51c-.7,3.27-1.36,6.54-2.1,9.8C96,231.4,92,235,85.67,234.88a26.59,26.59,0,0,1-9.67-2c-5.93-2.5-7.71-6.84-5.81-13,4.08-13.24,8.34-26.42,12.3-39.69a9.54,9.54,0,0,0-.41-5.82c-2.26-5.6-4.82-11.09-7.45-16.52a3.93,3.93,0,0,0-2.71-1.71c-3.81-.5-7.72-.35-11.46-1.13-18.32-3.79-29.88-15.75-37.38-32.09-9-19.73-8.81-39.8-1.25-60,.39-1,.73-2.1,1.06-3.16A5.77,5.77,0,0,0,23,58.51Zm92.55,62.08L101,143c1.3,3.16,3,6.85,4.35,10.69,2.41,7.13-5.16,18.2-13.84,15.9a8.82,8.82,0,0,0-4.05-.16,7.65,7.65,0,0,0-3.71,2c-.3.3.69,2.17,1.4,3.08,4.86,6.17,11.24,10.4,18.19,13.84,1.7.85,3.5,1.5,5.8,2.48V167.57c1,.45,1.4,1,1.46,1.51.54,4.92,1.33,9.83,1.46,14.76.42,15.86.57,31.73.86,47.6.09,5.15,3.47,10.65,7.29,12,4.77,1.72,12.67.29,15.42-3.69,1.74-2.53,2.51-6,2.81-9.18s-1-6.43-.77-9.58c.45-5.17-2.5-7.75-6.37-9.82-1.71-.92-3.76-1.21-5.53-2-1-.45-2.2-1.35-2.36-2.22-.86-4.62,4.87-12.71,9.11-13.45,1-8.8,1.92-17.55,2.88-26.3l1.17.1a11.6,11.6,0,0,1,.1,2c-1,8.92-.91,17.78,1.73,26.45.29,1,1.22,2.35,2,2.46a56.8,56.8,0,0,0,7.42.11,17.63,17.63,0,0,0-.27-3.48c-2-6.93,1-11.72,6.45-15.52,1.53-1.06,3.1-2.05,4.69-3,13.34-8.1,27.34-6.39,41.36-2.54,8.58,2.35,10.34,5,10.42,13.78,0,3.15,0,6.31,0,9.77,2.8-.26,5.07-.19,7.2-.72,10.81-2.67,21.54-5.66,32.39-8.18,3-.69,3.37-2.17,2.76-4.42-1-3.58-2.24-7.07-3.26-10.63-.54-1.88-.82-3.83-1.22-5.75l1.51-.51a40,40,0,0,1,2.88,6c1.44,4.86,2.48,9.83,3.81,14.72,1,3.6,2.67,6.24,6.86,7.35,6.26,1.64,9.37,8.08,7.73,14.44-1.27,4.9-3,5.75-7.7,3.91a25.92,25.92,0,0,0-2.81-.66c.8,6.92,1.22,13.46,2.4,19.86,1.06,5.77,5.64,8.36,11.67,7.44,7.53-1.16,12.26-5.28,11.63-11.06A153.82,153.82,0,0,0,283,211.65c-2.64-11.55-5.75-23-8.05-34.62-.84-4.24.07-8.83.19-13.77,1,.61,1.16.65,1.18.72.48,1.91.82,3.87,1.45,5.72a20.59,20.59,0,0,0,1.91,3.38,15.29,15.29,0,0,0,3.25-2.19c9.64-10.82,11.15-23.79,9.93-38.08-2.34.71-4.36,1.18-6.28,1.93-3.57,1.41-7.06,3-10.61,4.47-15.32,6.31-31,11.18-47.75,11.62-10.31.27-12.55-2.11-11.44-12.34,0-.24.07-.49.09-.74.65-7.51,1.77-15,1.8-22.54a130.92,130.92,0,0,0-1.83-21.08c-1.15-7.18-3.1-14.23-4.8-21.31-.6-2.49-2.12-3.56-4.92-3.21-10.19,1.27-20.4,2.32-30.86,3.48a67,67,0,0,1-10.4,28.78c-7.68,12.2-17.3,22.25-31,27.92-4.17,1.73-7.71,1.22-11-1.66C120.85,125.44,117.84,122.69,115.51,120.59Zm-91.29-1.88c4.57,10.8,11.3,20,21.14,26.62,12.36,8.33,25.51,9.48,39.2,3.53,10.8-4.7,18.33-12.88,24-22.94,2.43-4.28,2.33-4.87-1.62-7.88a45.57,45.57,0,0,0-6.85-4.44c-6.4-3.26-12.89-6.33-19.35-9.45a41.76,41.76,0,0,0-22.82-3.72c-7.56.78-15,1.92-21,7.27C32.83,111.31,28.69,114.83,24.22,118.71Zm54.18,84c-1.89,6.7-3.74,13.08-5.43,19.5a5.65,5.65,0,0,0,.5,3.22c1.52,3.75,7.29,6.48,12.64,6.11,4.65-.33,7.27-2.48,8.37-7.5,2.25-10.27,4.33-20.57,6.37-30.88.22-1.07.09-2.83-.59-3.34-4.66-3.56-9.51-6.87-14.32-10.26-2.15,5-4.26,9.95,1.53,14.06a4.42,4.42,0,0,1,1.14,1.89c1.15,2.69-.14,7.71-2.44,9.56-2.77,2.23-4.14-.77-6.08-1.65C79.76,203.25,79.41,203.12,78.4,202.7ZM232.75,211a46,46,0,0,1-.09,6.47,3.61,3.61,0,0,1-2,2.62,3.7,3.7,0,0,1-3.13-1.22,12.47,12.47,0,0,1-1.78-4.4c-.46-1.83-.64-3.73-.94-5.6a142.12,142.12,0,0,0-5.42,19.36c-.77,3.51-.24,7.13,3.21,8.72a31.4,31.4,0,0,0,11.23,3c4.17.22,7.18-2.56,8.36-6.66a48,48,0,0,0,1.39-7.66c.55-4.72.95-9.46,1.41-14.2l-1.45-.33a8.76,8.76,0,0,0-.75,2.49c0,2.1.22,4.19.31,6.29.12,2.59-1.18,3.94-3.74,4-2.76.11-3.76-1.57-3.72-4s.31-4.93.44-7.4a4.76,4.76,0,0,0-.26-1.16ZM82.37,53.43l.3-.09A32.32,32.32,0,0,0,81,47.74c-.52-1.05-1.9-2.3-2.9-2.3a4.18,4.18,0,0,0-3,2.22,16.6,16.6,0,0,0-1.28,5.72c-.26,4.33,1.92,8,4.45,7.92,2.21-.06,4-3.29,4.09-7.5Zm-25,0c0-4.69-1.77-8.2-4.08-8.16-2.56,0-4.55,3.86-4.38,8.38.17,4.24,2.21,7.75,4.43,7.63S57.36,57.9,57.34,53.47Z"/><path class="cls-2" d="M115.51,120.59c2.33,2.1,5.34,4.85,8.4,7.54,3.3,2.88,6.84,3.39,11,1.66,13.65-5.67,23.27-15.72,31-27.92a67,67,0,0,0,10.4-28.78c10.46-1.16,20.67-2.21,30.86-3.48,2.8-.35,4.32.72,4.92,3.21,1.7,7.08,3.65,14.13,4.8,21.31a130.92,130.92,0,0,1,1.83,21.08c0,7.52-1.15,15-1.8,22.54,0,.25-.07.5-.09.74-1.11,10.23,1.13,12.61,11.44,12.34,16.76-.44,32.43-5.31,47.75-11.62,3.55-1.46,7-3.06,10.61-4.47,1.92-.75,3.94-1.22,6.28-1.93,1.22,14.29-.29,27.26-9.93,38.08a15.29,15.29,0,0,1-3.25,2.19,20.59,20.59,0,0,1-1.91-3.38c-.63-1.85-1-3.81-1.45-5.72,0-.07-.18-.11-1.18-.72-.12,4.94-1,9.53-.19,13.77,2.3,11.62,5.41,23.07,8.05,34.62a153.82,153.82,0,0,1,3.35,17.45c.63,5.78-4.1,9.9-11.63,11.06-6,.92-10.61-1.67-11.67-7.44-1.18-6.4-1.6-12.94-2.4-19.86a25.92,25.92,0,0,1,2.81.66c4.74,1.84,6.43,1,7.7-3.91,1.64-6.36-1.47-12.8-7.73-14.44-4.19-1.11-5.88-3.75-6.86-7.35-1.33-4.89-2.37-9.86-3.81-14.72a40,40,0,0,0-2.88-6l-1.51.51c.4,1.92.68,3.87,1.22,5.75,1,3.56,2.31,7.05,3.26,10.63.61,2.25.22,3.73-2.76,4.42-10.85,2.52-21.58,5.51-32.39,8.18-2.13.53-4.4.46-7.2.72,0-3.46,0-6.62,0-9.77-.08-8.81-1.84-11.43-10.42-13.78-14-3.85-28-5.56-41.36,2.54-1.59,1-3.16,2-4.69,3-5.42,3.8-8.46,8.59-6.45,15.52a17.63,17.63,0,0,1,.27,3.48,56.8,56.8,0,0,1-7.42-.11c-.79-.11-1.72-1.49-2-2.46-2.64-8.67-2.69-17.53-1.73-26.45a11.6,11.6,0,0,0-.1-2l-1.17-.1c-1,8.75-1.92,17.5-2.88,26.3-4.24.74-10,8.83-9.11,13.45.16.87,1.41,1.77,2.36,2.22,1.77.83,3.82,1.12,5.53,2,3.87,2.07,6.82,4.65,6.37,9.82-.27,3.15,1.07,6.44.77,9.58s-1.07,6.65-2.81,9.18c-2.75,4-10.65,5.41-15.42,3.69-3.82-1.37-7.2-6.87-7.29-12-.29-15.87-.44-31.74-.86-47.6-.13-4.93-.92-9.84-1.46-14.76-.06-.55-.45-1.06-1.46-1.51v23.24c-2.3-1-4.1-1.63-5.8-2.48-7-3.44-13.33-7.67-18.19-13.84-.71-.91-1.7-2.78-1.4-3.08a7.65,7.65,0,0,1,3.71-2,8.82,8.82,0,0,1,4.05.16c8.68,2.3,16.25-8.77,13.84-15.9-1.3-3.84-3-7.53-4.35-10.69Zm66.87-6.78h-2.5c-8.52-.12-14.26,3.17-16.79,11.94-1,3.59-4.19,6.55-6.19,9.91a89.41,89.41,0,0,0-6,11.22c-.42,1,.88,3.63,2.08,4.36q9.51,5.74,19.42,10.85c5.72,3,9.14,2.39,13.74-2.08,6.63-6.44,10.88-14.36,13.51-23.13C202.27,128.28,194.92,111.88,182.38,113.81Z"/><path class="cls-2" d="M24.22,118.71c4.47-3.88,8.61-7.4,12.67-11,6-5.35,13.49-6.49,21-7.27a41.76,41.76,0,0,1,22.82,3.72c6.46,3.12,12.95,6.19,19.35,9.45A45.57,45.57,0,0,1,107,118c4,3,4.05,3.6,1.62,7.88-5.69,10.06-13.22,18.24-24,22.94-13.69,5.95-26.84,4.8-39.2-3.53C35.52,138.7,28.79,129.51,24.22,118.71ZM75,124.12c5.16,0,9.07-2.46,9.18-5.68s-3.44-6.11-8.54-6.65c-4.8-.51-9.78,2.36-9.93,5.72S70,124.17,75,124.12Zm-23.79-.59c5.14,0,9-2.7,9-6.19,0-3.75-4.36-7-9.13-6.59a9.73,9.73,0,0,0-3.83,1.15c-2.34,1.3-4.3,3.1-3.76,6.12.58,3.17,2.86,4.73,5.87,5.35A12.55,12.55,0,0,0,51.18,123.53Z"/><path class="cls-2" d="M78.4,202.7c1,.42,1.36.55,1.69.71,1.94.88,3.31,3.88,6.08,1.65,2.3-1.85,3.59-6.87,2.44-9.56a4.42,4.42,0,0,0-1.14-1.89c-5.79-4.11-3.68-9-1.53-14.06,4.81,3.39,9.66,6.7,14.32,10.26.68.51.81,2.27.59,3.34-2,10.31-4.12,20.61-6.37,30.88-1.1,5-3.72,7.17-8.37,7.5-5.35.37-11.12-2.36-12.64-6.11a5.65,5.65,0,0,1-.5-3.22C74.66,215.78,76.51,209.4,78.4,202.7Z"/><path class="cls-2" d="M232.75,211l3.11.33a4.76,4.76,0,0,1,.26,1.16c-.13,2.47-.39,4.94-.44,7.4s1,4.11,3.72,4c2.56-.1,3.86-1.45,3.74-4-.09-2.1-.32-4.19-.31-6.29a8.76,8.76,0,0,1,.75-2.49l1.45.33c-.46,4.74-.86,9.48-1.41,14.2a48,48,0,0,1-1.39,7.66c-1.18,4.1-4.19,6.88-8.36,6.66a31.4,31.4,0,0,1-11.23-3c-3.45-1.59-4-5.21-3.21-8.72a142.12,142.12,0,0,1,5.42-19.36c.3,1.87.48,3.77.94,5.6a12.47,12.47,0,0,0,1.78,4.4,3.7,3.7,0,0,0,3.13,1.22,3.61,3.61,0,0,0,2-2.62A46,46,0,0,0,232.75,211Z"/><path class="cls-2" d="M82.37,53.43v.37c-.12,4.21-1.88,7.44-4.09,7.5-2.53.07-4.71-3.59-4.45-7.92a16.6,16.6,0,0,1,1.28-5.72,4.18,4.18,0,0,1,3-2.22c1,0,2.38,1.25,2.9,2.3a32.32,32.32,0,0,1,1.65,5.6Z"/><path class="cls-2" d="M57.34,53.47c0,4.43-1.67,7.72-4,7.85s-4.26-3.39-4.43-7.63c-.17-4.52,1.82-8.33,4.38-8.38C55.57,45.27,57.32,48.78,57.34,53.47Z"/><path class="cls-1" d="M182.38,113.81c12.54-1.93,19.89,14.47,17.3,23.07-2.63,8.77-6.88,16.69-13.51,23.13-4.6,4.47-8,5-13.74,2.08Q162.55,157,153,151.24c-1.2-.73-2.5-3.32-2.08-4.36a89.41,89.41,0,0,1,6-11.22c2-3.36,5.15-6.32,6.19-9.91,2.53-8.77,8.27-12.06,16.79-11.94Z"/><path class="cls-1" d="M75,124.12c-5,0-9.44-3.13-9.29-6.61s5.13-6.23,9.93-5.72c5.1.54,8.66,3.31,8.54,6.65S80.13,124.08,75,124.12Z"/><path class="cls-1" d="M51.18,123.53a12.55,12.55,0,0,1-1.89-.16c-3-.62-5.29-2.18-5.87-5.35-.54-3,1.42-4.82,3.76-6.12A9.73,9.73,0,0,1,51,110.75c4.77-.38,9.13,2.84,9.13,6.59C60.14,120.83,56.32,123.57,51.18,123.53Z"/></g></g></svg>