<svg xmlns="http://www.w3.org/2000/svg" viewBox="0 0 206.87 235.11"><defs><style>.cls-1{fill:#273372;}.cls-2{fill:#bfc0e2;}.cls-3{fill:#daa757;}.cls-4{fill:#332f2c;}</style></defs><g id="Layer_2" data-name="Layer 2"><g id="dog"><path class="cls-1" d="M146,137.34l-2.49,2.06a16.73,16.73,0,0,0-6.37,11.41q-3,27.23-6.13,54.44c-.22,1.88.18,2.39,2.06,2.56a7.46,7.46,0,0,1,6.64,5.53c.25,1,.12,1.57-1.09,1.56-5.15,0-10.3,0-15.45,0-1,0-1.54-.39-1.46-1.46,0-.58,0-1.17,0-1.75V154.14c0-3,0-3-2.56-1.65q-17.82,9.42-35.61,18.88a16.12,16.12,0,0,0-1.44.94c-4.33,2.24-8.64,4.5-13,6.72C55.67,185.92,41.67,191.54,28,197.77c-5.42,2.46-10.75,5.12-16.39,7.08-.51,0-1,0-1.2.59l-.87.39-.63.31-.73.22c-.77-.05-1.64-.29-1.8.89a9.31,9.31,0,0,1-3.48,1.54,2,2,0,0,0-1.44-.67c0-.19,0-.29.23-.31a1,1,0,0,0,.71-1c6-8.39,11.87-16.8,17.87-25.15Q75.78,104.23,131.33,26.82c5.9-8.23,11.37-16.76,17.06-25.14.41-.6.64-1.37,1.41-1.68,4.06,7.12,2,17.89-4.91,25.21a48.09,48.09,0,0,0-6.16,6.44c-14.28,16.56-18.09,34.79-9,55.2,3.88,8.66,8.95,16.67,13.26,25.08,4.07,7.93,7.13,16,3.33,24.94l0,0C146,136.83,145.92,137,146,137.34Z"/><path class="cls-2" d="M146.36,136.87c3.8-9,.74-17-3.33-24.94-4.31-8.41-9.38-16.42-13.26-25.08-9.13-20.41-5.32-38.64,9-55.2a48.09,48.09,0,0,1,6.16-6.44c.76.95,1.84.57,2.78.57,9.93,0,19.87,0,29.81,0,.82,0,1.64.1,2.47.15-1,9-4.85,13.25-13.73,15.11-1.69.36-3.39.74-5.06,1.22-6.15,1.78-9.27,9.12-6.19,14.52,1.46,5.55,1.61,11.27,2.21,16.92,1,9.38,2.46,18.72,2.86,28.16.4,9.27-.89,18.22-5.77,26.32C152.22,131.59,150,134.92,146.36,136.87ZM159.05,30.78a2.14,2.14,0,1,0-4.27.18A2,2,0,0,0,157,33.05,2,2,0,0,0,159.05,30.78Z"/><path class="cls-1" d="M1.41,208.12a2,2,0,0,1,1.44.67c-.32.5-1.25.46-1.27,1.49h3c24.8,0,49.61.06,74.41,0,7,0,13.48,1.32,19.48,4.93a34.17,34.17,0,0,1,13.92,17.64c.59,1.7.44,2.29-1.57,2.29-26.73-.06-53.45.06-80.17-.08-13.77-.08-26-9.42-30.36-22.54C-.28,210.68-.09,209.3,1.41,208.12Z"/><path class="cls-2" d="M98.5,215.18c-6-3.61-12.51-5-19.48-4.93-24.8.09-49.61,0-74.41,0h-3c0-1,.95-1,1.27-1.49a9.31,9.31,0,0,0,3.48-1.54,2.44,2.44,0,0,0,1.8-.89l.73-.22.63-.31.87-.39a1.46,1.46,0,0,0,1.2-.59c5.64-2,11-4.62,16.39-7.08,13.72-6.23,27.72-11.85,41.14-18.74,4.34-2.22,8.65-4.48,13-6.72,1.77,1.86,3.84,3.42,5.32,5.55a22.44,22.44,0,0,1,4.2,12.58c.06,3.24,0,6.48,0,9.72,0,3.39,0,3.39,3.33,3.48a14.11,14.11,0,0,1,12.74,8.84c.68,1.68.51,2.38-1.55,2.38C103.59,214.86,101,214.42,98.5,215.18Z"/><path class="cls-1" d="M155,56.81c-3.08-5.4,0-12.74,6.19-14.52,1.67-.48,3.37-.86,5.06-1.22C175.1,39.21,179,35,180,26c8.55-.05,17.1-.09,25.65-.17,1.19,0,1.51.48,1.09,1.52-3.47,8.53-7.58,16.64-15.19,22.36-3.77,2.83-8.05,2.9-12.39,2.09-3.83-.71-7.6-1.76-11.42-2.54-6.87-1.41-9.66.17-12,6.69C155.54,56.32,155.42,56.68,155,56.81Z"/><path class="cls-3" d="M146,137.34c0-.32.08-.51.43-.5C146.45,137.19,146.27,137.32,146,137.34Z"/><path class="cls-4" d="M159.05,30.78a2,2,0,0,1-2,2.27A2,2,0,0,1,154.78,31a2.14,2.14,0,1,1,4.27-.18Z"/></g></g></svg>