<svg xmlns="http://www.w3.org/2000/svg" viewBox="0 0 267.56 152.11"><defs><style>.cls-1{fill:#434d9b;}.cls-2{fill:#273372;}.cls-3{fill:#bfc0e2;}</style></defs><g id="Layer_2" data-name="Layer 2"><g id="fish"><g id="fish-2" data-name="fish"><g id="fins"><path class="cls-1" d="M56.9,59.18c.34-1.25.63-2.51,1-3.74C63.55,38.1,74.84,25.31,90.09,15.77c12-7.51,25.13-12.06,39-14.56a81,81,0,0,1,33.43,1.2c9.28,2.22,16.93,7.11,21.93,15.49A35.61,35.61,0,0,1,187.14,24c.52,1.4.21,1.74-1.3,1.51-2.5-.39-5-.93-7.47-1.38a122.88,122.88,0,0,0-27.49-1.68,132.38,132.38,0,0,0-30.25,4.82A184,184,0,0,0,73.46,48.65c-5,3.11-9.81,6.51-14.71,9.78-.51.33-1,.62-1.57.94Z"/><path class="cls-1" d="M173,114.85c-4.42,1.09-8.81,2.39-13.27,3.22a42.64,42.64,0,0,1-22.53-1.42,40.13,40.13,0,0,1-14.72-9.51c-1.24-1.23-1.34-1.87,0-2.91a92,92,0,0,1,8.73-6A44.5,44.5,0,0,1,143.82,93c4.6-1,9.3-.84,14-.45,3.19.28,6.35,1,9.52,1.48a3.61,3.61,0,0,1,3.26,3.42c.6,4.43,1.25,8.86,1.88,13.3C172.6,112,172.75,113.28,173,114.85Z"/><path class="cls-1" d="M78.17,134.79c-1.7,6.31-13.48,12.05-25.56,12.43.3-2.66.45-5.32.92-7.92a29.06,29.06,0,0,1,6.62-14.08c.72-.84,1.21-1,2.21-.39,4.5,3,9,5.86,13.59,8.77C76.63,134,77.37,134.36,78.17,134.79Z"/></g><path id="body" class="cls-2" d="M154.15,152.11c-1.84-.15-3.69-.32-5.54-.45-20.51-1.43-39.66-7.5-57.84-16.9A200.28,200.28,0,0,1,43.2,100.67c-1.52-1.47-3.14-2.83-4.77-4.29-5.71,19.18-19,27.78-38.35,28.32C-.82,108.36,6.67,97,21.49,90.08,7.16,82.75-1.1,71.94.12,55.27l4.68.53a42.93,42.93,0,0,1,13.92,3.4C27.93,63.54,34,70.7,37.31,80.3c.36,1.06.65,2.14,1,3.4,1.13-1,2.15-1.88,3.13-2.79a235.44,235.44,0,0,1,36.2-28c15.67-9.66,32.26-17.14,50.23-21.42a124.07,124.07,0,0,1,36.84-3.22,132.15,132.15,0,0,1,23.78,4.16,14.07,14.07,0,0,1,1.69.62c-1.29,1.68-2.49,3.26-3.72,4.82-6.37,8-10.14,17.27-12.73,27.07A123.87,123.87,0,0,0,170.49,85v.14c-.24,3.21-.37,3.2-3.44,2.59-9.34-1.84-18.71-2.47-28,.2-8.81,2.53-16.18,7.58-22.84,13.74a12.52,12.52,0,0,0-.94,1c-1.8,2.07-1.89,3.2-.24,5.41,3.4,4.57,8,7.65,12.84,10.55,8.77,5.29,18.25,6.9,28.35,5.83a68.14,68.14,0,0,0,17.15-3.93c.42-.16.85-.26,1.52-.46a81.58,81.58,0,0,0,15.44,27.21c-2,.5-3.51,1-5.07,1.28-7.77,1.56-15.56,3.06-23.51,3.37a4.3,4.3,0,0,0-.79.18Z"/><g id="face"><path id="face-2" data-name="face" class="cls-3" d="M267.56,89.83c-6.72,9.24-14.73,17.31-22.88,25.26-1.39,1.36-2.75,2.76-4.19,4.08a2,2,0,0,1-1.4.53,31.4,31.4,0,0,1-11.51-2.89,38.16,38.16,0,0,1-5-3.2,3.66,3.66,0,0,0-3.79-.71,2.45,2.45,0,0,0-1.6,2.59,3.87,3.87,0,0,0,1,2.1,24.88,24.88,0,0,0,8.54,5.43l5.14,2.17a10.93,10.93,0,0,1-1.58,1.57c-5.92,3.67-11.79,7.44-17.85,10.88-3.64,2.06-7.58,3.6-11.41,5.35a4.23,4.23,0,0,1-5.26-1.19,61.16,61.16,0,0,1-13.41-23.21c-3.68-11.26-4.6-22.87-4-34.61a84.11,84.11,0,0,1,7.27-31.4,52.48,52.48,0,0,1,10.31-15.22c1.81-1.83,3.44-2.27,6-1.16a157.34,157.34,0,0,1,39.8,25.19A193.3,193.3,0,0,1,265.25,86c.79,1,1.54,2,2.31,3ZM216.33,90c9.2.89,14.18-6.63,14.51-12.46a13.76,13.76,0,0,0-14-14.6c-8.88,0-13.61,7.52-13.76,13.4-.1,4.1,1.76,7.39,4.4,10.35C210,89.45,213.2,90,216.33,90Z"/><path id="eye" class="cls-1" d="M216.42,84.4c-3.49,0-7.15-3.87-7.19-7.68,0-4,4-8.33,7.71-8.25,3.87.08,7.94,4.19,8,8.09C225,80.86,221.22,84.35,216.42,84.4Z"/></g></g></g></g></svg>