<svg xmlns="http://www.w3.org/2000/svg" viewBox="0 0 244.46 271.74"><defs><style>.cls-1{fill:#434d9b;}.cls-2{fill:#bfc0e2;}.cls-3{fill:#273372;}</style></defs><g id="Layer_2" data-name="Layer 2"><g id="monkey"><path class="cls-1" d="M62.67,153.69c-2.31-4.76-4.47-9.35-6.79-13.85a3.09,3.09,0,0,0-2.17-1.16C43.25,137.64,34,130,32,119.52c-1.7-8.77-1.9-17.63,3-25.82,3.61-6,8.73-9.75,15.69-10.55,2.48-.28,3.38-1.2,4.08-3.55C60.39,60.53,70.1,44,86.35,32,99.56,22.23,114.72,17.75,131,16.8c18-1.06,35.12,2.2,50.73,11.48,17.95,10.68,28.81,27,35.82,46.28a12.58,12.58,0,0,1,.4,1.49c.83,3.58,2.3,5.53,6.7,6.16,10.46,1.49,17.63,10.26,18.41,21.26.3,4.22.72,8.61-.06,12.7-1.62,8.55-5.86,15.57-14.49,18.9-2.73,1.06-5.64,1.64-8.44,2.54a3.14,3.14,0,0,0-1.75,1.29c-2.89,5.77-5.68,11.59-8.68,17.78.87,0,2.06,0,3.24,0,14.21-.24,33,14.14,31.54,32-.68,8.38-4.11,15.19-10.79,20-10,7.16-21.31,11.79-32.91,15.53-5.67,1.82-11.23.2-15.68-4.07a6.8,6.8,0,0,1-1.89-7.75c1.11-2.94,3.71-2.71,6.19-2.63a13.78,13.78,0,0,0,3.46,0,21.54,21.54,0,0,0,3.57-1.48c-1-1.14-2.06-2.29-3.13-3.4-.14-.14-.52,0-.75-.12-1.46-.61-2.92-1.24-4.37-1.87,1.43-1.46,2.67-3.86,4.34-4.2,4-.82,8.12-.7,12.21-.9,2.43-.11,4.91.19,7.28-.21,6.44-1.11,8.58-5.79,5.56-11.68a13.83,13.83,0,0,0-10.3-7.39c-13-2.31-24.41.56-27.46,14.44a42,42,0,0,0,.35,19.08,158.89,158.89,0,0,1,3.32,16.55c.75,5.83-1.19,11.14-4.62,15.9a60.25,60.25,0,0,0-3.34,5.19c-3.07,5.3-2.79,6.85,1.8,10.85,3.9,3.41,3.53,7.8-1.25,9.74-6.47,2.62-12.94,2.06-18.58-2.29s-7.73-12.78-5.42-19.63c.82-2.43,2.1-4.71,2.82-7.16,2.38-8-.16-13.27-8.34-15.09a37.07,37.07,0,0,0-14.8-.24c-9.08,1.76-12.57,8.23-10.45,17.33,1,4.48,2.53,8.94,2.92,13.49.62,7.08-4.78,10.51-10,13.26s-10.83,1.78-15.57-1.83c-3.24-2.46-3-5.88.15-8.92,6-5.74,6-6.55.18-12.28-4.07-4-8.48-7.74-7.36-14.93-4.55,1.22-8.33,2.3-12.14,3.24-17.42,4.29-34.82,5.19-52.07-.74A51.83,51.83,0,0,1,18,229.8c-16.79-9.92-16.54-34.8-.11-45.71,6-4,14.18-4.2,19.35-.65s7.67,11.12,6,18.37c-.67,2.92-1.83,5.61-5.48,5.31s-4-3.11-4-6-.23-5.91-3.61-6.9a8.09,8.09,0,0,0-8.72,2.56C16.33,202.3,17,212,23,217.28s13.09,7.15,20.53,8c17.53,2,34-1.34,49.08-10.82,2.85-1.79,4.18-4,3.55-7.34-.9-4.79-1.69-9.6-2.72-14.36-1.07-5-4.69-6.25-9.34-6.86C67.7,183.72,51.83,179.61,37,172a75.24,75.24,0,0,1-24.73-19.94c-5.68-7.11-8.66-15.67-10.57-24.54-5.23-24.41,2-46.14,14.43-66.76C22,51.08,27.75,41.37,33.36,31.57A24.85,24.85,0,0,0,36.12,24C39.48,6.39,61.79-4.28,78,1.65a42.35,42.35,0,0,1,9.61,4.68,8.45,8.45,0,0,1,3.21,10.59c-1.5,3.89-4.45,6.5-8.7,6.41a66.55,66.55,0,0,1-11-1.62A9.63,9.63,0,0,0,61.43,25c-.92,1.08-1.59,3.32-1.07,4.4s2.6,1.8,4.11,2.16c1,.24,2.28-.74,3.34-.58,2.09.31,5.24.47,5.88,1.74.73,1.44-.21,4.57-1.5,6-2.19,2.41-5.15,4.18-7.93,6-20,12.91-32.82,31.18-39.59,53.65-4,13.21-1.41,26.22,5.58,37.81,2.75,4.55,7.74,8.15,12.43,11A42.46,42.46,0,0,0,62.67,153.69Zm69.84,17.81c7.92-.76,16-.92,23.73-2.39,13.22-2.49,25.52-7.25,33.85-18.74,5.08-7,8.18-14.53,5.33-23.41-1.09-3.4-2.83-6.83-2.9-10.27-.14-6.63.63-13.29,1.16-19.93.41-5.1,1.87-10.26,1.41-15.27-1.53-16.63-15.56-30.1-33.84-23.51a69,69,0,0,0-10.63,5.41c-8.93,5.14-17.8,5.11-26.74.07-2.69-1.51-5.43-3-8.23-4.23-8.85-4-17.89-4.86-25.9,1.36C81,67.44,77,76.86,78.48,88.13c.61,4.58,2.28,9.06,2.45,13.62.24,6.35.93,13.21-1.06,19-5,14.54-1.75,27.72,10.64,36.94S117.24,170.44,132.51,171.5Zm2.42,42.78,0,.27c4.85-.58,9.71-1,14.52-1.77,2.88-.43,5.44-1.61,6.48-4.74,2.67-8.08-3.54-20.8-11.57-23.64-13.67-4.84-25.84,4.28-25.09,18.81.33,6.53,4.48,10.71,11,11.06C131.84,214.35,133.39,214.28,134.93,214.28Zm87.26-88.78c5.87-.22,10.57-7.55,11.17-16.11.44-6.31-4.29-14.29-11.17-14.29Zm-170.82.64V96.73c-6.85,1-10.39,6.35-10.1,14.78C41.55,119.68,45.72,125.71,51.37,126.14Z"/><path class="cls-2" d="M132.51,171.5c-15.27-1.06-29.53-4.54-42-13.81s-15.64-22.4-10.64-36.94c2-5.79,1.3-12.65,1.06-19-.17-4.56-1.84-9-2.45-13.62C77,76.86,81,67.44,89.75,60.59c8-6.22,17-5.39,25.9-1.36,2.8,1.28,5.54,2.72,8.23,4.23,8.94,5,17.81,5.07,26.74-.07A69,69,0,0,1,161.25,58c18.28-6.59,32.31,6.88,33.84,23.51.46,5-1,10.17-1.41,15.27-.53,6.64-1.3,13.3-1.16,19.93.07,3.44,1.81,6.87,2.9,10.27,2.85,8.88-.25,16.42-5.33,23.41-8.33,11.49-20.63,16.25-33.85,18.74C148.46,170.58,140.43,170.74,132.51,171.5ZM126,142c0,1.54,0,3.08,0,4.62.16,4.81,4.28,10.22,8.56,11.27s8.89-1.23,11.59-5.75c3.23-5.4,2.36-18-1.58-22.87-4.29-5.34-10.63-5-15,.15C126.37,133.28,125.88,137.47,126,142ZM98.54,95.79c.8,2.36,1.3,5.07,2.58,7.33,4,7.08,12.39,7.32,16.93.57a14.31,14.31,0,0,0,1.66-12.52c-1.34-4.59-4.64-7.93-8.52-8.38-4.61-.55-8.51,1.63-10.75,6.38C99.54,91.09,99.23,93.29,98.54,95.79ZM164,82.72c-6.29,0-10.62,5.75-10.36,13.68.21,6.7,4.45,11.88,10,12.19,5,.29,10.16-4.3,10.85-10.56a21,21,0,0,0-1.55-9.26C171.46,84.88,168.25,82.78,164,82.72Zm-26.46,26.57,0-.14c-1.77.15-3.79-.16-5.26.58-1.63.83-3.48,2.45-3.88,4.06-.33,1.35.93,3.56,2.12,4.73,3.05,3,6.93,2.23,10.47,1.13,3-.92,5.23-3.17,4.72-6.57s-3.45-3.67-6.24-3.78C138.76,109.27,138.12,109.29,137.49,109.29Z"/><path class="cls-2" d="M134.93,214.28c-1.54,0-3.09.07-4.63,0-6.52-.35-10.67-4.53-11-11.06-.75-14.53,11.42-23.65,25.09-18.81,8,2.84,14.24,15.56,11.57,23.64-1,3.13-3.6,4.31-6.48,4.74-4.81.73-9.67,1.19-14.52,1.77Z"/><path class="cls-3" d="M222.19,125.5V95.1c6.88,0,11.61,8,11.17,14.29C232.76,118,228.06,125.28,222.19,125.5Z"/><path class="cls-3" d="M51.37,126.14c-5.65-.43-9.82-6.46-10.1-14.63-.29-8.43,3.25-13.83,10.1-14.78Z"/><path class="cls-3" d="M126,142c-.12-4.57.37-8.76,3.58-12.58,4.37-5.2,10.71-5.49,15-.15,3.94,4.9,4.81,17.47,1.58,22.87-2.7,4.52-7.3,6.81-11.59,5.75s-8.4-6.46-8.56-11.27C126,145.12,126,143.58,126,142Z"/><path class="cls-3" d="M98.54,95.79c.69-2.5,1-4.7,1.9-6.62,2.24-4.75,6.14-6.93,10.75-6.38,3.88.45,7.18,3.79,8.52,8.38a14.31,14.31,0,0,1-1.66,12.52c-4.54,6.75-12.9,6.51-16.93-.57C99.84,100.86,99.34,98.15,98.54,95.79Z"/><path class="cls-3" d="M164,82.72c4.3.06,7.51,2.16,9,6A21,21,0,0,1,174.45,98c-.69,6.26-5.87,10.85-10.85,10.56-5.56-.31-9.8-5.49-10-12.19C153.33,88.47,157.66,82.76,164,82.72Z"/><path class="cls-3" d="M137.49,109.29c.63,0,1.27,0,1.91,0,2.79.11,5.73.45,6.24,3.78s-1.75,5.65-4.72,6.57c-3.54,1.1-7.42,1.88-10.47-1.13-1.19-1.17-2.45-3.38-2.12-4.73.4-1.61,2.25-3.23,3.88-4.06,1.47-.74,3.49-.43,5.26-.58Z"/></g></g></svg>