<svg xmlns="http://www.w3.org/2000/svg" width="595.64" height="508.14" viewBox="0 0 595.64 508.14">
  <g id="bb264e0b-91fc-415f-b939-527e266cb282" data-name="Layer 2">
    <g id="a700f929-6279-478d-9808-58ec4475775c" data-name="Layer 2">
      <g id="b5b314a7-6dcf-4238-891d-25c29cac68b2" data-name="black">
        <path d="M468.36,257.28a130.74,130.74,0,0,1-51.25-10.45,124.93,124.93,0,0,1-13.28-6.69,128.67,128.67,0,0,1-33.49-28.55,67.32,67.32,0,0,1-30,7.47,60.45,60.45,0,0,1-14.72-1.84c-33.37-8.39-53-42.42-53.79-43.87-1.14-2-2.19-4-3.22-6a71.12,71.12,0,0,1-12.89,1.17,63.87,63.87,0,0,1-37.89-11.95c-2.71-1.93-26.49-19.83-27.32-51.68-.82-32,20.79-50.23,25.76-54A118.05,118.05,0,0,0,79.38,20.37C68.47,25.26,31.7,44.68,16.45,89.24c-16.58,48.49,4.86,89.12,11.83,100.42,5.22,8.46,34,50.92,88.43,56.22,3.62.35,7.28.53,10.87.53,45.06,0,76.33-27.95,84.84-36.51a5.12,5.12,0,0,1,3.65-1.52,5.14,5.14,0,0,1,5.15,5,5,5,0,0,1-1.49,3.77c-11.86,11.89-44.58,39.55-92.17,39.55-3.92,0-7.9-.19-11.84-.58a120.29,120.29,0,0,1-36-9.25c-35.62-15.33-55-43.53-60.16-51.81C11.94,182.8-11.34,138.66,6.7,85.91,23.29,37.42,63.3,16.29,75.16,11A126.8,126.8,0,0,1,225.3,45.69a67.34,67.34,0,0,1,30-7.48,60.39,60.39,0,0,1,14.72,1.84c33.34,8.4,53,42.43,53.8,43.87,1.14,2,2.19,4,3.21,6a71.92,71.92,0,0,1,12.88-1.17,63.92,63.92,0,0,1,37.9,12c2.71,1.94,26.5,19.83,27.32,51.69s-20.79,50.22-25.75,54A118,118,0,0,0,516.26,236.9C527.17,232,564,212.6,579.19,168c17-49.74-6.87-92.38-11.83-100.42-5.22-8.46-34-50.92-88.43-56.21-3.62-.35-7.27-.53-10.87-.53-45.06,0-76.33,27.94-84.84,36.51a5.16,5.16,0,0,1-8.8-3.49,5,5,0,0,1,1.49-3.77C387.77,28.22,420.49.56,468.08.56c3.92,0,7.9.2,11.85.58C539.21,6.91,570.47,53,576.13,62.2c7.57,12.27,30.86,56.41,12.81,109.17-16.59,48.5-56.6,69.62-68.46,74.94A128.41,128.41,0,0,1,468.36,257.28ZM231.79,54A170.1,170.1,0,0,1,244,73.47c5.43,10.11,8.69,19.11,14.63,35.44,3.78,10.4,6.26,18.39,8.45,25.44,3.88,12.49,6.68,21.5,13.71,33.92.18.32,18.19,31.63,47.34,38.95a49.71,49.71,0,0,0,12.16,1.52,56.49,56.49,0,0,0,23.59-5.47,170.1,170.1,0,0,1-12.18-19.47c-5.43-10.11-8.69-19.1-14.63-35.44-3.76-10.36-6.25-18.37-8.45-25.44-3.88-12.49-6.68-21.51-13.71-33.92-.18-.31-18.21-31.63-47.34-38.95a50.1,50.1,0,0,0-12.15-1.51A56.52,56.52,0,0,0,231.79,54Zm99.73,45.66c2.68,6.55,4.65,12.9,6.92,20.2,2.16,7,4.61,14.84,8.28,25,5.78,15.9,9,24.65,14,34.11A158.63,158.63,0,0,0,373,198.3c1-.71,22.63-16.81,21.89-45.67-.7-26.87-20.73-41.93-23-43.56a54,54,0,0,0-32-10A62.32,62.32,0,0,0,331.52,99.66ZM222.67,59c-1,.72-22.63,16.82-21.88,45.67.69,26.87,20.72,41.94,23,43.57a54,54,0,0,0,32,10,64.16,64.16,0,0,0,8.3-.55c-2.67-6.55-4.65-12.91-6.91-20.21-2.17-7-4.62-14.86-8.29-25-5.77-15.9-8.95-24.66-14-34.12A159.4,159.4,0,0,0,222.67,59Z" fill="#3d3d3d"/>
        <path d="M82.11,326.9v32A4.29,4.29,0,0,0,89,362.26a67.5,67.5,0,0,1,41.61-14.38h0a4.3,4.3,0,0,1,4.3,4.3v12.64a4.29,4.29,0,0,1-4.3,4.29h0a48.49,48.49,0,0,0-48.53,48.28V486.9a4.29,4.29,0,0,1-4.3,4.3H65.43a4.3,4.3,0,0,1-4.3-4.3v-150a14.29,14.29,0,0,1,14.3-14.29h2.38A4.29,4.29,0,0,1,82.11,326.9Z" fill="#3d3d3d"/>
        <path d="M271.93,389.49V350.76a6.92,6.92,0,0,1,6.92-6.92h.74a13.32,13.32,0,0,1,13.32,13.33V484.28A6.92,6.92,0,0,1,286,491.2h-7.14a6.92,6.92,0,0,1-6.92-6.92v-60a6.92,6.92,0,0,0-6.92-6.92H194.43a6.92,6.92,0,0,0-6.92,6.92v60a6.92,6.92,0,0,1-6.92,6.92h-7.14a6.92,6.92,0,0,1-6.92-6.92V305.07A14.05,14.05,0,0,1,180.59,291h0a6.92,6.92,0,0,1,6.92,6.92v91.56a6.92,6.92,0,0,0,6.92,6.92H265A6.92,6.92,0,0,0,271.93,389.49Z" fill="#3d3d3d"/>
        <path d="M354.07,438.63c0,27.39,23.17,49.94,50.87,48.46,3.6-.6,6.92,3.91,7.05,8v6.57a6.18,6.18,0,0,1-2,4.69,7.05,7.05,0,0,1-4.46,1.77h0a72.88,72.88,0,0,1-72.67-72.67V417.39a69.51,69.51,0,1,1,139,0v13a2.56,2.56,0,0,1-.45,1.44,6.1,6.1,0,0,1-1.22,1.45,4.69,4.69,0,0,1-3,1.05h-110a3.16,3.16,0,0,0-3.16,3.16Zm48.28-69.77c-24.5,0-43.53,17.36-47.74,40.78a3.17,3.17,0,0,0,3.12,3.71h89.49a3.17,3.17,0,0,0,3.12-3.72C446.11,386.21,426.86,368.86,402.35,368.86Z" fill="#3d3d3d"/>
        <path d="M532.63,305.88a10.49,10.49,0,0,1-10,10c-5.35,0-10.18-4.83-10.18-10a10.55,10.55,0,0,1,10.18-10.18C527.8,295.7,532.63,300.53,532.63,305.88ZM525.81,491.2h-6.55A7.21,7.21,0,0,1,512,484V351.05a7.21,7.21,0,0,1,7.22-7.21h0A13.76,13.76,0,0,1,533,357.6V484A7.21,7.21,0,0,1,525.81,491.2Z" fill="#3d3d3d"/>
      </g>
    </g>
  </g>
</svg>
