<svg xmlns="http://www.w3.org/2000/svg" width="595.65" height="508.13" viewBox="0 0 595.65 508.13">
  <g id="a4ac40a5-536a-47f9-a615-87c8e8c379bb" data-name="Layer 2">
    <g id="b3a441a2-c725-479b-ad19-41b897515fad" data-name="Layer 2">
      <g id="f3c50531-bd7c-4c8a-b16b-37a838e44f43" data-name="black - color">
        <g>
          <path d="M394.85,152.63c.75,28.85-20.89,45-21.88,45.67a158.19,158.19,0,0,1-12.22-19.37c-5.08-9.46-8.26-18.22-14-34.12-3.68-10.11-6.13-18-8.29-25-2.26-7.29-4.24-13.64-6.91-20.2a64,64,0,0,1,8.3-.55,54,54,0,0,1,32,10C374.13,110.69,394.16,125.76,394.85,152.63Z" fill="#fc9390"/>
          <path d="M363.85,203.27a56.53,56.53,0,0,1-23.6,5.47,49.57,49.57,0,0,1-12.15-1.52c-29.15-7.33-47.16-38.64-47.34-38.95-7-12.42-9.84-21.44-13.71-33.92-2.19-7-4.68-15-8.45-25.45-5.94-16.33-9.21-25.32-14.63-35.43A169.23,169.23,0,0,0,231.79,54a56.49,56.49,0,0,1,23.59-5.47,49.71,49.71,0,0,1,12.16,1.52c29.13,7.32,47.16,38.63,47.34,39,7,12.41,9.83,21.43,13.71,33.91,2.2,7.07,4.69,15.09,8.45,25.45,5.93,16.33,9.2,25.33,14.63,35.44A168.72,168.72,0,0,0,363.85,203.27Z" fill="#feb18d"/>
          <path d="M257.2,137.41c2.27,7.3,4.24,13.65,6.92,20.2a62.48,62.48,0,0,1-8.31.56,54,54,0,0,1-32-10c-2.28-1.63-22.31-16.69-23-43.56C200,75.79,221.67,59.69,222.67,59a159.86,159.86,0,0,1,12.22,19.37c5.07,9.46,8.25,18.22,14,34.11C252.59,122.55,255,130.44,257.2,137.41Z" fill="#fed891"/>
          <path d="M576.13,62.2c7.57,12.27,30.86,56.4,12.81,109.16-16.59,48.51-56.6,69.63-68.46,74.94a128.24,128.24,0,0,1-52.12,11,130.82,130.82,0,0,1-51.26-10.44,123,123,0,0,1-13.27-6.7,128.32,128.32,0,0,1-33.49-28.55,67.34,67.34,0,0,1-30,7.48,60.39,60.39,0,0,1-14.72-1.84c-33.37-8.4-53-42.43-53.8-43.87-1.13-2-2.19-4-3.21-6a71.12,71.12,0,0,1-12.89,1.17,63.87,63.87,0,0,1-37.89-11.95c-2.71-1.94-26.5-19.83-27.32-51.69s20.79-50.22,25.75-54A118,118,0,0,0,79.38,20.37C68.47,25.26,31.69,44.68,16.45,89.24c-16.59,48.48,4.86,89.12,11.83,100.42,5.22,8.46,34,50.92,88.43,56.21,3.62.35,7.27.53,10.87.53,45.06,0,76.33-27.94,84.84-36.51a5.16,5.16,0,0,1,8.8,3.49,5,5,0,0,1-1.49,3.77c-11.86,11.9-44.59,39.56-92.17,39.56-3.92,0-7.91-.2-11.85-.58a120.6,120.6,0,0,1-36-9.25C44,231.55,24.61,203.35,19.51,195.07,11.94,182.8-11.35,138.65,6.7,85.9,23.28,37.41,63.29,16.28,75.16,11A126.77,126.77,0,0,1,225.29,45.69a67.41,67.41,0,0,1,30-7.48,60.45,60.45,0,0,1,14.72,1.84c33.34,8.39,53,42.42,53.79,43.87,1.14,2,2.2,4,3.22,6a71,71,0,0,1,12.88-1.17,63.92,63.92,0,0,1,37.9,12c2.71,1.93,26.49,19.83,27.32,51.68.82,32-20.79,50.23-25.76,54A118.05,118.05,0,0,0,516.26,236.9c10.91-4.89,47.68-24.31,62.93-68.87,17-49.75-6.87-92.38-11.83-100.42-5.22-8.46-34-50.92-88.44-56.22-3.61-.35-7.27-.53-10.86-.53-45.06,0-76.33,28-84.85,36.51a5.08,5.08,0,0,1-3.64,1.52,5.18,5.18,0,0,1-3.43-1.3,5.24,5.24,0,0,1-1.73-3.71,5.08,5.08,0,0,1,1.5-3.77C387.77,28.22,420.49.56,468.07.56c3.93,0,7.91.2,11.85.58C539.21,6.9,570.47,53,576.13,62.2ZM373,198.3c1-.71,22.63-16.82,21.88-45.67-.69-26.87-20.72-41.94-23-43.57a54,54,0,0,0-32-10,64,64,0,0,0-8.3.55c2.67,6.56,4.65,12.91,6.91,20.2,2.16,7,4.61,14.85,8.29,25,5.77,15.9,8.95,24.66,14,34.12A158.19,158.19,0,0,0,373,198.3Zm-32.72,10.44a56.53,56.53,0,0,0,23.6-5.47,168.72,168.72,0,0,1-12.18-19.47c-5.43-10.11-8.7-19.11-14.63-35.44-3.76-10.36-6.25-18.38-8.45-25.45-3.88-12.48-6.68-21.5-13.71-33.91-.18-.32-18.21-31.63-47.34-38.95a49.71,49.71,0,0,0-12.16-1.52A56.49,56.49,0,0,0,231.79,54,169.23,169.23,0,0,1,244,73.47c5.42,10.11,8.69,19.1,14.63,35.43,3.77,10.41,6.26,18.4,8.45,25.45,3.87,12.48,6.67,21.5,13.71,33.92.18.31,18.19,31.62,47.34,38.95A49.57,49.57,0,0,0,340.25,208.74Zm-76.13-51.13c-2.68-6.55-4.65-12.9-6.92-20.2-2.16-7-4.61-14.86-8.28-25-5.78-15.89-9-24.65-14-34.11A159.86,159.86,0,0,0,222.67,59c-1,.72-22.63,16.82-21.89,45.67.7,26.87,20.73,41.93,23,43.56a54,54,0,0,0,32,10A62.48,62.48,0,0,0,264.12,157.61Z" fill="#3d3d3d"/>
          <path d="M533,357.6V484a7.21,7.21,0,0,1-7.21,7.22h-6.56A7.21,7.21,0,0,1,512,484V351.05a7.21,7.21,0,0,1,7.21-7.21A13.76,13.76,0,0,1,533,357.6Z" fill="#3d3d3d"/>
          <path d="M522.62,295.7c5.17,0,10,4.83,10,10.18a10.5,10.5,0,0,1-10,10c-5.35,0-10.19-4.83-10.19-10A10.56,10.56,0,0,1,522.62,295.7Z" fill="#3d3d3d"/>
          <path d="M471.86,417.39v13a2.56,2.56,0,0,1-.45,1.45,6.32,6.32,0,0,1-1.23,1.45,4.64,4.64,0,0,1-3,1h-110a3.17,3.17,0,0,0-3.16,3.16v1.14c0,27.4,23.17,49.95,50.87,48.46,3.6-.59,6.91,3.92,7,8v6.57a6.16,6.16,0,0,1-2,4.69,7,7,0,0,1-4.46,1.77,72.89,72.89,0,0,1-72.67-72.67V417.39a69.51,69.51,0,1,1,139,0Zm-24.64-4.05a3.17,3.17,0,0,0,3.12-3.71c-4.24-23.42-23.49-40.77-48-40.77s-43.53,17.35-47.74,40.77a3.16,3.16,0,0,0,3.12,3.71Z" fill="#3d3d3d"/>
          <path d="M292.91,357.16V484.28A6.92,6.92,0,0,1,286,491.2h-7.14a6.92,6.92,0,0,1-6.92-6.92v-60a6.92,6.92,0,0,0-6.92-6.92H194.43a6.92,6.92,0,0,0-6.92,6.92v60a6.92,6.92,0,0,1-6.92,6.92h-7.14a6.92,6.92,0,0,1-6.92-6.92V305.06A14.05,14.05,0,0,1,180.59,291a6.91,6.91,0,0,1,6.92,6.92v91.56a6.92,6.92,0,0,0,6.92,6.92H265a6.92,6.92,0,0,0,6.92-6.92V350.76a6.92,6.92,0,0,1,6.92-6.92h.73A13.32,13.32,0,0,1,292.91,357.16Z" fill="#3d3d3d"/>
          <path d="M134.94,352.18v12.63a4.3,4.3,0,0,1-4.3,4.3,48.5,48.5,0,0,0-48.53,48.28V486.9a4.3,4.3,0,0,1-4.3,4.3H65.43a4.3,4.3,0,0,1-4.3-4.3v-150a14.3,14.3,0,0,1,14.3-14.3h2.38a4.3,4.3,0,0,1,4.3,4.3v32A4.29,4.29,0,0,0,89,362.25a67.47,67.47,0,0,1,41.61-14.37,4.3,4.3,0,0,1,4.3,4.3Z" fill="#3d3d3d"/>
        </g>
      </g>
    </g>
  </g>
</svg>
